<svg width="53" height="22" viewBox="0 0 53 22" fill="none" xmlns="http://www.w3.org/2000/svg">
<rect width="53" height="22" rx="11" fill="#ECFDF3"/>
<path d="M10.1081 15H8.7104L11.851 6.27273H13.3723L16.513 15H15.1152L12.6479 7.85795H12.5797L10.1081 15ZM10.3425 11.5824H14.8766V12.6903H10.3425V11.5824ZM20.3226 15.1321C19.6891 15.1321 19.1436 14.9886 18.6863 14.7017C18.2317 14.4119 17.8823 14.0128 17.638 13.5043C17.3936 12.9957 17.2715 12.4134 17.2715 11.7571C17.2715 11.0923 17.3965 10.5057 17.6465 9.99716C17.8965 9.4858 18.2488 9.08665 18.7033 8.79972C19.1578 8.51278 19.6934 8.36932 20.3098 8.36932C20.807 8.36932 21.2502 8.46165 21.6394 8.64631C22.0286 8.82812 22.3425 9.08381 22.5811 9.41335C22.8226 9.7429 22.9661 10.1278 23.0115 10.5682H21.7715C21.7033 10.2614 21.5471 9.99716 21.3027 9.77557C21.0613 9.55398 20.7374 9.44318 20.3311 9.44318C19.976 9.44318 19.665 9.53693 19.3979 9.72443C19.1337 9.90909 18.9277 10.1733 18.78 10.517C18.6323 10.858 18.5584 11.2614 18.5584 11.7273C18.5584 12.2045 18.6309 12.6165 18.7757 12.9631C18.9206 13.3097 19.1252 13.5781 19.3894 13.7685C19.6564 13.9588 19.9703 14.054 20.3311 14.054C20.5726 14.054 20.7914 14.0099 20.9874 13.9219C21.1863 13.831 21.3525 13.7017 21.486 13.5341C21.6223 13.3665 21.7175 13.1648 21.7715 12.929H23.0115C22.9661 13.3523 22.8283 13.7301 22.5982 14.0625C22.3681 14.3949 22.0598 14.6562 21.6735 14.8466C21.29 15.0369 20.8397 15.1321 20.3226 15.1321ZM27.4295 8.45455V9.47727H23.8542V8.45455H27.4295ZM24.813 6.88636H26.0872V13.0781C26.0872 13.3253 26.1241 13.5114 26.198 13.6364C26.2718 13.7585 26.367 13.8423 26.4835 13.8878C26.6028 13.9304 26.7321 13.9517 26.8713 13.9517C26.9735 13.9517 27.063 13.9446 27.1397 13.9304C27.2164 13.9162 27.2761 13.9048 27.3187 13.8963L27.5488 14.9489C27.475 14.9773 27.3699 15.0057 27.2335 15.0341C27.0971 15.0653 26.9267 15.0824 26.7221 15.0852C26.3869 15.0909 26.0744 15.0312 25.7846 14.9062C25.4949 14.7812 25.2605 14.5881 25.0815 14.3267C24.9025 14.0653 24.813 13.7372 24.813 13.3423V6.88636ZM28.839 15V8.45455H30.1131V15H28.839ZM29.4824 7.4446C29.2608 7.4446 29.0705 7.37074 28.9114 7.22301C28.7551 7.07244 28.677 6.89347 28.677 6.68608C28.677 6.47585 28.7551 6.29687 28.9114 6.14915C29.0705 5.99858 29.2608 5.9233 29.4824 5.9233C29.704 5.9233 29.8929 5.99858 30.0492 6.14915C30.2083 6.29687 30.2878 6.47585 30.2878 6.68608C30.2878 6.89347 30.2083 7.07244 30.0492 7.22301C29.8929 7.37074 29.704 7.4446 29.4824 7.4446ZM37.4267 8.45455L35.0531 15H33.6895L31.3116 8.45455H32.6795L34.3372 13.4915H34.4054L36.0588 8.45455H37.4267ZM41.2225 15.1321C40.5776 15.1321 40.0222 14.9943 39.5563 14.7188C39.0932 14.4403 38.7353 14.0497 38.4824 13.5469C38.2324 13.0412 38.1074 12.4489 38.1074 11.7699C38.1074 11.0994 38.2324 10.5085 38.4824 9.99716C38.7353 9.4858 39.0875 9.08665 39.5392 8.79972C39.9938 8.51278 40.525 8.36932 41.133 8.36932C41.5023 8.36932 41.8603 8.4304 42.2069 8.55256C42.5534 8.67472 42.8645 8.86648 43.1401 9.12784C43.4157 9.3892 43.633 9.72869 43.7921 10.1463C43.9512 10.5611 44.0307 11.0653 44.0307 11.6591V12.1108H38.8276V11.1562H42.7821C42.7821 10.821 42.714 10.5241 42.5776 10.2656C42.4412 10.0043 42.2495 9.7983 42.0023 9.64773C41.758 9.49716 41.4711 9.42188 41.1415 9.42188C40.7836 9.42188 40.4711 9.50994 40.204 9.68608C39.9398 9.85937 39.7353 10.0866 39.5904 10.3679C39.4483 10.6463 39.3773 10.9489 39.3773 11.2756V12.0213C39.3773 12.4588 39.454 12.831 39.6074 13.1378C39.7637 13.4446 39.981 13.679 40.2594 13.8409C40.5378 14 40.8631 14.0795 41.2353 14.0795C41.4767 14.0795 41.6969 14.0455 41.8958 13.9773C42.0946 13.9062 42.2665 13.8011 42.4114 13.6619C42.5563 13.5227 42.6671 13.3509 42.7438 13.1463L43.9498 13.3636C43.8532 13.7187 43.6799 14.0298 43.4299 14.2969C43.1827 14.5611 42.8716 14.767 42.4966 14.9148C42.1245 15.0597 41.6998 15.1321 41.2225 15.1321Z" fill="#027A48"/>
</svg>
