<svg width="67" height="22" viewBox="0 0 67 22" fill="none" xmlns="http://www.w3.org/2000/svg">
<rect width="67" height="22" rx="11" fill="#FEF3C7"/>
<path d="M9.73704 15H8.33931L11.4799 6.27273H13.0012L16.1419 15H14.7441L12.2768 7.85795H12.2086L9.73704 15ZM9.97141 11.5824H14.5055V12.6903H9.97141V11.5824ZM17.2999 15V8.45455H18.5314V9.49432H18.5996C18.7189 9.14205 18.9292 8.86506 19.2303 8.66335C19.5343 8.45881 19.878 8.35653 20.2615 8.35653C20.3411 8.35653 20.4348 8.35937 20.5428 8.36506C20.6536 8.37074 20.7402 8.37784 20.8027 8.38636V9.60511C20.7516 9.59091 20.6607 9.57528 20.53 9.55824C20.3993 9.53835 20.2686 9.52841 20.138 9.52841C19.8368 9.52841 19.5684 9.59233 19.3326 9.72017C19.0996 9.84517 18.915 10.0199 18.7786 10.2443C18.6422 10.4659 18.574 10.7187 18.574 11.0028V15H17.2999ZM24.4281 15.1321C23.7946 15.1321 23.2491 14.9886 22.7917 14.7017C22.3372 14.4119 21.9877 14.0128 21.7434 13.5043C21.4991 12.9957 21.377 12.4134 21.377 11.7571C21.377 11.0923 21.502 10.5057 21.752 9.99716C22.002 9.4858 22.3542 9.08665 22.8088 8.79972C23.2633 8.51278 23.7988 8.36932 24.4153 8.36932C24.9125 8.36932 25.3556 8.46165 25.7449 8.64631C26.1341 8.82812 26.448 9.08381 26.6866 9.41335C26.9281 9.7429 27.0716 10.1278 27.117 10.5682H25.877C25.8088 10.2614 25.6525 9.99716 25.4082 9.77557C25.1667 9.55398 24.8429 9.44318 24.4366 9.44318C24.0815 9.44318 23.7704 9.53693 23.5034 9.72443C23.2392 9.90909 23.0332 10.1733 22.8855 10.517C22.7377 10.858 22.6639 11.2614 22.6639 11.7273C22.6639 12.2045 22.7363 12.6165 22.8812 12.9631C23.0261 13.3097 23.2306 13.5781 23.4949 13.7685C23.7619 13.9588 24.0758 14.054 24.4366 14.054C24.6781 14.054 24.8968 14.0099 25.0929 13.9219C25.2917 13.831 25.4579 13.7017 25.5914 13.5341C25.7278 13.3665 25.823 13.1648 25.877 12.929H27.117C27.0716 13.3523 26.9338 13.7301 26.7037 14.0625C26.4735 14.3949 26.1653 14.6562 25.7789 14.8466C25.3954 15.0369 24.9451 15.1321 24.4281 15.1321ZM29.7537 11.1136V15H28.4796V6.27273H29.7367V9.51989H29.8176C29.9711 9.16761 30.2054 8.88778 30.5208 8.6804C30.8361 8.47301 31.248 8.36932 31.7566 8.36932C32.2054 8.36932 32.5975 8.46165 32.9327 8.64631C33.2708 8.83097 33.5321 9.10653 33.7168 9.47301C33.9043 9.83665 33.998 10.2912 33.998 10.8366V15H32.7239V10.9901C32.7239 10.5099 32.6003 10.1378 32.3532 9.87358C32.106 9.60653 31.7623 9.47301 31.3219 9.47301C31.0208 9.47301 30.7509 9.53693 30.5123 9.66477C30.2765 9.79261 30.0904 9.98011 29.954 10.2273C29.8205 10.4716 29.7537 10.767 29.7537 11.1136ZM35.6983 15V8.45455H36.9725V15H35.6983ZM36.3418 7.4446C36.1202 7.4446 35.9299 7.37074 35.7708 7.22301C35.6145 7.07244 35.5364 6.89347 35.5364 6.68608C35.5364 6.47585 35.6145 6.29687 35.7708 6.14915C35.9299 5.99858 36.1202 5.9233 36.3418 5.9233C36.5634 5.9233 36.7523 5.99858 36.9086 6.14915C37.0676 6.29687 37.1472 6.47585 37.1472 6.68608C37.1472 6.89347 37.0676 7.07244 36.9086 7.22301C36.7523 7.37074 36.5634 7.4446 36.3418 7.4446ZM44.286 8.45455L41.9125 15H40.5488L38.171 8.45455H39.5389L41.1966 13.4915H41.2647L42.9181 8.45455H44.286ZM48.0819 15.1321C47.437 15.1321 46.8816 14.9943 46.4157 14.7188C45.9526 14.4403 45.5946 14.0497 45.3418 13.5469C45.0918 13.0412 44.9668 12.4489 44.9668 11.7699C44.9668 11.0994 45.0918 10.5085 45.3418 9.99716C45.5946 9.4858 45.9469 9.08665 46.3986 8.79972C46.8532 8.51278 47.3844 8.36932 47.9924 8.36932C48.3617 8.36932 48.7196 8.4304 49.0662 8.55256C49.4128 8.67472 49.7239 8.86648 49.9995 9.12784C50.275 9.3892 50.4924 9.72869 50.6515 10.1463C50.8105 10.5611 50.8901 11.0653 50.8901 11.6591V12.1108H45.687V11.1562H49.6415C49.6415 10.821 49.5733 10.5241 49.437 10.2656C49.3006 10.0043 49.1088 9.7983 48.8617 9.64773C48.6174 9.49716 48.3304 9.42188 48.0009 9.42188C47.6429 9.42188 47.3304 9.50994 47.0634 9.68608C46.7992 9.85937 46.5946 10.0866 46.4498 10.3679C46.3077 10.6463 46.2367 10.9489 46.2367 11.2756V12.0213C46.2367 12.4588 46.3134 12.831 46.4668 13.1378C46.623 13.4446 46.8404 13.679 47.1188 13.8409C47.3972 14 47.7225 14.0795 48.0946 14.0795C48.3361 14.0795 48.5563 14.0455 48.7551 13.9773C48.954 13.9062 49.1259 13.8011 49.2708 13.6619C49.4157 13.5227 49.5265 13.3509 49.6032 13.1463L50.8091 13.3636C50.7125 13.7187 50.5392 14.0298 50.2892 14.2969C50.0421 14.5611 49.731 14.767 49.356 14.9148C48.9838 15.0597 48.5591 15.1321 48.0819 15.1321ZM54.7541 15.1278C54.2257 15.1278 53.7541 14.9929 53.3393 14.723C52.9274 14.4503 52.6035 14.0625 52.3677 13.5597C52.1348 13.054 52.0183 12.4474 52.0183 11.7401C52.0183 11.0327 52.1362 10.4276 52.372 9.92472C52.6106 9.42187 52.9373 9.03693 53.3521 8.76989C53.7669 8.50284 54.237 8.36932 54.7626 8.36932C55.1689 8.36932 55.4956 8.4375 55.7427 8.57386C55.9927 8.70739 56.1859 8.86364 56.3223 9.04261C56.4615 9.22159 56.5694 9.37926 56.6461 9.51562H56.7228V6.27273H57.997V15H56.7527V13.9815H56.6461C56.5694 14.1207 56.4586 14.2798 56.3137 14.4588C56.1717 14.6378 55.9757 14.794 55.7257 14.9276C55.4757 15.0611 55.1518 15.1278 54.7541 15.1278ZM55.0353 14.0412C55.4018 14.0412 55.7115 13.9446 55.9643 13.7514C56.22 13.5554 56.4132 13.2841 56.5439 12.9375C56.6774 12.5909 56.7441 12.1875 56.7441 11.7273C56.7441 11.2727 56.6788 10.875 56.5481 10.5341C56.4174 10.1932 56.2257 9.92756 55.9728 9.73722C55.72 9.54687 55.4075 9.4517 55.0353 9.4517C54.6518 9.4517 54.3322 9.55114 54.0765 9.75C53.8208 9.94886 53.6277 10.2202 53.497 10.5639C53.3691 10.9077 53.3052 11.2955 53.3052 11.7273C53.3052 12.1648 53.3706 12.5582 53.5012 12.9077C53.6319 13.2571 53.8251 13.5341 54.0808 13.7386C54.3393 13.9403 54.6575 14.0412 55.0353 14.0412Z" fill="#B45309"/>
</svg>
