<svg width="56" height="56" viewBox="0 0 56 56" fill="none" xmlns="http://www.w3.org/2000/svg">
<rect width="56" height="56" rx="28" fill="#311300"/>
<path d="M38.6667 40V37.3333C38.6667 35.9188 38.1048 34.5623 37.1046 33.5621C36.1044 32.5619 34.7479 32 33.3334 32H22.6667C21.2522 32 19.8957 32.5619 18.8955 33.5621C17.8953 34.5623 17.3334 35.9188 17.3334 37.3333V40M33.3334 21.3333C33.3334 24.2789 30.9456 26.6667 28 26.6667C25.0545 26.6667 22.6667 24.2789 22.6667 21.3333C22.6667 18.3878 25.0545 16 28 16C30.9456 16 33.3334 18.3878 33.3334 21.3333Z" stroke="white" stroke-width="2.66667" stroke-linecap="round" stroke-linejoin="round"/>
</svg>
