<svg width="86" height="24" viewBox="0 0 86 24" fill="none" xmlns="http://www.w3.org/2000/svg">
<rect x="0.399902" width="85" height="24" rx="12" fill="#ECFDF3"/>
<path d="M20.0797 10.1293H18.5285C18.4689 9.79782 18.3579 9.50615 18.1954 9.25426C18.033 9.00237 17.8342 8.78859 17.5989 8.61293C17.3635 8.43726 17.1 8.30469 16.8084 8.2152C16.52 8.12571 16.2134 8.08097 15.8886 8.08097C15.302 8.08097 14.7766 8.22846 14.3126 8.52344C13.8519 8.81842 13.4873 9.25095 13.2189 9.82102C12.9537 10.3911 12.8212 11.0871 12.8212 11.9091C12.8212 12.7377 12.9537 13.437 13.2189 14.0071C13.4873 14.5772 13.8536 15.008 14.3176 15.2997C14.7816 15.5914 15.3036 15.7372 15.8837 15.7372C16.2052 15.7372 16.5101 15.6941 16.7984 15.608C17.0901 15.5185 17.3536 15.3875 17.5889 15.2152C17.8242 15.0429 18.0231 14.8324 18.1855 14.5838C18.3512 14.3319 18.4656 14.0436 18.5285 13.7188L20.0797 13.7237C19.9968 14.2242 19.8361 14.6849 19.5974 15.1058C19.3621 15.5234 19.0588 15.8847 18.6876 16.1896C18.3197 16.4912 17.8988 16.7249 17.4248 16.8906C16.9509 17.0563 16.4338 17.1392 15.8737 17.1392C14.9921 17.1392 14.2066 16.9304 13.5172 16.5128C12.8278 16.0919 12.2842 15.4903 11.8865 14.7081C11.4921 13.9259 11.2949 12.9929 11.2949 11.9091C11.2949 10.822 11.4937 9.88897 11.8915 9.11008C12.2892 8.32789 12.8328 7.72798 13.5222 7.31037C14.2115 6.88944 14.9954 6.67898 15.8737 6.67898C16.414 6.67898 16.9177 6.75687 17.3851 6.91264C17.8557 7.0651 18.2783 7.29048 18.6528 7.58878C19.0274 7.88376 19.3373 8.24503 19.5825 8.67258C19.8278 9.09683 19.9935 9.58239 20.0797 10.1293ZM25.0152 17.1541C24.2993 17.1541 23.6746 16.9901 23.1409 16.6619C22.6073 16.3338 22.193 15.8748 21.898 15.2848C21.6031 14.6948 21.4556 14.0054 21.4556 13.2166C21.4556 12.4245 21.6031 11.7318 21.898 11.1385C22.193 10.5452 22.6073 10.0845 23.1409 9.75639C23.6746 9.42827 24.2993 9.2642 25.0152 9.2642C25.7311 9.2642 26.3559 9.42827 26.8895 9.75639C27.4231 10.0845 27.8374 10.5452 28.1324 11.1385C28.4274 11.7318 28.5749 12.4245 28.5749 13.2166C28.5749 14.0054 28.4274 14.6948 28.1324 15.2848C27.8374 15.8748 27.4231 16.3338 26.8895 16.6619C26.3559 16.9901 25.7311 17.1541 25.0152 17.1541ZM25.0202 15.9062C25.4842 15.9062 25.8687 15.7836 26.1736 15.5384C26.4785 15.2931 26.7039 14.9666 26.8497 14.5589C26.9989 14.1513 27.0735 13.7022 27.0735 13.2116C27.0735 12.7244 26.9989 12.277 26.8497 11.8693C26.7039 11.4583 26.4785 11.1286 26.1736 10.88C25.8687 10.6314 25.4842 10.5071 25.0202 10.5071C24.5529 10.5071 24.1651 10.6314 23.8568 10.88C23.5519 11.1286 23.3249 11.4583 23.1757 11.8693C23.0299 12.277 22.957 12.7244 22.957 13.2116C22.957 13.7022 23.0299 14.1513 23.1757 14.5589C23.3249 14.9666 23.5519 15.2931 23.8568 15.5384C24.1651 15.7836 24.5529 15.9062 25.0202 15.9062ZM30.2342 17V9.36364H31.661V10.6065H31.7555C31.9146 10.1856 32.1747 9.85748 32.536 9.62216C32.8973 9.38352 33.3298 9.2642 33.8336 9.2642C34.344 9.2642 34.7716 9.38352 35.1163 9.62216C35.4643 9.8608 35.7211 10.1889 35.8869 10.6065H35.9664C36.1487 10.1989 36.4387 9.87405 36.8364 9.6321C37.2342 9.38684 37.7081 9.2642 38.2583 9.2642C38.951 9.2642 39.5161 9.4813 39.9536 9.91548C40.3944 10.3497 40.6148 11.0043 40.6148 11.8793V17H39.1283V12.0185C39.1283 11.5014 38.9875 11.1269 38.7057 10.8949C38.424 10.6629 38.0876 10.5469 37.6965 10.5469C37.2126 10.5469 36.8364 10.696 36.568 10.9943C36.2995 11.2893 36.1653 11.6688 36.1653 12.1328V17H34.6837V11.924C34.6837 11.5097 34.5545 11.1766 34.2959 10.9247C34.0374 10.6728 33.701 10.5469 33.2867 10.5469C33.005 10.5469 32.7448 10.6214 32.5062 10.7706C32.2708 10.9164 32.0803 11.1203 31.9344 11.3821C31.7919 11.6439 31.7207 11.9472 31.7207 12.2919V17H30.2342ZM42.6072 19.8636V9.36364H44.0589V10.6016H44.1832C44.2694 10.4425 44.3937 10.2585 44.5561 10.0497C44.7185 9.84091 44.9438 9.65862 45.2322 9.50284C45.5206 9.34375 45.9017 9.2642 46.3757 9.2642C46.9921 9.2642 47.5423 9.41998 48.0262 9.73153C48.5101 10.0431 48.8896 10.4922 49.1647 11.0788C49.4431 11.6655 49.5823 12.3714 49.5823 13.1967C49.5823 14.022 49.4448 14.7296 49.1697 15.3196C48.8946 15.9062 48.5168 16.3587 48.0362 16.6768C47.5556 16.9917 47.0071 17.1491 46.3906 17.1491C45.9266 17.1491 45.5471 17.0713 45.2521 16.9155C44.9604 16.7597 44.7317 16.5774 44.566 16.3686C44.4003 16.1598 44.2727 15.9742 44.1832 15.8118H44.0937V19.8636H42.6072ZM44.0639 13.1818C44.0639 13.7187 44.1418 14.1894 44.2975 14.5938C44.4533 14.9981 44.6787 15.3146 44.9737 15.5433C45.2687 15.7687 45.6299 15.8814 46.0575 15.8814C46.5016 15.8814 46.8728 15.7637 47.1711 15.5284C47.4694 15.2898 47.6948 14.9666 47.8473 14.5589C48.003 14.1513 48.0809 13.6922 48.0809 13.1818C48.0809 12.678 48.0047 12.2256 47.8522 11.8246C47.7031 11.4235 47.4777 11.107 47.1761 10.875C46.8778 10.643 46.5049 10.527 46.0575 10.527C45.6266 10.527 45.262 10.638 44.9637 10.8601C44.6688 11.0821 44.445 11.392 44.2926 11.7898C44.1401 12.1875 44.0639 12.6515 44.0639 13.1818ZM52.7343 6.81818V17H51.2478V6.81818H52.7343ZM58.0253 17.1541C57.273 17.1541 56.625 16.9934 56.0815 16.6719C55.5412 16.3471 55.1236 15.8913 54.8286 15.3047C54.5369 14.7147 54.3911 14.0237 54.3911 13.2315C54.3911 12.4493 54.5369 11.7599 54.8286 11.1634C55.1236 10.5668 55.5346 10.1011 56.0616 9.76633C56.5919 9.43158 57.2117 9.2642 57.9209 9.2642C58.3518 9.2642 58.7694 9.33546 59.1738 9.47798C59.5781 9.6205 59.9411 9.84422 60.2626 10.1491C60.5841 10.4541 60.8376 10.8501 61.0232 11.3374C61.2088 11.8213 61.3016 12.4096 61.3016 13.1023V13.6293H55.2313V12.5156H59.8449C59.8449 12.1245 59.7654 11.7782 59.6063 11.4766C59.4472 11.1716 59.2235 10.9313 58.9351 10.7557C58.6501 10.58 58.3154 10.4922 57.9309 10.4922C57.5133 10.4922 57.1487 10.5949 56.8371 10.8004C56.5289 11.0026 56.2903 11.2678 56.1212 11.5959C55.9555 11.9207 55.8726 12.2737 55.8726 12.6548V13.5249C55.8726 14.0353 55.9621 14.4695 56.1411 14.8274C56.3234 15.1854 56.577 15.4588 56.9018 15.6477C57.2266 15.8333 57.6061 15.9261 58.0403 15.9261C58.322 15.9261 58.5789 15.8864 58.8109 15.8068C59.0429 15.724 59.2434 15.6013 59.4124 15.4389C59.5815 15.2765 59.7107 15.076 59.8002 14.8374L61.2072 15.0909C61.0945 15.5052 60.8923 15.8681 60.6006 16.1797C60.3123 16.4879 59.9494 16.7282 59.5119 16.9006C59.0777 17.0696 58.5822 17.1541 58.0253 17.1541ZM66.5156 9.36364V10.5568H62.3444V9.36364H66.5156ZM63.463 7.53409H64.9495V14.7578C64.9495 15.0462 64.9926 15.2633 65.0788 15.4091C65.165 15.5516 65.276 15.6494 65.4119 15.7024C65.5511 15.7521 65.7019 15.777 65.8643 15.777C65.9836 15.777 66.088 15.7687 66.1775 15.7521C66.267 15.7356 66.3366 15.7223 66.3863 15.7124L66.6548 16.9403C66.5686 16.9735 66.446 17.0066 66.2869 17.0398C66.1278 17.0762 65.9289 17.0961 65.6903 17.0994C65.2992 17.1061 64.9346 17.0365 64.5965 16.8906C64.2585 16.7448 63.985 16.5194 63.7762 16.2145C63.5674 15.9096 63.463 15.5268 63.463 15.0661V7.53409ZM71.3691 17.1541C70.6167 17.1541 69.9688 16.9934 69.4252 16.6719C68.885 16.3471 68.4673 15.8913 68.1724 15.3047C67.8807 14.7147 67.7349 14.0237 67.7349 13.2315C67.7349 12.4493 67.8807 11.7599 68.1724 11.1634C68.4673 10.5668 68.8783 10.1011 69.4053 9.76633C69.9356 9.43158 70.5554 9.2642 71.2647 9.2642C71.6956 9.2642 72.1132 9.33546 72.5175 9.47798C72.9219 9.6205 73.2848 9.84422 73.6063 10.1491C73.9278 10.4541 74.1814 10.8501 74.367 11.3374C74.5526 11.8213 74.6454 12.4096 74.6454 13.1023V13.6293H68.5751V12.5156H73.1887C73.1887 12.1245 73.1092 11.7782 72.9501 11.4766C72.791 11.1716 72.5672 10.9313 72.2789 10.7557C71.9939 10.58 71.6591 10.4922 71.2746 10.4922C70.857 10.4922 70.4924 10.5949 70.1809 10.8004C69.8726 11.0026 69.634 11.2678 69.465 11.5959C69.2993 11.9207 69.2164 12.2737 69.2164 12.6548V13.5249C69.2164 14.0353 69.3059 14.4695 69.4849 14.8274C69.6672 15.1854 69.9207 15.4588 70.2455 15.6477C70.5703 15.8333 70.9498 15.9261 71.384 15.9261C71.6657 15.9261 71.9226 15.8864 72.1546 15.8068C72.3866 15.724 72.5871 15.6013 72.7562 15.4389C72.9252 15.2765 73.0545 15.076 73.144 14.8374L74.5509 15.0909C74.4382 15.5052 74.236 15.8681 73.9444 16.1797C73.656 16.4879 73.2931 16.7282 72.8556 16.9006C72.4214 17.0696 71.9259 17.1541 71.3691 17.1541Z" fill="#027A48"/>
</svg>
