<svg width="144" height="11" viewBox="0 0 144 11" fill="none" xmlns="http://www.w3.org/2000/svg">
<path fill-rule="evenodd" clip-rule="evenodd" d="M115.265 0.588686C109.919 0.816795 95.2398 1.47221 90.5491 1.69711C82.6038 2.07622 69.3638 2.42964 47.9279 2.83124C13.2264 3.51235 2.50848 4.24486 0.744651 6.134C-0.566175 7.52193 1.12377 7.64723 11.514 7.01752C22.5596 6.3364 28.1595 6.06011 40.4903 5.60389C59.9599 4.87137 83.7411 3.73724 93.704 3.08183C115.342 1.6457 122.908 1.34049 133.601 1.5429C142.857 1.6939 143.814 1.64249 143.082 0.913183C142.854 0.685073 119.529 0.408785 115.265 0.58549V0.588686Z" fill="#FF6600"/>
<path fill-rule="evenodd" clip-rule="evenodd" d="M100.512 6.41351C98.7225 6.46492 92.9715 6.66412 87.7507 6.86653C81.9741 7.09464 72.1654 7.24564 62.6586 7.24564C45.5601 7.24564 33.1522 7.54764 25.3612 8.12916C19.787 8.55646 18.1741 8.78457 16.7605 9.38858C15.9027 9.74198 15.8513 9.81588 16.2047 10.1693C16.4328 10.3974 17.1621 10.6737 17.8175 10.799C19.1283 11.0496 19.6584 11.0271 29.0141 10.2432C41.573 9.20867 46.9962 8.98377 65.2032 8.75566C75.3428 8.63036 84.5218 8.45366 85.6302 8.37655C86.7387 8.29944 89.9675 8.12272 92.8173 7.99742C98.6935 7.69542 107.545 7.04002 108.403 6.86331C108.73 6.78621 108.907 6.61272 108.83 6.4842C108.73 6.3332 107.593 6.25609 106.231 6.2818C104.894 6.3075 102.321 6.3814 100.506 6.4071L100.512 6.41351Z" fill="#FF6600"/>
</svg>
