<svg width="58" height="57" viewBox="0 0 58 57" fill="none" xmlns="http://www.w3.org/2000/svg">
<g id="Group 9">
<path id="Vector" fill-rule="evenodd" clip-rule="evenodd" d="M21.342 9.80338C21.2491 10.0427 21.301 10.4712 21.4469 10.7558C21.8062 11.4102 24.0833 14.2171 24.3129 14.2911C24.8582 14.4669 24.6483 13.4963 23.7327 11.5698C22.9334 9.82326 22.682 9.47298 22.2803 9.34349C21.6966 9.13954 21.5258 9.22704 21.3408 9.801L21.342 9.80338Z" fill="#FF6600"/>
<path id="Vector_2" fill-rule="evenodd" clip-rule="evenodd" d="M2.84693 25.5344C2.70771 25.9172 3.47214 27.0347 4.03732 27.2961C4.97606 27.7254 6.89647 28.1067 7.01814 27.8766C7.20597 27.5887 6.6958 27.1075 4.99691 25.9897C3.64334 25.0783 3.03191 24.9604 2.84693 25.5344Z" fill="#FF6600"/>
<path id="Vector_3" fill-rule="evenodd" clip-rule="evenodd" d="M43.6776 10.9541C43.6676 11.8696 43.9755 14.0596 44.1603 14.4201C44.4034 14.8945 44.8179 14.3945 45.0176 13.3818C45.2899 11.9964 45.2604 10.9574 44.9104 10.2744C44.6673 9.80002 44.5427 9.74404 44.1443 9.94825C43.8217 10.1136 43.6816 10.401 43.6776 10.9541Z" fill="#FF6600"/>
<path id="Vector_4" fill-rule="evenodd" clip-rule="evenodd" d="M26.2956 21.0606C26.2499 21.2518 26.4315 22.2607 26.6993 23.2974C27.5838 26.8929 27.3574 31.0788 26.1801 33.2634C24.8602 35.7366 22.8296 36.4899 20.007 35.5168C18.2753 34.9429 15.9432 33.431 13.3794 31.2741C11.6869 29.8416 11.0365 29.6478 10.7683 30.4801C10.6578 30.8721 10.7453 31.0429 11.5176 31.9887C12.975 33.7573 16.1561 40.1977 18.1232 45.3915C19.7671 49.7208 20.0584 50.2424 20.7248 50.1404C21.2201 50.0783 21.2115 49.2202 20.7488 47.7563C19.8539 45.0286 18.2901 41.0894 16.9157 38.0804L15.5606 35.1094L17.1623 36.0374C18.0353 36.5722 19.2518 37.1227 19.8545 37.3169C22.5326 38.1484 25.3348 37.3112 26.8968 35.2169C28.4024 33.1995 29.1293 29.7154 28.7618 26.3341L28.6148 24.972L29.8635 26.8475C32.3982 30.6245 33.4648 31.4434 35.953 31.39C37.3544 31.3665 37.6113 31.3067 38.9482 30.5497C40.8349 29.4629 42.2826 27.6189 43.1641 25.1786C43.5078 24.2598 43.8154 23.5511 43.8543 23.627C43.8932 23.7029 44.3023 25.5296 44.7423 27.6969C45.7615 32.4901 46.5575 35.8195 47.1583 37.7397L47.6113 39.1845L43.6311 41.4161C36.5689 45.3471 32.6589 46.9678 27.7956 47.903C25.5496 48.3354 22.2327 49.1969 21.6256 49.5081C21.5307 49.5567 21.5322 49.6997 21.61 49.8515C21.9114 50.4397 28.6888 49.5056 32.6721 48.3026C34.4882 47.7791 35.646 47.2336 41.8096 44.0267C47.964 40.8485 48.9122 40.3146 49.1745 39.8448C49.3526 39.5378 49.396 39.1083 49.289 38.8996C48.8417 38.0268 47.5925 33.1119 46.3541 27.3768C44.6858 19.6341 44.557 19.1491 44.0973 18.9534C43.3697 18.6556 43.031 19.1166 42.7995 20.7686C42.2455 24.5024 40.2986 28.0368 38.1264 29.174C37.3674 29.563 36.7209 29.7506 35.9392 29.7679C34.1851 29.8045 33.3383 29.0406 30.7647 25.1877C28.4041 21.657 27.9013 20.9564 27.4115 20.6085C27.0273 20.3262 26.4099 20.5708 26.3004 21.0582L26.2956 21.0606Z" fill="#FF6600"/>
</g>
</svg>
