<svg width="29" height="28" viewBox="0 0 29 28" fill="none" xmlns="http://www.w3.org/2000/svg">
<path fill-rule="evenodd" clip-rule="evenodd" d="M2.70461 0.487657C1.8731 1.06331 1.25479 2.17198 0.849696 3.83498C0.529888 5.13553 -0.173668 17.2829 0.0395376 18.0718C0.210102 18.818 1.08423 18.7114 1.72385 17.8586C2.83251 16.4088 5.53757 10.1219 6.30511 7.20096C6.96605 4.7491 7.05133 3.5978 6.66756 2.27859C6.04926 0.189178 4.3223 -0.59969 2.70461 0.487657ZM4.75136 1.95878C5.43362 2.705 5.43363 4.9863 4.73005 7.22229C4.09043 9.26906 1.63856 15.428 1.48932 15.3001C1.38272 15.1935 1.7878 8.90661 2.08629 6.22022C2.2995 4.06685 2.91782 2.32123 3.64271 1.83086C4.21837 1.42577 4.26099 1.42577 4.75136 1.95878Z" fill="#FF6600"/>
<path fill-rule="evenodd" clip-rule="evenodd" d="M18.2421 3.59978C16.7497 4.58053 15.6624 6.13694 13.2345 10.8888C12.5309 12.2319 11.1877 14.5132 10.2283 15.9817C9.24755 17.4315 8.45869 18.7534 8.45869 18.9026C8.45869 19.0519 8.39473 19.3077 8.33077 19.4996C8.07492 20.1392 9.60999 19.9047 11.3156 19.0092C13.1492 18.0711 14.3645 17.197 17.0269 14.9823C21.1817 11.5497 23.4417 7.5654 22.7594 4.98562C22.2264 3.02413 20.1583 2.38451 18.2421 3.59978ZM21.1417 4.70846C22.4849 6.2009 20.1184 10.2278 15.8356 13.7457C13.6822 15.5153 11.233 17.3489 11.233 17.1996C11.233 17.157 11.83 16.1549 12.5762 15.0036C13.3011 13.831 14.559 11.635 15.3692 10.1239C16.9896 6.98976 18.0556 5.47866 19.1003 4.77508C19.9958 4.17811 20.6354 4.15679 21.1471 4.71113L21.1417 4.70846Z" fill="#FF6600"/>
<path fill-rule="evenodd" clip-rule="evenodd" d="M23.2313 18.7542C22.613 19.0954 20.0545 20.9289 17.5201 22.8238C13.0881 26.1498 12.9175 26.299 12.9814 26.936L13.0454 27.6182L14.218 27.5543C15.7105 27.4477 21.2938 26.1898 23.3832 25.4649C25.1528 24.8466 27.0717 23.6739 27.7086 22.7785C28.3269 21.947 28.4122 20.3266 27.9005 19.4951C26.9837 18.0666 25.0436 17.7468 23.234 18.7489L23.2313 18.7542ZM26.2588 20.1614C26.9198 20.801 26.9198 21.0782 26.3015 21.9949C25.47 23.2529 21.2938 24.9372 16.5606 25.9153C15.8571 26.0645 15.8784 26.0219 17.0937 25.169C17.7972 24.6573 19.5455 23.3568 20.9713 22.2481C24.5319 19.5191 25.3181 19.1993 26.2562 20.1587L26.2588 20.1614Z" fill="#FF6600"/>
</svg>
