<svg width="142" height="40" viewBox="0 0 142 40" fill="none" xmlns="http://www.w3.org/2000/svg">
<rect x="0.5" y="0.5" width="141" height="39" rx="7.5" fill="white"/>
<rect x="0.5" y="0.5" width="141" height="39" rx="7.5" stroke="#E0E2E7"/>
<path fill-rule="evenodd" clip-rule="evenodd" d="M21.5 12.5001C21.5 12.0398 21.1269 11.6667 20.6667 11.6667C20.2064 11.6667 19.8333 12.0398 19.8333 12.5001H19C17.6193 12.5001 16.5 13.6194 16.5 15.0001V25.8334C16.5 27.2141 17.6193 28.3334 19 28.3334H29C30.3807 28.3334 31.5 27.2141 31.5 25.8334V15.0001C31.5 13.6194 30.3807 12.5001 29 12.5001H28.1667C28.1667 12.0398 27.7936 11.6667 27.3333 11.6667C26.8731 11.6667 26.5 12.0398 26.5 12.5001H21.5ZM29.8333 15.8334V15.0001C29.8333 14.5398 29.4602 14.1667 29 14.1667H28.1667C28.1667 14.627 27.7936 15.0001 27.3333 15.0001C26.8731 15.0001 26.5 14.627 26.5 14.1667H21.5C21.5 14.627 21.1269 15.0001 20.6667 15.0001C20.2064 15.0001 19.8333 14.627 19.8333 14.1667H19C18.5398 14.1667 18.1667 14.5398 18.1667 15.0001V15.8334H29.8333ZM18.1667 17.5001V25.8334C18.1667 26.2937 18.5398 26.6667 19 26.6667H29C29.4602 26.6667 29.8333 26.2937 29.8333 25.8334V17.5001H18.1667Z" fill="#667085"/>
<path d="M48.6719 17.4929C48.6188 17.0223 48.4001 16.6577 48.0156 16.3991C47.6312 16.1373 47.1473 16.0064 46.5639 16.0064C46.1463 16.0064 45.785 16.0727 45.4801 16.2053C45.1752 16.3345 44.9382 16.5135 44.7692 16.7422C44.6035 16.9676 44.5206 17.2244 44.5206 17.5128C44.5206 17.7547 44.5769 17.9635 44.6896 18.1392C44.8056 18.3149 44.9564 18.4624 45.142 18.5817C45.331 18.6977 45.5331 18.7955 45.7486 18.875C45.964 18.9512 46.1712 19.0142 46.37 19.0639L47.3643 19.3224C47.6892 19.402 48.0223 19.5097 48.3636 19.6456C48.705 19.7815 49.0215 19.9605 49.3132 20.1825C49.6049 20.4046 49.8402 20.6797 50.0192 21.0078C50.2015 21.3359 50.2926 21.7287 50.2926 22.1861C50.2926 22.7628 50.1435 23.2749 49.8452 23.7223C49.5502 24.1697 49.121 24.5227 48.5575 24.7812C47.9974 25.0398 47.3196 25.169 46.5241 25.169C45.7618 25.169 45.1023 25.0481 44.5455 24.8061C43.9886 24.5642 43.5528 24.2211 43.2379 23.777C42.9231 23.3295 42.7491 22.7992 42.7159 22.1861H44.2571C44.2869 22.554 44.4063 22.8606 44.6151 23.1058C44.8272 23.3478 45.0973 23.5284 45.4254 23.6477C45.7569 23.7637 46.1198 23.8217 46.5142 23.8217C46.9484 23.8217 47.3345 23.7538 47.6726 23.6179C48.014 23.4787 48.2824 23.2865 48.478 23.0412C48.6735 22.7926 48.7713 22.5026 48.7713 22.1712C48.7713 21.8696 48.6851 21.6226 48.5128 21.4304C48.3438 21.2382 48.1134 21.0791 47.8217 20.9531C47.5334 20.8272 47.2069 20.7161 46.8423 20.62L45.6392 20.2919C44.8239 20.0698 44.1776 19.7434 43.7003 19.3125C43.2263 18.8816 42.9893 18.3116 42.9893 17.6023C42.9893 17.0156 43.1484 16.5036 43.4666 16.0661C43.7848 15.6286 44.2157 15.2888 44.7592 15.0469C45.3028 14.8016 45.916 14.679 46.5987 14.679C47.2881 14.679 47.8963 14.8 48.4233 15.0419C48.9536 15.2839 49.3712 15.617 49.6761 16.0412C49.9811 16.4621 50.1402 16.946 50.1534 17.4929H48.6719ZM55.3702 25.1541C54.6179 25.1541 53.9699 24.9934 53.4264 24.6719C52.8861 24.3471 52.4685 23.8913 52.1735 23.3047C51.8818 22.7147 51.736 22.0237 51.736 21.2315C51.736 20.4493 51.8818 19.7599 52.1735 19.1634C52.4685 18.5668 52.8795 18.1011 53.4065 17.7663C53.9368 17.4316 54.5566 17.2642 55.2658 17.2642C55.6967 17.2642 56.1143 17.3355 56.5187 17.478C56.923 17.6205 57.286 17.8442 57.6075 18.1491C57.929 18.4541 58.1825 18.8501 58.3681 19.3374C58.5537 19.8213 58.6465 20.4096 58.6465 21.1023V21.6293H52.5762V20.5156H57.1899C57.1899 20.1245 57.1103 19.7782 56.9512 19.4766C56.7921 19.1716 56.5684 18.9313 56.28 18.7557C55.995 18.58 55.6603 18.4922 55.2758 18.4922C54.8582 18.4922 54.4936 18.5949 54.182 18.8004C53.8738 19.0026 53.6352 19.2678 53.4661 19.5959C53.3004 19.9207 53.2175 20.2737 53.2175 20.6548V21.5249C53.2175 22.0353 53.307 22.4695 53.486 22.8274C53.6683 23.1854 53.9219 23.4588 54.2467 23.6477C54.5715 23.8333 54.951 23.9261 55.3852 23.9261C55.6669 23.9261 55.9238 23.8864 56.1558 23.8068C56.3878 23.724 56.5883 23.6013 56.7573 23.4389C56.9264 23.2765 57.0556 23.076 57.1451 22.8374L58.5521 23.0909C58.4394 23.5052 58.2372 23.8681 57.9455 24.1797C57.6572 24.4879 57.2943 24.7282 56.8568 24.9006C56.4226 25.0696 55.9271 25.1541 55.3702 25.1541ZM61.8524 14.8182V25H60.3659V14.8182H61.8524ZM67.2134 25.1541C66.461 25.1541 65.813 24.9934 65.2695 24.6719C64.7292 24.3471 64.3116 23.8913 64.0166 23.3047C63.725 22.7147 63.5791 22.0237 63.5791 21.2315C63.5791 20.4493 63.725 19.7599 64.0166 19.1634C64.3116 18.5668 64.7226 18.1011 65.2496 17.7663C65.7799 17.4316 66.3997 17.2642 67.109 17.2642C67.5398 17.2642 67.9575 17.3355 68.3618 17.478C68.7662 17.6205 69.1291 17.8442 69.4506 18.1491C69.7721 18.4541 70.0256 18.8501 70.2112 19.3374C70.3968 19.8213 70.4897 20.4096 70.4897 21.1023V21.6293H64.4193V20.5156H69.033C69.033 20.1245 68.9534 19.7782 68.7943 19.4766C68.6352 19.1716 68.4115 18.9313 68.1232 18.7557C67.8381 18.58 67.5034 18.4922 67.1189 18.4922C66.7013 18.4922 66.3367 18.5949 66.0252 18.8004C65.7169 19.0026 65.4783 19.2678 65.3093 19.5959C65.1435 19.9207 65.0607 20.2737 65.0607 20.6548V21.5249C65.0607 22.0353 65.1502 22.4695 65.3291 22.8274C65.5114 23.1854 65.765 23.4588 66.0898 23.6477C66.4146 23.8333 66.7941 23.9261 67.2283 23.9261C67.51 23.9261 67.7669 23.8864 67.9989 23.8068C68.2309 23.724 68.4314 23.6013 68.6004 23.4389C68.7695 23.2765 68.8987 23.076 68.9882 22.8374L70.3952 23.0909C70.2825 23.5052 70.0803 23.8681 69.7887 24.1797C69.5003 24.4879 69.1374 24.7282 68.6999 24.9006C68.2657 25.0696 67.7702 25.1541 67.2134 25.1541ZM75.4256 25.1541C74.6865 25.1541 74.0501 24.9867 73.5165 24.652C72.9862 24.3139 72.5785 23.8482 72.2935 23.255C72.0085 22.6617 71.8659 21.9822 71.8659 21.2166C71.8659 20.4411 72.0118 19.7566 72.3034 19.1634C72.5951 18.5668 73.0061 18.1011 73.5364 17.7663C74.0667 17.4316 74.6915 17.2642 75.4107 17.2642C75.9907 17.2642 76.5077 17.3719 76.9618 17.5874C77.4159 17.7995 77.7821 18.0978 78.0605 18.4822C78.3423 18.8667 78.5096 19.3158 78.5627 19.8295H77.1159C77.0364 19.4716 76.8541 19.1634 76.5691 18.9048C76.2873 18.6463 75.9095 18.517 75.4355 18.517C75.0212 18.517 74.6583 18.6264 74.3468 18.8452C74.0385 19.0606 73.7982 19.3688 73.6259 19.7699C73.4535 20.1676 73.3674 20.6383 73.3674 21.1818C73.3674 21.7386 73.4519 22.2192 73.6209 22.6236C73.7899 23.0279 74.0286 23.3411 74.3368 23.5632C74.6484 23.7853 75.0146 23.8963 75.4355 23.8963C75.7173 23.8963 75.9725 23.8449 76.2012 23.7422C76.4332 23.6361 76.6271 23.4853 76.7828 23.2898C76.9419 23.0942 77.053 22.8589 77.1159 22.5838H78.5627C78.5096 23.0777 78.3489 23.5185 78.0804 23.9062C77.812 24.294 77.4523 24.599 77.0016 24.821C76.5541 25.0431 76.0288 25.1541 75.4256 25.1541ZM83.787 17.3636V18.5568H79.6158V17.3636H83.787ZM80.7344 15.5341H82.2209V22.7578C82.2209 23.0462 82.264 23.2633 82.3502 23.4091C82.4364 23.5516 82.5474 23.6494 82.6833 23.7024C82.8225 23.7521 82.9733 23.777 83.1357 23.777C83.255 23.777 83.3594 23.7687 83.4489 23.7521C83.5384 23.7356 83.608 23.7223 83.6577 23.7124L83.9262 24.9403C83.84 24.9735 83.7174 25.0066 83.5583 25.0398C83.3992 25.0762 83.2003 25.0961 82.9617 25.0994C82.5706 25.1061 82.206 25.0365 81.8679 24.8906C81.5299 24.7448 81.2564 24.5194 81.0476 24.2145C80.8388 23.9096 80.7344 23.5268 80.7344 23.0661V15.5341ZM92.6919 25H89.3957V14.8182H92.7963C93.7939 14.8182 94.6507 15.022 95.3666 15.4297C96.0825 15.834 96.631 16.4157 97.0122 17.1747C97.3967 17.9304 97.5889 18.8369 97.5889 19.8942C97.5889 20.9548 97.395 21.8662 97.0072 22.6286C96.6228 23.3909 96.0659 23.9775 95.3368 24.3885C94.6076 24.7962 93.726 25 92.6919 25ZM90.9319 23.6577H92.6074C93.3829 23.6577 94.0276 23.5118 94.5413 23.2202C95.055 22.9252 95.4395 22.4993 95.6947 21.9425C95.9499 21.3823 96.0775 20.6996 96.0775 19.8942C96.0775 19.0954 95.9499 18.4176 95.6947 17.8608C95.4428 17.304 95.0666 16.8814 94.5662 16.593C94.0657 16.3047 93.4443 16.1605 92.7018 16.1605H90.9319V23.6577ZM101.672 25.169C101.188 25.169 100.751 25.0795 100.36 24.9006C99.9686 24.7183 99.6587 24.4548 99.43 24.1101C99.2047 23.7654 99.092 23.3428 99.092 22.8423C99.092 22.4115 99.1748 22.0568 99.3405 21.7784C99.5063 21.5 99.73 21.2796 100.012 21.1172C100.293 20.9548 100.608 20.8321 100.956 20.7493C101.304 20.6664 101.659 20.6035 102.02 20.5604C102.478 20.5073 102.849 20.4643 103.134 20.4311C103.419 20.3946 103.626 20.3366 103.755 20.2571C103.885 20.1776 103.949 20.0483 103.949 19.8693V19.8345C103.949 19.4003 103.827 19.0639 103.581 18.8253C103.339 18.5866 102.978 18.4673 102.498 18.4673C101.997 18.4673 101.603 18.5784 101.314 18.8004C101.029 19.0192 100.832 19.2628 100.723 19.5312L99.3256 19.2131C99.4913 18.7491 99.7333 18.3745 100.051 18.0895C100.373 17.8011 100.743 17.5923 101.16 17.4631C101.578 17.3305 102.017 17.2642 102.478 17.2642C102.783 17.2642 103.106 17.3007 103.447 17.3736C103.792 17.4432 104.113 17.5724 104.412 17.7614C104.713 17.9503 104.96 18.2204 105.152 18.5717C105.345 18.9197 105.441 19.3722 105.441 19.929V25H103.989V23.956H103.929C103.833 24.1482 103.689 24.3371 103.497 24.5227C103.305 24.7083 103.058 24.8625 102.756 24.9851C102.454 25.1077 102.093 25.169 101.672 25.169ZM101.995 23.9759C102.406 23.9759 102.758 23.8946 103.049 23.7322C103.344 23.5698 103.568 23.3577 103.721 23.0959C103.876 22.8307 103.954 22.5473 103.954 22.2457V21.2614C103.901 21.3144 103.798 21.3641 103.646 21.4105C103.497 21.4536 103.326 21.4917 103.134 21.5249C102.942 21.5547 102.754 21.5829 102.572 21.6094C102.39 21.6326 102.237 21.6525 102.115 21.669C101.826 21.7055 101.563 21.7668 101.324 21.853C101.089 21.9392 100.9 22.0634 100.757 22.2259C100.618 22.3849 100.549 22.5971 100.549 22.8622C100.549 23.2301 100.685 23.5085 100.956 23.6974C101.228 23.883 101.574 23.9759 101.995 23.9759ZM111.055 17.3636V18.5568H106.884V17.3636H111.055ZM108.003 15.5341H109.489V22.7578C109.489 23.0462 109.532 23.2633 109.618 23.4091C109.705 23.5516 109.816 23.6494 109.952 23.7024C110.091 23.7521 110.242 23.777 110.404 23.777C110.523 23.777 110.628 23.7687 110.717 23.7521C110.807 23.7356 110.876 23.7223 110.926 23.7124L111.194 24.9403C111.108 24.9735 110.986 25.0066 110.827 25.0398C110.667 25.0762 110.469 25.0961 110.23 25.0994C109.839 25.1061 109.474 25.0365 109.136 24.8906C108.798 24.7448 108.525 24.5194 108.316 24.2145C108.107 23.9096 108.003 23.5268 108.003 23.0661V15.5341ZM115.979 25.1541C115.226 25.1541 114.578 24.9934 114.035 24.6719C113.495 24.3471 113.077 23.8913 112.782 23.3047C112.49 22.7147 112.345 22.0237 112.345 21.2315C112.345 20.4493 112.49 19.7599 112.782 19.1634C113.077 18.5668 113.488 18.1011 114.015 17.7663C114.545 17.4316 115.165 17.2642 115.874 17.2642C116.305 17.2642 116.723 17.3355 117.127 17.478C117.532 17.6205 117.894 17.8442 118.216 18.1491C118.537 18.4541 118.791 18.8501 118.977 19.3374C119.162 19.8213 119.255 20.4096 119.255 21.1023V21.6293H113.185V20.5156H117.798C117.798 20.1245 117.719 19.7782 117.56 19.4766C117.401 19.1716 117.177 18.9313 116.889 18.7557C116.604 18.58 116.269 18.4922 115.884 18.4922C115.467 18.4922 115.102 18.5949 114.791 18.8004C114.482 19.0026 114.244 19.2678 114.075 19.5959C113.909 19.9207 113.826 20.2737 113.826 20.6548V21.5249C113.826 22.0353 113.916 22.4695 114.095 22.8274C114.277 23.1854 114.53 23.4588 114.855 23.6477C115.18 23.8333 115.559 23.9261 115.994 23.9261C116.275 23.9261 116.532 23.8864 116.764 23.8068C116.996 23.724 117.197 23.6013 117.366 23.4389C117.535 23.2765 117.664 23.076 117.754 22.8374L119.161 23.0909C119.048 23.5052 118.846 23.8681 118.554 24.1797C118.266 24.4879 117.903 24.7282 117.465 24.9006C117.031 25.0696 116.536 25.1541 115.979 25.1541ZM126.697 19.228L125.349 19.4666C125.293 19.2943 125.204 19.1302 125.081 18.9744C124.962 18.8187 124.799 18.6911 124.594 18.5916C124.388 18.4922 124.131 18.4425 123.823 18.4425C123.402 18.4425 123.051 18.5369 122.769 18.7259C122.487 18.9115 122.347 19.1518 122.347 19.4467C122.347 19.7019 122.441 19.9074 122.63 20.0632C122.819 20.219 123.124 20.3466 123.545 20.446L124.758 20.7244C125.46 20.8868 125.984 21.1371 126.329 21.4751C126.673 21.8132 126.846 22.2524 126.846 22.7926C126.846 23.25 126.713 23.6577 126.448 24.0156C126.186 24.3703 125.82 24.6487 125.349 24.8509C124.882 25.053 124.34 25.1541 123.724 25.1541C122.869 25.1541 122.171 24.9718 121.631 24.6072C121.09 24.2393 120.759 23.7173 120.636 23.0412L122.073 22.8224C122.163 23.197 122.347 23.4804 122.625 23.6726C122.903 23.8615 123.266 23.956 123.714 23.956C124.201 23.956 124.59 23.8549 124.882 23.6527C125.174 23.4472 125.32 23.197 125.32 22.902C125.32 22.6634 125.23 22.4628 125.051 22.3004C124.875 22.138 124.605 22.0154 124.241 21.9325L122.948 21.6491C122.235 21.4867 121.709 21.2282 121.367 20.8736C121.029 20.5189 120.86 20.0698 120.86 19.5263C120.86 19.0755 120.986 18.6811 121.238 18.343C121.49 18.005 121.838 17.7415 122.282 17.5526C122.726 17.3603 123.235 17.2642 123.808 17.2642C124.633 17.2642 125.283 17.4432 125.757 17.8011C126.231 18.1558 126.544 18.6314 126.697 19.228Z" fill="#667085"/>
</svg>
