<svg width="298" height="74" viewBox="0 0 298 74" fill="none" xmlns="http://www.w3.org/2000/svg">
<mask id="path-1-inside-1_164_3986" fill="white">
<path d="M0 8C0 3.58172 3.58172 0 8 0H298V74H8C3.58172 74 0 70.4183 0 66V8Z"/>
</mask>
<path d="M0 8C0 3.58172 3.58172 0 8 0H298V74H8C3.58172 74 0 70.4183 0 66V8Z" fill="white"/>
<path d="M-1 8C-1 3.02944 3.02944 -1 8 -1H298V1H8C4.13401 1 1 4.13401 1 8H-1ZM298 75H8C3.02944 75 -1 70.9706 -1 66H1C1 69.866 4.13401 73 8 73H298V75ZM8 75C3.02944 75 -1 70.9706 -1 66V8C-1 3.02944 3.02944 -1 8 -1V1C4.13401 1 1 4.13401 1 8V66C1 69.866 4.13401 73 8 73V75ZM298 0V74V0Z" fill="#D0D5DD" mask="url(#path-1-inside-1_164_3986)"/>
<path d="M49.4261 24H48.1932C48.1203 23.6454 47.9927 23.3338 47.8104 23.0653C47.6314 22.7969 47.4126 22.5715 47.1541 22.3892C46.8989 22.2036 46.6155 22.0644 46.304 21.9716C45.9924 21.8788 45.6676 21.8324 45.3295 21.8324C44.7131 21.8324 44.1546 21.9882 43.6541 22.2997C43.157 22.6113 42.7609 23.0703 42.4659 23.6768C42.1742 24.2834 42.0284 25.0275 42.0284 25.9091C42.0284 26.7907 42.1742 27.5348 42.4659 28.1413C42.7609 28.7479 43.157 29.2069 43.6541 29.5185C44.1546 29.83 44.7131 29.9858 45.3295 29.9858C45.6676 29.9858 45.9924 29.9394 46.304 29.8466C46.6155 29.7538 46.8989 29.6162 47.1541 29.4339C47.4126 29.2483 47.6314 29.0213 47.8104 28.7528C47.9927 28.4811 48.1203 28.1695 48.1932 27.8182H49.4261C49.3333 28.3385 49.1643 28.8042 48.919 29.2152C48.6738 29.6262 48.3688 29.9759 48.0043 30.2642C47.6397 30.5492 47.2304 30.7663 46.7763 30.9155C46.3255 31.0646 45.8433 31.1392 45.3295 31.1392C44.4612 31.1392 43.6889 30.9271 43.0128 30.5028C42.3366 30.0786 41.8047 29.4754 41.4169 28.6932C41.0291 27.911 40.8352 26.983 40.8352 25.9091C40.8352 24.8352 41.0291 23.9072 41.4169 23.125C41.8047 22.3428 42.3366 21.7396 43.0128 21.3153C43.6889 20.8911 44.4612 20.679 45.3295 20.679C45.8433 20.679 46.3255 20.7536 46.7763 20.9027C47.2304 21.0518 47.6397 21.2706 48.0043 21.5589C48.3688 21.844 48.6738 22.192 48.919 22.603C49.1643 23.0107 49.3333 23.4763 49.4261 24ZM52.4327 20.8182V31H51.2594V20.8182H52.4327ZM54.5817 31V23.3636H55.755V31H54.5817ZM55.1783 22.0909C54.9496 22.0909 54.7524 22.013 54.5866 21.8572C54.4242 21.7015 54.343 21.5142 54.343 21.2955C54.343 21.0767 54.4242 20.8894 54.5866 20.7337C54.7524 20.5779 54.9496 20.5 55.1783 20.5C55.407 20.5 55.6025 20.5779 55.7649 20.7337C55.9306 20.8894 56.0135 21.0767 56.0135 21.2955C56.0135 21.5142 55.9306 21.7015 55.7649 21.8572C55.6025 22.013 55.407 22.0909 55.1783 22.0909ZM61.0062 31.1591C60.2903 31.1591 59.6738 30.9901 59.1568 30.652C58.6397 30.3139 58.242 29.8482 57.9636 29.255C57.6852 28.6617 57.546 27.9839 57.546 27.2216C57.546 26.446 57.6885 25.7616 57.9735 25.1683C58.2619 24.5717 58.6629 24.1061 59.1767 23.7713C59.6937 23.4332 60.2969 23.2642 60.9863 23.2642C61.5233 23.2642 62.0072 23.3636 62.438 23.5625C62.8689 23.7614 63.2219 24.0398 63.497 24.3977C63.7721 24.7557 63.9428 25.1733 64.0091 25.6506H62.8358C62.7463 25.3026 62.5474 24.9943 62.2392 24.7259C61.9342 24.4541 61.5233 24.3182 61.0062 24.3182C60.5488 24.3182 60.1478 24.4375 59.8031 24.6761C59.4617 24.9115 59.1949 25.2446 59.0027 25.6754C58.8137 26.103 58.7193 26.6051 58.7193 27.1818C58.7193 27.7718 58.8121 28.2855 58.9977 28.723C59.1866 29.1605 59.4518 29.5002 59.7931 29.7422C60.1378 29.9841 60.5422 30.1051 61.0062 30.1051C61.3111 30.1051 61.5879 30.0521 61.8365 29.946C62.085 29.84 62.2955 29.6875 62.4679 29.4886C62.6402 29.2898 62.7628 29.0511 62.8358 28.7727H64.0091C63.9428 29.2235 63.7787 29.6295 63.5169 29.9908C63.2583 30.3487 62.9153 30.6338 62.4877 30.8459C62.0635 31.0547 61.5697 31.1591 61.0062 31.1591ZM66.818 28.2159L66.7981 26.7642H67.0368L70.3777 23.3636H71.8294L68.2697 26.9631H68.1703L66.818 28.2159ZM65.7243 31V20.8182H66.8975V31H65.7243ZM70.5765 31L67.5936 27.2216L68.4288 26.4062L72.068 31H70.5765ZM80.598 23.3636V24.358H76.6406V23.3636H80.598ZM77.794 21.5341H78.9673V28.8125C78.9673 29.1439 79.0154 29.3925 79.1115 29.5582C79.2109 29.7206 79.3369 29.83 79.4893 29.8864C79.6451 29.9394 79.8092 29.9659 79.9815 29.9659C80.1108 29.9659 80.2169 29.9593 80.2997 29.946C80.3826 29.9295 80.4489 29.9162 80.4986 29.9062L80.7372 30.9602C80.6577 30.9901 80.5466 31.0199 80.4041 31.0497C80.2616 31.0829 80.081 31.0994 79.8622 31.0994C79.5308 31.0994 79.206 31.0282 78.8878 30.8857C78.5729 30.7431 78.3111 30.526 78.1023 30.2344C77.8968 29.9427 77.794 29.5748 77.794 29.1307V21.5341ZM85.3832 31.1591C84.6938 31.1591 84.0889 30.995 83.5685 30.6669C83.0515 30.3388 82.6471 29.8797 82.3555 29.2898C82.0671 28.6998 81.9229 28.0104 81.9229 27.2216C81.9229 26.4261 82.0671 25.7318 82.3555 25.1385C82.6471 24.5452 83.0515 24.0845 83.5685 23.7564C84.0889 23.4283 84.6938 23.2642 85.3832 23.2642C86.0726 23.2642 86.6758 23.4283 87.1928 23.7564C87.7132 24.0845 88.1175 24.5452 88.4059 25.1385C88.6976 25.7318 88.8434 26.4261 88.8434 27.2216C88.8434 28.0104 88.6976 28.6998 88.4059 29.2898C88.1175 29.8797 87.7132 30.3388 87.1928 30.6669C86.6758 30.995 86.0726 31.1591 85.3832 31.1591ZM85.3832 30.1051C85.9068 30.1051 86.3377 29.9709 86.6758 29.7024C87.0138 29.4339 87.2641 29.081 87.4265 28.6435C87.5889 28.206 87.6701 27.732 87.6701 27.2216C87.6701 26.7112 87.5889 26.2356 87.4265 25.7947C87.2641 25.3539 87.0138 24.9976 86.6758 24.7259C86.3377 24.4541 85.9068 24.3182 85.3832 24.3182C84.8595 24.3182 84.4286 24.4541 84.0906 24.7259C83.7525 24.9976 83.5022 25.3539 83.3398 25.7947C83.1774 26.2356 83.0962 26.7112 83.0962 27.2216C83.0962 27.732 83.1774 28.206 83.3398 28.6435C83.5022 29.081 83.7525 29.4339 84.0906 29.7024C84.4286 29.9709 84.8595 30.1051 85.3832 30.1051ZM99.3844 27.8778V23.3636H100.558V31H99.3844V29.7074H99.3049C99.1259 30.0952 98.8475 30.425 98.4696 30.6967C98.0918 30.9652 97.6145 31.0994 97.0378 31.0994C96.5605 31.0994 96.1363 30.995 95.7651 30.7862C95.3939 30.5741 95.1022 30.2559 94.8901 29.8317C94.678 29.4041 94.5719 28.8655 94.5719 28.2159V23.3636H95.7452V28.1364C95.7452 28.6932 95.901 29.1373 96.2125 29.4688C96.5274 29.8002 96.9284 29.9659 97.4157 29.9659C97.7073 29.9659 98.004 29.8913 98.3056 29.7422C98.6105 29.593 98.8657 29.3643 99.0712 29.0561C99.28 28.7479 99.3844 28.3551 99.3844 27.8778ZM102.707 33.8636V23.3636H103.84V24.5767H103.979C104.066 24.4441 104.185 24.2751 104.337 24.0696C104.493 23.8608 104.715 23.6752 105.004 23.5128C105.295 23.3471 105.69 23.2642 106.187 23.2642C106.83 23.2642 107.397 23.425 107.887 23.7464C108.378 24.0679 108.76 24.5237 109.036 25.1136C109.311 25.7036 109.448 26.3996 109.448 27.2017C109.448 28.0104 109.311 28.7114 109.036 29.3047C108.76 29.8946 108.379 30.352 107.892 30.6768C107.405 30.9983 106.843 31.1591 106.207 31.1591C105.716 31.1591 105.323 31.0779 105.028 30.9155C104.733 30.7498 104.506 30.5625 104.347 30.3537C104.188 30.1416 104.066 29.9659 103.979 29.8267H103.88V33.8636H102.707ZM103.86 27.1818C103.86 27.7585 103.945 28.2673 104.114 28.7081C104.283 29.1456 104.53 29.4886 104.854 29.7372C105.179 29.9825 105.577 30.1051 106.048 30.1051C106.538 30.1051 106.947 29.9759 107.276 29.7173C107.607 29.4555 107.856 29.1042 108.021 28.6634C108.19 28.2192 108.275 27.7254 108.275 27.1818C108.275 26.6449 108.192 26.161 108.026 25.7301C107.864 25.2959 107.617 24.9529 107.286 24.701C106.957 24.4458 106.545 24.3182 106.048 24.3182C105.57 24.3182 105.169 24.4392 104.844 24.6811C104.52 24.9197 104.274 25.2545 104.109 25.6854C103.943 26.1129 103.86 26.6117 103.86 27.1818ZM112.411 20.8182V31H111.238V20.8182H112.411ZM117.662 31.1591C116.973 31.1591 116.368 30.995 115.848 30.6669C115.331 30.3388 114.926 29.8797 114.635 29.2898C114.346 28.6998 114.202 28.0104 114.202 27.2216C114.202 26.4261 114.346 25.7318 114.635 25.1385C114.926 24.5452 115.331 24.0845 115.848 23.7564C116.368 23.4283 116.973 23.2642 117.662 23.2642C118.352 23.2642 118.955 23.4283 119.472 23.7564C119.992 24.0845 120.397 24.5452 120.685 25.1385C120.977 25.7318 121.123 26.4261 121.123 27.2216C121.123 28.0104 120.977 28.6998 120.685 29.2898C120.397 29.8797 119.992 30.3388 119.472 30.6669C118.955 30.995 118.352 31.1591 117.662 31.1591ZM117.662 30.1051C118.186 30.1051 118.617 29.9709 118.955 29.7024C119.293 29.4339 119.543 29.081 119.706 28.6435C119.868 28.206 119.949 27.732 119.949 27.2216C119.949 26.7112 119.868 26.2356 119.706 25.7947C119.543 25.3539 119.293 24.9976 118.955 24.7259C118.617 24.4541 118.186 24.3182 117.662 24.3182C117.139 24.3182 116.708 24.4541 116.37 24.7259C116.032 24.9976 115.782 25.3539 115.619 25.7947C115.457 26.2356 115.376 26.7112 115.376 27.2216C115.376 27.732 115.457 28.206 115.619 28.6435C115.782 29.081 116.032 29.4339 116.37 29.7024C116.708 29.9709 117.139 30.1051 117.662 30.1051ZM125.161 31.179C124.677 31.179 124.238 31.0878 123.843 30.9055C123.449 30.7199 123.136 30.4531 122.904 30.1051C122.672 29.7538 122.556 29.3295 122.556 28.8324C122.556 28.3949 122.642 28.0402 122.814 27.7685C122.987 27.4934 123.217 27.2779 123.505 27.1222C123.794 26.9664 124.112 26.8504 124.46 26.7741C124.811 26.6946 125.164 26.6316 125.519 26.5852C125.983 26.5256 126.359 26.4808 126.647 26.451C126.939 26.4179 127.151 26.3632 127.284 26.2869C127.42 26.2107 127.488 26.0781 127.488 25.8892V25.8494C127.488 25.3589 127.353 24.9777 127.085 24.706C126.82 24.4342 126.417 24.2983 125.877 24.2983C125.317 24.2983 124.877 24.4209 124.559 24.6662C124.241 24.9115 124.017 25.1733 123.888 25.4517L122.775 25.054C122.973 24.59 123.239 24.2287 123.57 23.9702C123.905 23.7083 124.269 23.526 124.664 23.4233C125.061 23.3172 125.453 23.2642 125.837 23.2642C126.082 23.2642 126.364 23.294 126.682 23.3537C127.004 23.41 127.314 23.5277 127.612 23.7067C127.913 23.8857 128.164 24.1558 128.363 24.517C128.561 24.8783 128.661 25.3622 128.661 25.9688V31H127.488V29.9659H127.428C127.348 30.1316 127.216 30.3089 127.03 30.4979C126.845 30.6868 126.598 30.8475 126.289 30.9801C125.981 31.1127 125.605 31.179 125.161 31.179ZM125.34 30.125C125.804 30.125 126.195 30.0339 126.513 29.8516C126.835 29.6693 127.077 29.4339 127.239 29.1456C127.405 28.8572 127.488 28.554 127.488 28.2358V27.1619C127.438 27.2216 127.328 27.2763 127.159 27.326C126.994 27.3724 126.801 27.4138 126.583 27.4503C126.367 27.4834 126.157 27.5133 125.951 27.5398C125.749 27.563 125.585 27.5829 125.459 27.5994C125.154 27.6392 124.869 27.7038 124.604 27.7933C124.342 27.8795 124.13 28.0104 123.968 28.1861C123.809 28.3584 123.729 28.5937 123.729 28.892C123.729 29.2997 123.88 29.608 124.181 29.8168C124.486 30.0223 124.873 30.125 125.34 30.125ZM133.686 31.1591C133.05 31.1591 132.488 30.9983 132.001 30.6768C131.513 30.352 131.132 29.8946 130.857 29.3047C130.582 28.7114 130.444 28.0104 130.444 27.2017C130.444 26.3996 130.582 25.7036 130.857 25.1136C131.132 24.5237 131.515 24.0679 132.006 23.7464C132.496 23.425 133.063 23.2642 133.706 23.2642C134.203 23.2642 134.596 23.3471 134.884 23.5128C135.176 23.6752 135.398 23.8608 135.55 24.0696C135.706 24.2751 135.827 24.4441 135.913 24.5767H136.013V20.8182H137.186V31H136.052V29.8267H135.913C135.827 29.9659 135.704 30.1416 135.545 30.3537C135.386 30.5625 135.159 30.7498 134.864 30.9155C134.569 31.0779 134.176 31.1591 133.686 31.1591ZM133.845 30.1051C134.316 30.1051 134.713 29.9825 135.038 29.7372C135.363 29.4886 135.61 29.1456 135.779 28.7081C135.948 28.2673 136.032 27.7585 136.032 27.1818C136.032 26.6117 135.95 26.1129 135.784 25.6854C135.618 25.2545 135.373 24.9197 135.048 24.6811C134.723 24.4392 134.322 24.3182 133.845 24.3182C133.348 24.3182 132.934 24.4458 132.602 24.701C132.274 24.9529 132.027 25.2959 131.861 25.7301C131.699 26.161 131.618 26.6449 131.618 27.1818C131.618 27.7254 131.701 28.2192 131.866 28.6634C132.035 29.1042 132.284 29.4555 132.612 29.7173C132.943 29.9759 133.354 30.1051 133.845 30.1051ZM141.248 29.608L141.168 30.1449C141.112 30.5227 141.026 30.9271 140.91 31.358C140.797 31.7888 140.679 32.1948 140.557 32.576C140.434 32.9571 140.333 33.2604 140.253 33.4858H139.358C139.402 33.2737 139.458 32.9936 139.528 32.6456C139.597 32.2976 139.667 31.9081 139.736 31.4773C139.809 31.0497 139.869 30.6122 139.915 30.1648L139.975 29.608H141.248ZM150.461 31.1591C149.772 31.1591 149.167 30.995 148.647 30.6669C148.13 30.3388 147.725 29.8797 147.434 29.2898C147.145 28.6998 147.001 28.0104 147.001 27.2216C147.001 26.4261 147.145 25.7318 147.434 25.1385C147.725 24.5452 148.13 24.0845 148.647 23.7564C149.167 23.4283 149.772 23.2642 150.461 23.2642C151.151 23.2642 151.754 23.4283 152.271 23.7564C152.791 24.0845 153.196 24.5452 153.484 25.1385C153.776 25.7318 153.922 26.4261 153.922 27.2216C153.922 28.0104 153.776 28.6998 153.484 29.2898C153.196 29.8797 152.791 30.3388 152.271 30.6669C151.754 30.995 151.151 31.1591 150.461 31.1591ZM150.461 30.1051C150.985 30.1051 151.416 29.9709 151.754 29.7024C152.092 29.4339 152.342 29.081 152.505 28.6435C152.667 28.206 152.748 27.732 152.748 27.2216C152.748 26.7112 152.667 26.2356 152.505 25.7947C152.342 25.3539 152.092 24.9976 151.754 24.7259C151.416 24.4541 150.985 24.3182 150.461 24.3182C149.938 24.3182 149.507 24.4541 149.169 24.7259C148.831 24.9976 148.58 25.3539 148.418 25.7947C148.256 26.2356 148.174 26.7112 148.174 27.2216C148.174 27.732 148.256 28.206 148.418 28.6435C148.58 29.081 148.831 29.4339 149.169 29.7024C149.507 29.9709 149.938 30.1051 150.461 30.1051ZM155.713 31V23.3636H156.846V24.517H156.926C157.065 24.1392 157.317 23.8326 157.681 23.5973C158.046 23.362 158.457 23.2443 158.914 23.2443C159 23.2443 159.108 23.246 159.237 23.2493C159.367 23.2526 159.464 23.2576 159.531 23.2642V24.4574C159.491 24.4474 159.4 24.4325 159.257 24.4126C159.118 24.3894 158.971 24.3778 158.815 24.3778C158.444 24.3778 158.112 24.4557 157.82 24.6115C157.532 24.764 157.303 24.9761 157.134 25.2479C156.969 25.5163 156.886 25.8229 156.886 26.1676V31H155.713ZM167.743 31.1591C167.106 31.1591 166.544 30.9983 166.057 30.6768C165.57 30.352 165.189 29.8946 164.914 29.3047C164.639 28.7114 164.501 28.0104 164.501 27.2017C164.501 26.3996 164.639 25.7036 164.914 25.1136C165.189 24.5237 165.572 24.0679 166.062 23.7464C166.553 23.425 167.119 23.2642 167.762 23.2642C168.26 23.2642 168.652 23.3471 168.941 23.5128C169.232 23.6752 169.454 23.8608 169.607 24.0696C169.763 24.2751 169.884 24.4441 169.97 24.5767H170.069V20.8182H171.243V31H170.109V29.8267H169.97C169.884 29.9659 169.761 30.1416 169.602 30.3537C169.443 30.5625 169.216 30.7498 168.921 30.9155C168.626 31.0779 168.233 31.1591 167.743 31.1591ZM167.902 30.1051C168.372 30.1051 168.77 29.9825 169.095 29.7372C169.42 29.4886 169.667 29.1456 169.836 28.7081C170.005 28.2673 170.089 27.7585 170.089 27.1818C170.089 26.6117 170.006 26.1129 169.841 25.6854C169.675 25.2545 169.43 24.9197 169.105 24.6811C168.78 24.4392 168.379 24.3182 167.902 24.3182C167.404 24.3182 166.99 24.4458 166.659 24.701C166.331 24.9529 166.084 25.2959 165.918 25.7301C165.756 26.161 165.674 26.6449 165.674 27.1818C165.674 27.7254 165.757 28.2192 165.923 28.6634C166.092 29.1042 166.341 29.4555 166.669 29.7173C167 29.9759 167.411 30.1051 167.902 30.1051ZM173.554 31V23.3636H174.688V24.517H174.767C174.907 24.1392 175.158 23.8326 175.523 23.5973C175.888 23.362 176.299 23.2443 176.756 23.2443C176.842 23.2443 176.95 23.246 177.079 23.2493C177.208 23.2526 177.306 23.2576 177.373 23.2642V24.4574C177.333 24.4474 177.242 24.4325 177.099 24.4126C176.96 24.3894 176.812 24.3778 176.657 24.3778C176.285 24.3778 175.954 24.4557 175.662 24.6115C175.374 24.764 175.145 24.9761 174.976 25.2479C174.81 25.5163 174.728 25.8229 174.728 26.1676V31H173.554ZM181.01 31.179C180.527 31.179 180.087 31.0878 179.693 30.9055C179.299 30.7199 178.985 30.4531 178.753 30.1051C178.521 29.7538 178.405 29.3295 178.405 28.8324C178.405 28.3949 178.492 28.0402 178.664 27.7685C178.836 27.4934 179.067 27.2779 179.355 27.1222C179.643 26.9664 179.961 26.8504 180.309 26.7741C180.661 26.6946 181.014 26.6316 181.368 26.5852C181.832 26.5256 182.209 26.4808 182.497 26.451C182.789 26.4179 183.001 26.3632 183.133 26.2869C183.269 26.2107 183.337 26.0781 183.337 25.8892V25.8494C183.337 25.3589 183.203 24.9777 182.934 24.706C182.669 24.4342 182.267 24.2983 181.726 24.2983C181.166 24.2983 180.727 24.4209 180.409 24.6662C180.091 24.9115 179.867 25.1733 179.738 25.4517L178.624 25.054C178.823 24.59 179.088 24.2287 179.42 23.9702C179.754 23.7083 180.119 23.526 180.513 23.4233C180.911 23.3172 181.302 23.2642 181.687 23.2642C181.932 23.2642 182.214 23.294 182.532 23.3537C182.853 23.41 183.163 23.5277 183.461 23.7067C183.763 23.8857 184.013 24.1558 184.212 24.517C184.411 24.8783 184.51 25.3622 184.51 25.9688V31H183.337V29.9659H183.278C183.198 30.1316 183.065 30.3089 182.88 30.4979C182.694 30.6868 182.447 30.8475 182.139 30.9801C181.831 31.1127 181.455 31.179 181.01 31.179ZM181.189 30.125C181.653 30.125 182.045 30.0339 182.363 29.8516C182.684 29.6693 182.926 29.4339 183.089 29.1456C183.254 28.8572 183.337 28.554 183.337 28.2358V27.1619C183.287 27.2216 183.178 27.2763 183.009 27.326C182.843 27.3724 182.651 27.4138 182.432 27.4503C182.217 27.4834 182.006 27.5133 181.801 27.5398C181.599 27.563 181.435 27.5829 181.309 27.5994C181.004 27.6392 180.719 27.7038 180.454 27.7933C180.192 27.8795 179.98 28.0104 179.817 28.1861C179.658 28.3584 179.579 28.5937 179.579 28.892C179.579 29.2997 179.729 29.608 180.031 29.8168C180.336 30.0223 180.722 30.125 181.189 30.125ZM189.734 34.0227C189.168 34.0227 188.68 33.9498 188.273 33.804C187.865 33.6615 187.525 33.4725 187.254 33.2372C186.985 33.0052 186.771 32.7566 186.612 32.4915L187.547 31.8352C187.653 31.9744 187.787 32.1335 187.95 32.3125C188.112 32.4948 188.334 32.6522 188.616 32.7848C188.901 32.9207 189.274 32.9886 189.734 32.9886C190.351 32.9886 190.86 32.8395 191.261 32.5412C191.662 32.2429 191.862 31.7756 191.862 31.1392V29.5881H191.763C191.677 29.7273 191.554 29.8996 191.395 30.1051C191.239 30.3073 191.014 30.4879 190.719 30.647C190.427 30.8028 190.033 30.8807 189.536 30.8807C188.919 30.8807 188.366 30.7348 187.875 30.4432C187.388 30.1515 187.002 29.7273 186.717 29.1705C186.435 28.6136 186.294 27.9375 186.294 27.142C186.294 26.3598 186.432 25.6787 186.707 25.0987C186.982 24.5154 187.365 24.0646 187.855 23.7464C188.346 23.425 188.912 23.2642 189.555 23.2642C190.053 23.2642 190.447 23.3471 190.739 23.5128C191.034 23.6752 191.259 23.8608 191.415 24.0696C191.574 24.2751 191.696 24.4441 191.783 24.5767H191.902V23.3636H193.036V31.2188C193.036 31.875 192.886 32.4086 192.588 32.8196C192.293 33.2339 191.895 33.5372 191.395 33.7294C190.898 33.925 190.344 34.0227 189.734 34.0227ZM189.695 29.8267C190.165 29.8267 190.563 29.719 190.888 29.5036C191.213 29.2881 191.46 28.9782 191.629 28.5739C191.798 28.1695 191.882 27.6856 191.882 27.1222C191.882 26.572 191.799 26.0864 191.634 25.6655C191.468 25.2446 191.223 24.9148 190.898 24.6761C190.573 24.4375 190.172 24.3182 189.695 24.3182C189.197 24.3182 188.783 24.4441 188.452 24.696C188.124 24.9479 187.877 25.286 187.711 25.7102C187.549 26.1345 187.467 26.6051 187.467 27.1222C187.467 27.6525 187.55 28.1214 187.716 28.5291C187.885 28.9335 188.134 29.2517 188.462 29.4837C188.793 29.7124 189.204 29.8267 189.695 29.8267ZM201.368 31.179C200.884 31.179 200.445 31.0878 200.05 30.9055C199.656 30.7199 199.343 30.4531 199.111 30.1051C198.879 29.7538 198.763 29.3295 198.763 28.8324C198.763 28.3949 198.849 28.0402 199.021 27.7685C199.194 27.4934 199.424 27.2779 199.712 27.1222C200.001 26.9664 200.319 26.8504 200.667 26.7741C201.018 26.6946 201.371 26.6316 201.726 26.5852C202.19 26.5256 202.566 26.4808 202.854 26.451C203.146 26.4179 203.358 26.3632 203.491 26.2869C203.627 26.2107 203.695 26.0781 203.695 25.8892V25.8494C203.695 25.3589 203.56 24.9777 203.292 24.706C203.027 24.4342 202.624 24.2983 202.084 24.2983C201.524 24.2983 201.085 24.4209 200.766 24.6662C200.448 24.9115 200.224 25.1733 200.095 25.4517L198.982 25.054C199.18 24.59 199.446 24.2287 199.777 23.9702C200.112 23.7083 200.476 23.526 200.871 23.4233C201.268 23.3172 201.66 23.2642 202.044 23.2642C202.289 23.2642 202.571 23.294 202.889 23.3537C203.211 23.41 203.521 23.5277 203.819 23.7067C204.121 23.8857 204.371 24.1558 204.57 24.517C204.768 24.8783 204.868 25.3622 204.868 25.9688V31H203.695V29.9659H203.635C203.555 30.1316 203.423 30.3089 203.237 30.4979C203.052 30.6868 202.805 30.8475 202.496 30.9801C202.188 31.1127 201.812 31.179 201.368 31.179ZM201.547 30.125C202.011 30.125 202.402 30.0339 202.72 29.8516C203.042 29.6693 203.284 29.4339 203.446 29.1456C203.612 28.8572 203.695 28.554 203.695 28.2358V27.1619C203.645 27.2216 203.536 27.2763 203.366 27.326C203.201 27.3724 203.009 27.4138 202.79 27.4503C202.574 27.4834 202.364 27.5133 202.158 27.5398C201.956 27.563 201.792 27.5829 201.666 27.5994C201.361 27.6392 201.076 27.7038 200.811 27.7933C200.549 27.8795 200.337 28.0104 200.175 28.1861C200.016 28.3584 199.936 28.5937 199.936 28.892C199.936 29.2997 200.087 29.608 200.388 29.8168C200.693 30.0223 201.08 30.125 201.547 30.125ZM208.183 26.4062V31H207.009V23.3636H208.143V24.5568H208.242C208.421 24.169 208.693 23.8575 209.058 23.6222C209.422 23.3835 209.893 23.2642 210.47 23.2642C210.987 23.2642 211.439 23.3703 211.827 23.5824C212.215 23.7912 212.516 24.1094 212.732 24.5369C212.947 24.9612 213.055 25.4981 213.055 26.1477V31H211.882V26.2273C211.882 25.6274 211.726 25.16 211.414 24.8253C211.103 24.4872 210.675 24.3182 210.132 24.3182C209.757 24.3182 209.422 24.3994 209.127 24.5618C208.836 24.7242 208.605 24.9612 208.436 25.2727C208.267 25.5843 208.183 25.9621 208.183 26.4062ZM218.082 31.1591C217.446 31.1591 216.884 30.9983 216.397 30.6768C215.91 30.352 215.529 29.8946 215.254 29.3047C214.978 28.7114 214.841 28.0104 214.841 27.2017C214.841 26.3996 214.978 25.7036 215.254 25.1136C215.529 24.5237 215.911 24.0679 216.402 23.7464C216.893 23.425 217.459 23.2642 218.102 23.2642C218.599 23.2642 218.992 23.3471 219.281 23.5128C219.572 23.6752 219.794 23.8608 219.947 24.0696C220.103 24.2751 220.223 24.4441 220.31 24.5767H220.409V20.8182H221.582V31H220.449V29.8267H220.31C220.223 29.9659 220.101 30.1416 219.942 30.3537C219.783 30.5625 219.556 30.7498 219.261 30.9155C218.966 31.0779 218.573 31.1591 218.082 31.1591ZM218.241 30.1051C218.712 30.1051 219.11 29.9825 219.435 29.7372C219.759 29.4886 220.006 29.1456 220.175 28.7081C220.344 28.2673 220.429 27.7585 220.429 27.1818C220.429 26.6117 220.346 26.1129 220.18 25.6854C220.015 25.2545 219.769 24.9197 219.445 24.6811C219.12 24.4392 218.719 24.3182 218.241 24.3182C217.744 24.3182 217.33 24.4458 216.999 24.701C216.67 24.9529 216.424 25.2959 216.258 25.7301C216.095 26.161 216.014 26.6449 216.014 27.1818C216.014 27.7254 216.097 28.2192 216.263 28.6634C216.432 29.1042 216.68 29.4555 217.009 29.7173C217.34 29.9759 217.751 30.1051 218.241 30.1051ZM230.715 31.1591C230.079 31.1591 229.517 30.9983 229.03 30.6768C228.543 30.352 228.161 29.8946 227.886 29.3047C227.611 28.7114 227.474 28.0104 227.474 27.2017C227.474 26.3996 227.611 25.7036 227.886 25.1136C228.161 24.5237 228.544 24.0679 229.035 23.7464C229.525 23.425 230.092 23.2642 230.735 23.2642C231.232 23.2642 231.625 23.3471 231.913 23.5128C232.205 23.6752 232.427 23.8608 232.58 24.0696C232.735 24.2751 232.856 24.4441 232.942 24.5767H233.042V20.8182H234.215V31H233.082V29.8267H232.942C232.856 29.9659 232.734 30.1416 232.575 30.3537C232.415 30.5625 232.188 30.7498 231.893 30.9155C231.598 31.0779 231.206 31.1591 230.715 31.1591ZM230.874 30.1051C231.345 30.1051 231.743 29.9825 232.067 29.7372C232.392 29.4886 232.639 29.1456 232.808 28.7081C232.977 28.2673 233.062 27.7585 233.062 27.1818C233.062 26.6117 232.979 26.1129 232.813 25.6854C232.647 25.2545 232.402 24.9197 232.077 24.6811C231.753 24.4392 231.352 24.3182 230.874 24.3182C230.377 24.3182 229.963 24.4458 229.631 24.701C229.303 24.9529 229.056 25.2959 228.891 25.7301C228.728 26.161 228.647 26.6449 228.647 27.1818C228.647 27.7254 228.73 28.2192 228.896 28.6634C229.065 29.1042 229.313 29.4555 229.641 29.7173C229.973 29.9759 230.384 30.1051 230.874 30.1051ZM236.527 31V23.3636H237.661V24.517H237.74C237.879 24.1392 238.131 23.8326 238.496 23.5973C238.86 23.362 239.271 23.2443 239.729 23.2443C239.815 23.2443 239.923 23.246 240.052 23.2493C240.181 23.2526 240.279 23.2576 240.345 23.2642V24.4574C240.305 24.4474 240.214 24.4325 240.072 24.4126C239.933 24.3894 239.785 24.3778 239.629 24.3778C239.258 24.3778 238.927 24.4557 238.635 24.6115C238.347 24.764 238.118 24.9761 237.949 25.2479C237.783 25.5163 237.7 25.8229 237.7 26.1676V31H236.527ZM244.606 31.1591C243.916 31.1591 243.312 30.995 242.791 30.6669C242.274 30.3388 241.87 29.8797 241.578 29.2898C241.29 28.6998 241.146 28.0104 241.146 27.2216C241.146 26.4261 241.29 25.7318 241.578 25.1385C241.87 24.5452 242.274 24.0845 242.791 23.7564C243.312 23.4283 243.916 23.2642 244.606 23.2642C245.295 23.2642 245.898 23.4283 246.415 23.7564C246.936 24.0845 247.34 24.5452 247.629 25.1385C247.92 25.7318 248.066 26.4261 248.066 27.2216C248.066 28.0104 247.92 28.6998 247.629 29.2898C247.34 29.8797 246.936 30.3388 246.415 30.6669C245.898 30.995 245.295 31.1591 244.606 31.1591ZM244.606 30.1051C245.129 30.1051 245.56 29.9709 245.898 29.7024C246.237 29.4339 246.487 29.081 246.649 28.6435C246.812 28.206 246.893 27.732 246.893 27.2216C246.893 26.7112 246.812 26.2356 246.649 25.7947C246.487 25.3539 246.237 24.9976 245.898 24.7259C245.56 24.4541 245.129 24.3182 244.606 24.3182C244.082 24.3182 243.651 24.4541 243.313 24.7259C242.975 24.9976 242.725 25.3539 242.562 25.7947C242.4 26.2356 242.319 26.7112 242.319 27.2216C242.319 27.732 242.4 28.206 242.562 28.6435C242.725 29.081 242.975 29.4339 243.313 29.7024C243.651 29.9709 244.082 30.1051 244.606 30.1051ZM249.857 33.8636V23.3636H250.991V24.5767H251.13C251.216 24.4441 251.335 24.2751 251.488 24.0696C251.644 23.8608 251.866 23.6752 252.154 23.5128C252.446 23.3471 252.84 23.2642 253.337 23.2642C253.98 23.2642 254.547 23.425 255.037 23.7464C255.528 24.0679 255.911 24.5237 256.186 25.1136C256.461 25.7036 256.599 26.3996 256.599 27.2017C256.599 28.0104 256.461 28.7114 256.186 29.3047C255.911 29.8946 255.53 30.352 255.042 30.6768C254.555 30.9983 253.993 31.1591 253.357 31.1591C252.867 31.1591 252.474 31.0779 252.179 30.9155C251.884 30.7498 251.657 30.5625 251.498 30.3537C251.339 30.1416 251.216 29.9659 251.13 29.8267H251.03V33.8636H249.857ZM251.01 27.1818C251.01 27.7585 251.095 28.2673 251.264 28.7081C251.433 29.1456 251.68 29.4886 252.005 29.7372C252.33 29.9825 252.727 30.1051 253.198 30.1051C253.689 30.1051 254.098 29.9759 254.426 29.7173C254.757 29.4555 255.006 29.1042 255.172 28.6634C255.341 28.2192 255.425 27.7254 255.425 27.1818C255.425 26.6449 255.342 26.161 255.177 25.7301C255.014 25.2959 254.767 24.9529 254.436 24.701C254.108 24.4458 253.695 24.3182 253.198 24.3182C252.721 24.3182 252.32 24.4392 251.995 24.6811C251.67 24.9197 251.425 25.2545 251.259 25.6854C251.093 26.1129 251.01 26.6117 251.01 27.1818Z" fill="#334155"/>
<path d="M26.9103 53V44.2727H29.8592C30.5439 44.2727 31.1035 44.3963 31.5382 44.6435C31.9757 44.8878 32.2995 45.2188 32.5098 45.6364C32.72 46.054 32.8251 46.5199 32.8251 47.0341C32.8251 47.5483 32.72 48.0156 32.5098 48.4361C32.3024 48.8565 31.9814 49.1918 31.5467 49.4418C31.112 49.6889 30.5552 49.8125 29.8762 49.8125H27.7626V48.875H29.8422C30.3109 48.875 30.6873 48.794 30.9714 48.6321C31.2555 48.4702 31.4615 48.2514 31.5893 47.9759C31.72 47.6974 31.7853 47.3835 31.7853 47.0341C31.7853 46.6847 31.72 46.3722 31.5893 46.0966C31.4615 45.821 31.2541 45.6051 30.9672 45.4489C30.6802 45.2898 30.2995 45.2102 29.8251 45.2102H27.9672V53H26.9103ZM41.448 44.2727V53H40.4252L35.6696 46.1477H35.5843V53H34.5275V44.2727H35.5502L40.323 51.142H40.4082V44.2727H41.448ZM49.5286 47C49.4348 46.7131 49.3113 46.456 49.1578 46.2287C49.0073 45.9986 48.8269 45.8026 48.6167 45.6406C48.4093 45.4787 48.1735 45.3551 47.9093 45.2699C47.6451 45.1847 47.3553 45.142 47.04 45.142C46.5229 45.142 46.0527 45.2756 45.6294 45.5426C45.2061 45.8097 44.8695 46.2031 44.6195 46.723C44.3695 47.2429 44.2445 47.8807 44.2445 48.6364C44.2445 49.392 44.3709 50.0298 44.6238 50.5497C44.8766 51.0696 45.2189 51.4631 45.6507 51.7301C46.0826 51.9972 46.5684 52.1307 47.1081 52.1307C47.6081 52.1307 48.0485 52.0241 48.4292 51.8111C48.8127 51.5952 49.111 51.2912 49.324 50.8991C49.54 50.5043 49.6479 50.0398 49.6479 49.5057L49.9718 49.5739H47.3468V48.6364H50.6706V49.5739C50.6706 50.2926 50.5172 50.9176 50.2104 51.4489C49.9064 51.9801 49.486 52.392 48.949 52.6847C48.415 52.9744 47.8013 53.1193 47.1081 53.1193C46.3354 53.1193 45.6564 52.9375 45.0712 52.5739C44.4888 52.2102 44.0343 51.6932 43.7076 51.0227C43.3837 50.3523 43.2218 49.5568 43.2218 48.6364C43.2218 47.946 43.3141 47.3253 43.4988 46.7741C43.6863 46.2202 43.9505 45.7486 44.2914 45.3594C44.6323 44.9702 45.0357 44.6719 45.5016 44.4645C45.9675 44.2571 46.4803 44.1534 47.04 44.1534C47.5002 44.1534 47.9292 44.223 48.3269 44.3622C48.7275 44.4986 49.084 44.6932 49.3965 44.946C49.7118 45.196 49.9746 45.4957 50.1848 45.8452C50.3951 46.1918 50.54 46.5767 50.6195 47H49.5286ZM58.3784 53.1364C57.7875 53.1364 57.269 52.9957 56.823 52.7145C56.3798 52.4332 56.0332 52.0398 55.7832 51.5341C55.536 51.0284 55.4125 50.4375 55.4125 49.7614C55.4125 49.0795 55.536 48.4844 55.7832 47.9759C56.0332 47.4673 56.3798 47.0724 56.823 46.7912C57.269 46.5099 57.7875 46.3693 58.3784 46.3693C58.9693 46.3693 59.4863 46.5099 59.9295 46.7912C60.3755 47.0724 60.7221 47.4673 60.9693 47.9759C61.2193 48.4844 61.3443 49.0795 61.3443 49.7614C61.3443 50.4375 61.2193 51.0284 60.9693 51.5341C60.7221 52.0398 60.3755 52.4332 59.9295 52.7145C59.4863 52.9957 58.9693 53.1364 58.3784 53.1364ZM58.3784 52.233C58.8272 52.233 59.1966 52.1179 59.4863 51.8878C59.7761 51.6577 59.9906 51.3551 60.1298 50.9801C60.269 50.6051 60.3386 50.1989 60.3386 49.7614C60.3386 49.3239 60.269 48.9162 60.1298 48.5384C59.9906 48.1605 59.7761 47.8551 59.4863 47.6222C59.1966 47.3892 58.8272 47.2727 58.3784 47.2727C57.9295 47.2727 57.5602 47.3892 57.2704 47.6222C56.9806 47.8551 56.7662 48.1605 56.627 48.5384C56.4877 48.9162 56.4181 49.3239 56.4181 49.7614C56.4181 50.1989 56.4877 50.6051 56.627 50.9801C56.7662 51.3551 56.9806 51.6577 57.2704 51.8878C57.5602 52.1179 57.9295 52.233 58.3784 52.233ZM62.8794 53V46.4545H63.851V47.4432H63.9192C64.0385 47.1193 64.2544 46.8565 64.5669 46.6548C64.8794 46.4531 65.2317 46.3523 65.6238 46.3523C65.6976 46.3523 65.79 46.3537 65.9007 46.3565C66.0115 46.3594 66.0953 46.3636 66.1522 46.3693V47.392C66.1181 47.3835 66.04 47.3707 65.9178 47.3537C65.7985 47.3338 65.6721 47.3239 65.5385 47.3239C65.2203 47.3239 64.9363 47.3906 64.6863 47.5241C64.4391 47.6548 64.2431 47.8366 64.0982 48.0696C63.9561 48.2997 63.8851 48.5625 63.8851 48.858V53H62.8794ZM74.1966 44.2727H75.2534V50.5114C75.2534 51.0682 75.1511 51.5412 74.9466 51.9304C74.742 52.3196 74.4537 52.6151 74.0815 52.8168C73.7093 53.0185 73.2704 53.1193 72.7647 53.1193C72.2875 53.1193 71.8627 53.0327 71.4906 52.8594C71.1184 52.6832 70.8258 52.4332 70.6127 52.1094C70.3997 51.7855 70.2931 51.4006 70.2931 50.9545H71.3329C71.3329 51.2017 71.394 51.4176 71.5162 51.6023C71.6412 51.7841 71.8116 51.9261 72.0275 52.0284C72.2434 52.1307 72.4892 52.1818 72.7647 52.1818C73.0687 52.1818 73.3272 52.1179 73.5403 51.9901C73.7534 51.8622 73.9153 51.6747 74.0261 51.4276C74.1397 51.1776 74.1966 50.8722 74.1966 50.5114V44.2727ZM77.3713 53V44.2727H80.3201C81.0048 44.2727 81.5645 44.3963 81.9991 44.6435C82.4366 44.8878 82.7605 45.2188 82.9707 45.6364C83.1809 46.054 83.286 46.5199 83.286 47.0341C83.286 47.5483 83.1809 48.0156 82.9707 48.4361C82.7633 48.8565 82.4423 49.1918 82.0076 49.4418C81.573 49.6889 81.0162 49.8125 80.3372 49.8125H78.2235V48.875H80.3031C80.7718 48.875 81.1483 48.794 81.4324 48.6321C81.7164 48.4702 81.9224 48.2514 82.0502 47.9759C82.1809 47.6974 82.2463 47.3835 82.2463 47.0341C82.2463 46.6847 82.1809 46.3722 82.0502 46.0966C81.9224 45.821 81.715 45.6051 81.4281 45.4489C81.1412 45.2898 80.7605 45.2102 80.286 45.2102H78.4281V53H77.3713ZM90.9544 47C90.8606 46.7131 90.737 46.456 90.5836 46.2287C90.4331 45.9986 90.2527 45.8026 90.0424 45.6406C89.8351 45.4787 89.5993 45.3551 89.335 45.2699C89.0708 45.1847 88.7811 45.142 88.4657 45.142C87.9487 45.142 87.4785 45.2756 87.0552 45.5426C86.6319 45.8097 86.2953 46.2031 86.0453 46.723C85.7953 47.2429 85.6703 47.8807 85.6703 48.6364C85.6703 49.392 85.7967 50.0298 86.0495 50.5497C86.3024 51.0696 86.6447 51.4631 87.0765 51.7301C87.5083 51.9972 87.9941 52.1307 88.5339 52.1307C89.0339 52.1307 89.4743 52.0241 89.8549 51.8111C90.2385 51.5952 90.5368 51.2912 90.7498 50.8991C90.9657 50.5043 91.0737 50.0398 91.0737 49.5057L91.3976 49.5739H88.7725V48.6364H92.0964V49.5739C92.0964 50.2926 91.943 50.9176 91.6362 51.4489C91.3322 51.9801 90.9118 52.392 90.3748 52.6847C89.8407 52.9744 89.2271 53.1193 88.5339 53.1193C87.7612 53.1193 87.0822 52.9375 86.497 52.5739C85.9146 52.2102 85.46 51.6932 85.1333 51.0227C84.8095 50.3523 84.6475 49.5568 84.6475 48.6364C84.6475 47.946 84.7399 47.3253 84.9245 46.7741C85.112 46.2202 85.3762 45.7486 85.7172 45.3594C86.0581 44.9702 86.4615 44.6719 86.9274 44.4645C87.3933 44.2571 87.9061 44.1534 88.4657 44.1534C88.926 44.1534 89.3549 44.223 89.7527 44.3622C90.1532 44.4986 90.5098 44.6932 90.8223 44.946C91.1376 45.196 91.4004 45.4957 91.6106 45.8452C91.8208 46.1918 91.9657 46.5767 92.0453 47H90.9544ZM100.06 46.4545V47.3068H96.5314V46.4545H100.06ZM97.5882 53V45.5511C97.5882 45.1761 97.6763 44.8636 97.8525 44.6136C98.0286 44.3636 98.2573 44.1761 98.5385 44.0511C98.8198 43.9261 99.1167 43.8636 99.4292 43.8636C99.6763 43.8636 99.878 43.8835 100.034 43.9233C100.191 43.9631 100.307 44 100.384 44.0341L100.094 44.9034C100.043 44.8864 99.9718 44.8651 99.8809 44.8395C99.7928 44.8139 99.6763 44.8011 99.5314 44.8011C99.199 44.8011 98.959 44.8849 98.8113 45.0526C98.6664 45.2202 98.5939 45.4659 98.5939 45.7898V53H97.5882ZM101.469 53V46.4545H102.475V53H101.469ZM101.981 45.3636C101.785 45.3636 101.616 45.2969 101.474 45.1634C101.334 45.0298 101.265 44.8693 101.265 44.6818C101.265 44.4943 101.334 44.3338 101.474 44.2003C101.616 44.0668 101.785 44 101.981 44C102.177 44 102.344 44.0668 102.483 44.2003C102.626 44.3338 102.697 44.4943 102.697 44.6818C102.697 44.8693 102.626 45.0298 102.483 45.1634C102.344 45.2969 102.177 45.3636 101.981 45.3636ZM105.323 44.2727V53H104.317V44.2727H105.323ZM109.909 53.1364C109.278 53.1364 108.734 52.9972 108.277 52.7188C107.822 52.4375 107.471 52.0455 107.224 51.5426C106.98 51.0369 106.858 50.4489 106.858 49.7784C106.858 49.108 106.98 48.517 107.224 48.0057C107.471 47.4915 107.815 47.0909 108.256 46.804C108.699 46.5142 109.216 46.3693 109.807 46.3693C110.148 46.3693 110.484 46.4261 110.817 46.5398C111.149 46.6534 111.452 46.8381 111.724 47.0938C111.997 47.3466 112.214 47.6818 112.376 48.0994C112.538 48.517 112.619 49.0312 112.619 49.642V50.0682H107.574V49.1989H111.596C111.596 48.8295 111.523 48.5 111.375 48.2102C111.23 47.9205 111.023 47.6918 110.753 47.5241C110.486 47.3565 110.17 47.2727 109.807 47.2727C109.406 47.2727 109.059 47.3722 108.767 47.571C108.477 47.767 108.254 48.0227 108.098 48.3381C107.942 48.6534 107.863 48.9915 107.863 49.3523V49.9318C107.863 50.4261 107.949 50.8452 108.119 51.1889C108.292 51.5298 108.532 51.7898 108.839 51.9688C109.146 52.1449 109.503 52.233 109.909 52.233C110.173 52.233 110.412 52.196 110.625 52.1222C110.841 52.0455 111.027 51.9318 111.183 51.7812C111.339 51.6278 111.46 51.4375 111.545 51.2102L112.517 51.483C112.415 51.8125 112.243 52.1023 112.001 52.3523C111.76 52.5994 111.461 52.7926 111.106 52.9318C110.751 53.0682 110.352 53.1364 109.909 53.1364ZM114.882 53.0682C114.672 53.0682 114.491 52.9929 114.341 52.8423C114.19 52.6918 114.115 52.5114 114.115 52.3011C114.115 52.0909 114.19 51.9105 114.341 51.7599C114.491 51.6094 114.672 51.5341 114.882 51.5341C115.092 51.5341 115.273 51.6094 115.423 51.7599C115.574 51.9105 115.649 52.0909 115.649 52.3011C115.649 52.4403 115.613 52.5682 115.542 52.6847C115.474 52.8011 115.382 52.8949 115.265 52.9659C115.152 53.0341 115.024 53.0682 114.882 53.0682ZM120.965 44.2727H122.226L125.192 51.517H125.295L128.26 44.2727H129.522V53H128.533V46.3693H128.448L125.721 53H124.766L122.039 46.3693H121.954V53H120.965V44.2727ZM133.431 53.1534C133.016 53.1534 132.639 53.0753 132.301 52.919C131.963 52.7599 131.695 52.5312 131.496 52.233C131.297 51.9318 131.198 51.5682 131.198 51.142C131.198 50.767 131.271 50.4631 131.419 50.2301C131.567 49.9943 131.764 49.8097 132.012 49.6761C132.259 49.5426 132.531 49.4432 132.83 49.3778C133.131 49.3097 133.433 49.2557 133.737 49.2159C134.135 49.1648 134.458 49.1264 134.705 49.1009C134.955 49.0724 135.137 49.0256 135.25 48.9602C135.367 48.8949 135.425 48.7812 135.425 48.6193V48.5852C135.425 48.1648 135.31 47.8381 135.08 47.6051C134.852 47.3722 134.507 47.2557 134.044 47.2557C133.564 47.2557 133.188 47.3608 132.915 47.571C132.642 47.7812 132.45 48.0057 132.34 48.2443L131.385 47.9034C131.556 47.5057 131.783 47.196 132.067 46.9744C132.354 46.75 132.666 46.5937 133.004 46.5057C133.345 46.4148 133.681 46.3693 134.01 46.3693C134.22 46.3693 134.462 46.3949 134.735 46.446C135.01 46.4943 135.276 46.5952 135.531 46.7486C135.79 46.902 136.004 47.1335 136.175 47.4432C136.345 47.7528 136.431 48.1676 136.431 48.6875V53H135.425V52.1136H135.374C135.306 52.2557 135.192 52.4077 135.033 52.5696C134.874 52.7315 134.662 52.8693 134.398 52.983C134.134 53.0966 133.811 53.1534 133.431 53.1534ZM133.584 52.25C133.982 52.25 134.317 52.1719 134.59 52.0156C134.865 51.8594 135.073 51.6577 135.212 51.4105C135.354 51.1634 135.425 50.9034 135.425 50.6307V49.7102C135.382 49.7614 135.289 49.8082 135.144 49.8509C135.002 49.8906 134.837 49.9261 134.649 49.9574C134.465 49.9858 134.284 50.0114 134.108 50.0341C133.935 50.054 133.794 50.071 133.686 50.0852C133.425 50.1193 133.181 50.1747 132.953 50.2514C132.729 50.3253 132.547 50.4375 132.408 50.5881C132.271 50.7358 132.203 50.9375 132.203 51.1932C132.203 51.5426 132.333 51.8068 132.591 51.9858C132.852 52.1619 133.183 52.25 133.584 52.25ZM139.016 46.4545L140.584 49.1307L142.153 46.4545H143.312L141.198 49.7273L143.312 53H142.153L140.584 50.4602L139.016 53H137.857L139.937 49.7273L137.857 46.4545H139.016ZM144.747 53V46.4545H145.752V53H144.747ZM145.258 45.3636C145.062 45.3636 144.893 45.2969 144.751 45.1634C144.612 45.0298 144.542 44.8693 144.542 44.6818C144.542 44.4943 144.612 44.3338 144.751 44.2003C144.893 44.0668 145.062 44 145.258 44C145.454 44 145.622 44.0668 145.761 44.2003C145.903 44.3338 145.974 44.4943 145.974 44.6818C145.974 44.8693 145.903 45.0298 145.761 45.1634C145.622 45.2969 145.454 45.3636 145.258 45.3636ZM147.594 53V46.4545H148.566V47.4773H148.651C148.787 47.1278 149.008 46.8565 149.312 46.6634C149.616 46.4673 149.981 46.3693 150.407 46.3693C150.839 46.3693 151.198 46.4673 151.485 46.6634C151.775 46.8565 152.001 47.1278 152.162 47.4773H152.231C152.398 47.1392 152.65 46.8707 152.985 46.6719C153.32 46.4702 153.722 46.3693 154.191 46.3693C154.776 46.3693 155.255 46.5526 155.627 46.919C155.999 47.2827 156.185 47.8494 156.185 48.6193V53H155.18V48.6193C155.18 48.1364 155.047 47.7912 154.783 47.5838C154.519 47.3764 154.208 47.2727 153.85 47.2727C153.39 47.2727 153.033 47.4119 152.78 47.6903C152.528 47.9659 152.401 48.3153 152.401 48.7386V53H151.378V48.517C151.378 48.1449 151.258 47.8452 151.016 47.6179C150.775 47.3878 150.464 47.2727 150.083 47.2727C149.822 47.2727 149.577 47.3423 149.35 47.4815C149.126 47.6207 148.944 47.8139 148.805 48.0611C148.668 48.3054 148.6 48.5881 148.6 48.9091V53H147.594ZM162.149 50.3239V46.4545H163.155V53H162.149V51.892H162.081C161.927 52.2244 161.689 52.5071 161.365 52.7401C161.041 52.9702 160.632 53.0852 160.138 53.0852C159.729 53.0852 159.365 52.9957 159.047 52.8168C158.729 52.6349 158.479 52.3622 158.297 51.9986C158.115 51.6321 158.024 51.1705 158.024 50.6136V46.4545H159.03V50.5455C159.03 51.0227 159.163 51.4034 159.43 51.6875C159.7 51.9716 160.044 52.1136 160.461 52.1136C160.711 52.1136 160.966 52.0497 161.224 51.9219C161.486 51.794 161.704 51.598 161.881 51.3338C162.059 51.0696 162.149 50.733 162.149 50.3239ZM164.997 53V46.4545H165.968V47.4773H166.053C166.19 47.1278 166.41 46.8565 166.714 46.6634C167.018 46.4673 167.383 46.3693 167.809 46.3693C168.241 46.3693 168.6 46.4673 168.887 46.6634C169.177 46.8565 169.403 47.1278 169.565 47.4773H169.633C169.801 47.1392 170.052 46.8707 170.387 46.6719C170.722 46.4702 171.124 46.3693 171.593 46.3693C172.178 46.3693 172.657 46.5526 173.029 46.919C173.401 47.2827 173.588 47.8494 173.588 48.6193V53H172.582V48.6193C172.582 48.1364 172.45 47.7912 172.186 47.5838C171.921 47.3764 171.61 47.2727 171.252 47.2727C170.792 47.2727 170.436 47.4119 170.183 47.6903C169.93 47.9659 169.803 48.3153 169.803 48.7386V53H168.781V48.517C168.781 48.1449 168.66 47.8452 168.419 47.6179C168.177 47.3878 167.866 47.2727 167.485 47.2727C167.224 47.2727 166.98 47.3423 166.752 47.4815C166.528 47.6207 166.346 47.8139 166.207 48.0611C166.07 48.3054 166.002 48.5881 166.002 48.9091V53H164.997ZM181.716 46.4545V47.3068H178.188V46.4545H181.716ZM179.244 53V45.5511C179.244 45.1761 179.333 44.8636 179.509 44.6136C179.685 44.3636 179.914 44.1761 180.195 44.0511C180.476 43.9261 180.773 43.8636 181.085 43.8636C181.333 43.8636 181.534 43.8835 181.691 43.9233C181.847 43.9631 181.963 44 182.04 44.0341L181.75 44.9034C181.699 44.8864 181.628 44.8651 181.537 44.8395C181.449 44.8139 181.333 44.8011 181.188 44.8011C180.855 44.8011 180.615 44.8849 180.468 45.0526C180.323 45.2202 180.25 45.4659 180.25 45.7898V53H179.244ZM183.126 53V46.4545H184.131V53H183.126ZM183.637 45.3636C183.441 45.3636 183.272 45.2969 183.13 45.1634C182.991 45.0298 182.921 44.8693 182.921 44.6818C182.921 44.4943 182.991 44.3338 183.13 44.2003C183.272 44.0668 183.441 44 183.637 44C183.833 44 184.001 44.0668 184.14 44.2003C184.282 44.3338 184.353 44.4943 184.353 44.6818C184.353 44.8693 184.282 45.0298 184.14 45.1634C184.001 45.2969 183.833 45.3636 183.637 45.3636ZM186.979 44.2727V53H185.973V44.2727H186.979ZM191.565 53.1364C190.934 53.1364 190.39 52.9972 189.933 52.7188C189.479 52.4375 189.128 52.0455 188.881 51.5426C188.636 51.0369 188.514 50.4489 188.514 49.7784C188.514 49.108 188.636 48.517 188.881 48.0057C189.128 47.4915 189.471 47.0909 189.912 46.804C190.355 46.5142 190.872 46.3693 191.463 46.3693C191.804 46.3693 192.14 46.4261 192.473 46.5398C192.805 46.6534 193.108 46.8381 193.381 47.0938C193.653 47.3466 193.871 47.6818 194.032 48.0994C194.194 48.517 194.275 49.0312 194.275 49.642V50.0682H189.23V49.1989H193.253C193.253 48.8295 193.179 48.5 193.031 48.2102C192.886 47.9205 192.679 47.6918 192.409 47.5241C192.142 47.3565 191.827 47.2727 191.463 47.2727C191.062 47.2727 190.716 47.3722 190.423 47.571C190.133 47.767 189.91 48.0227 189.754 48.3381C189.598 48.6534 189.52 48.9915 189.52 49.3523V49.9318C189.52 50.4261 189.605 50.8452 189.775 51.1889C189.949 51.5298 190.189 51.7898 190.496 51.9688C190.802 52.1449 191.159 52.233 191.565 52.233C191.829 52.233 192.068 52.196 192.281 52.1222C192.497 52.0455 192.683 51.9318 192.839 51.7812C192.996 51.6278 193.116 51.4375 193.202 51.2102L194.173 51.483C194.071 51.8125 193.899 52.1023 193.657 52.3523C193.416 52.5994 193.118 52.7926 192.763 52.9318C192.407 53.0682 192.008 53.1364 191.565 53.1364ZM203.817 47.9205L202.913 48.1761C202.856 48.0256 202.773 47.8793 202.662 47.7372C202.554 47.5923 202.406 47.473 202.219 47.3793C202.031 47.2855 201.791 47.2386 201.498 47.2386C201.098 47.2386 200.764 47.331 200.497 47.5156C200.233 47.6974 200.101 47.929 200.101 48.2102C200.101 48.4602 200.192 48.6577 200.373 48.8026C200.555 48.9474 200.839 49.0682 201.226 49.1648L202.197 49.4034C202.782 49.5455 203.219 49.7628 203.506 50.0554C203.792 50.3452 203.936 50.7187 203.936 51.1761C203.936 51.5511 203.828 51.8864 203.612 52.1818C203.399 52.4773 203.101 52.7102 202.717 52.8807C202.334 53.0511 201.888 53.1364 201.379 53.1364C200.711 53.1364 200.159 52.9915 199.721 52.7017C199.284 52.4119 199.007 51.9886 198.89 51.4318L199.845 51.1932C199.936 51.5455 200.108 51.8097 200.361 51.9858C200.616 52.1619 200.95 52.25 201.362 52.25C201.831 52.25 202.203 52.1506 202.479 51.9517C202.757 51.75 202.896 51.5085 202.896 51.2273C202.896 51 202.817 50.8097 202.657 50.6562C202.498 50.5 202.254 50.3835 201.925 50.3068L200.834 50.0511C200.234 49.9091 199.794 49.6889 199.513 49.3906C199.234 49.0895 199.095 48.7131 199.095 48.2614C199.095 47.892 199.199 47.5653 199.406 47.2812C199.616 46.9972 199.902 46.7741 200.263 46.6122C200.626 46.4503 201.038 46.3693 201.498 46.3693C202.146 46.3693 202.655 46.5114 203.024 46.7955C203.396 47.0795 203.66 47.4545 203.817 47.9205ZM205.45 53V46.4545H206.455V53H205.45ZM205.961 45.3636C205.765 45.3636 205.596 45.2969 205.454 45.1634C205.315 45.0298 205.245 44.8693 205.245 44.6818C205.245 44.4943 205.315 44.3338 205.454 44.2003C205.596 44.0668 205.765 44 205.961 44C206.157 44 206.325 44.0668 206.464 44.2003C206.606 44.3338 206.677 44.4943 206.677 44.6818C206.677 44.8693 206.606 45.0298 206.464 45.1634C206.325 45.2969 206.157 45.3636 205.961 45.3636ZM208.11 53V52.233L211.826 47.4602V47.392H208.229V46.4545H213.121V47.2557L209.508 51.9943V52.0625H213.241V53H208.11ZM217.346 53.1364C216.716 53.1364 216.172 52.9972 215.714 52.7188C215.26 52.4375 214.909 52.0455 214.662 51.5426C214.417 51.0369 214.295 50.4489 214.295 49.7784C214.295 49.108 214.417 48.517 214.662 48.0057C214.909 47.4915 215.253 47.0909 215.693 46.804C216.136 46.5142 216.653 46.3693 217.244 46.3693C217.585 46.3693 217.922 46.4261 218.254 46.5398C218.586 46.6534 218.889 46.8381 219.162 47.0938C219.434 47.3466 219.652 47.6818 219.814 48.0994C219.976 48.517 220.057 49.0312 220.057 49.642V50.0682H215.011V49.1989H219.034C219.034 48.8295 218.96 48.5 218.812 48.2102C218.667 47.9205 218.46 47.6918 218.19 47.5241C217.923 47.3565 217.608 47.2727 217.244 47.2727C216.844 47.2727 216.497 47.3722 216.204 47.571C215.915 47.767 215.692 48.0227 215.535 48.3381C215.379 48.6534 215.301 48.9915 215.301 49.3523V49.9318C215.301 50.4261 215.386 50.8452 215.557 51.1889C215.73 51.5298 215.97 51.7898 216.277 51.9688C216.584 52.1449 216.94 52.233 217.346 52.233C217.611 52.233 217.849 52.196 218.062 52.1222C218.278 52.0455 218.464 51.9318 218.621 51.7812C218.777 51.6278 218.898 51.4375 218.983 51.2102L219.954 51.483C219.852 51.8125 219.68 52.1023 219.439 52.3523C219.197 52.5994 218.899 52.7926 218.544 52.9318C218.189 53.0682 217.79 53.1364 217.346 53.1364ZM227.621 53.1364C227.03 53.1364 226.511 52.9957 226.065 52.7145C225.622 52.4332 225.275 52.0398 225.025 51.5341C224.778 51.0284 224.655 50.4375 224.655 49.7614C224.655 49.0795 224.778 48.4844 225.025 47.9759C225.275 47.4673 225.622 47.0724 226.065 46.7912C226.511 46.5099 227.03 46.3693 227.621 46.3693C228.211 46.3693 228.729 46.5099 229.172 46.7912C229.618 47.0724 229.964 47.4673 230.211 47.9759C230.461 48.4844 230.586 49.0795 230.586 49.7614C230.586 50.4375 230.461 51.0284 230.211 51.5341C229.964 52.0398 229.618 52.4332 229.172 52.7145C228.729 52.9957 228.211 53.1364 227.621 53.1364ZM227.621 52.233C228.069 52.233 228.439 52.1179 228.729 51.8878C229.018 51.6577 229.233 51.3551 229.372 50.9801C229.511 50.6051 229.581 50.1989 229.581 49.7614C229.581 49.3239 229.511 48.9162 229.372 48.5384C229.233 48.1605 229.018 47.8551 228.729 47.6222C228.439 47.3892 228.069 47.2727 227.621 47.2727C227.172 47.2727 226.802 47.3892 226.513 47.6222C226.223 47.8551 226.008 48.1605 225.869 48.5384C225.73 48.9162 225.66 49.3239 225.66 49.7614C225.66 50.1989 225.73 50.6051 225.869 50.9801C226.008 51.3551 226.223 51.6577 226.513 51.8878C226.802 52.1179 227.172 52.233 227.621 52.233ZM235.036 46.4545V47.3068H231.508V46.4545H235.036ZM232.565 53V45.5511C232.565 45.1761 232.653 44.8636 232.829 44.6136C233.005 44.3636 233.234 44.1761 233.515 44.0511C233.796 43.9261 234.093 43.8636 234.406 43.8636C234.653 43.8636 234.855 43.8835 235.011 43.9233C235.167 43.9631 235.284 44 235.36 44.0341L235.07 44.9034C235.019 44.8864 234.948 44.8651 234.857 44.8395C234.769 44.8139 234.653 44.8011 234.508 44.8011C234.176 44.8011 233.936 44.8849 233.788 45.0526C233.643 45.2202 233.57 45.4659 233.57 45.7898V53H232.565ZM239.804 53V52.233L242.684 49.0795C243.023 48.7102 243.301 48.3892 243.52 48.1165C243.738 47.8409 243.9 47.5824 244.006 47.3409C244.113 47.0966 244.167 46.8409 244.167 46.5739C244.167 46.267 244.094 46.0014 243.946 45.777C243.801 45.5526 243.602 45.3793 243.349 45.2571C243.096 45.1349 242.812 45.0739 242.497 45.0739C242.162 45.0739 241.869 45.1435 241.619 45.2827C241.372 45.419 241.18 45.6108 241.044 45.858C240.91 46.1051 240.844 46.3949 240.844 46.7273H239.838C239.838 46.2159 239.956 45.767 240.192 45.3807C240.427 44.9943 240.748 44.6932 241.155 44.4773C241.564 44.2614 242.023 44.1534 242.531 44.1534C243.042 44.1534 243.496 44.2614 243.89 44.4773C244.285 44.6932 244.595 44.9844 244.819 45.3509C245.044 45.7173 245.156 46.125 245.156 46.5739C245.156 46.8949 245.098 47.2088 244.981 47.5156C244.868 47.8196 244.669 48.1591 244.385 48.5341C244.104 48.9062 243.713 49.3608 243.213 49.8977L241.253 51.9943V52.0625H245.309V53H239.804ZM249.916 53.1193C249.274 53.1193 248.727 52.9446 248.275 52.5952C247.824 52.2429 247.479 51.733 247.24 51.0653C247.001 50.3949 246.882 49.5852 246.882 48.6364C246.882 47.6932 247.001 46.8878 247.24 46.2202C247.481 45.5497 247.828 45.0384 248.28 44.6861C248.734 44.331 249.28 44.1534 249.916 44.1534C250.552 44.1534 251.096 44.331 251.548 44.6861C252.003 45.0384 252.349 45.5497 252.588 46.2202C252.829 46.8878 252.95 47.6932 252.95 48.6364C252.95 49.5852 252.831 50.3949 252.592 51.0653C252.354 51.733 252.008 52.2429 251.557 52.5952C251.105 52.9446 250.558 53.1193 249.916 53.1193ZM249.916 52.1818C250.552 52.1818 251.047 51.875 251.399 51.2614C251.751 50.6477 251.927 49.7727 251.927 48.6364C251.927 47.8807 251.846 47.2372 251.684 46.706C251.525 46.1747 251.295 45.7699 250.994 45.4915C250.696 45.2131 250.336 45.0739 249.916 45.0739C249.285 45.0739 248.792 45.3849 248.437 46.0071C248.082 46.6264 247.905 47.5028 247.905 48.6364C247.905 49.392 247.984 50.0341 248.143 50.5625C248.302 51.0909 248.531 51.4929 248.829 51.7685C249.131 52.044 249.493 52.1818 249.916 52.1818ZM254.723 44.2727H255.984L258.95 51.517H259.052L262.018 44.2727H263.28V53H262.291V46.3693H262.206L259.479 53H258.524L255.797 46.3693H255.711V53H254.723V44.2727ZM265.399 53V44.2727H268.45C269.058 44.2727 269.559 44.3778 269.954 44.5881C270.349 44.7955 270.643 45.0753 270.836 45.4276C271.029 45.777 271.126 46.1648 271.126 46.5909C271.126 46.9659 271.059 47.2756 270.926 47.5199C270.795 47.7642 270.622 47.9574 270.406 48.0994C270.193 48.2415 269.961 48.3466 269.711 48.4148V48.5C269.978 48.517 270.247 48.6108 270.517 48.7812C270.786 48.9517 271.012 49.196 271.194 49.5142C271.376 49.8324 271.467 50.2216 271.467 50.6818C271.467 51.1193 271.367 51.5128 271.169 51.8622C270.97 52.2116 270.656 52.4886 270.227 52.6932C269.798 52.8977 269.24 53 268.552 53H265.399ZM266.455 52.0625H268.552C269.242 52.0625 269.732 51.929 270.022 51.6619C270.315 51.392 270.461 51.0653 270.461 50.6818C270.461 50.3864 270.386 50.1136 270.235 49.8636C270.085 49.6108 269.87 49.4091 269.592 49.2585C269.313 49.1051 268.984 49.0284 268.603 49.0284H266.455V52.0625ZM266.455 48.108H268.416C268.734 48.108 269.021 48.0455 269.276 47.9205C269.535 47.7955 269.74 47.6193 269.89 47.392C270.044 47.1648 270.12 46.8977 270.12 46.5909C270.12 46.2074 269.987 45.8821 269.72 45.6151C269.453 45.3452 269.029 45.2102 268.45 45.2102H266.455V48.108Z" fill="#334155"/>
</svg>
