<svg width="364" height="64" viewBox="0 0 364 64" fill="none" xmlns="http://www.w3.org/2000/svg">
<g filter="url(#filter0_d_166_4304)">
<rect x="2" y="1" width="360" height="60" rx="8" fill="#E8EDFB"/>
<rect x="2.5" y="1.5" width="359" height="59" rx="7.5" stroke="#6183E4"/>
<path d="M24 26.1663C20.0467 26.1663 16.8334 22.953 16.8334 18.9997C16.8334 15.0463 20.0467 11.833 24 11.833C27.9534 11.833 31.1667 15.0463 31.1667 18.9997C31.1667 22.953 27.9534 26.1663 24 26.1663ZM24 12.833C20.6 12.833 17.8334 15.5997 17.8334 18.9997C17.8334 22.3997 20.6 25.1663 24 25.1663C27.4 25.1663 30.1667 22.3997 30.1667 18.9997C30.1667 15.5997 27.4 12.833 24 12.833Z" fill="#1D4ED8"/>
<path d="M24 20.1663C23.7267 20.1663 23.5 19.9397 23.5 19.6663V16.333C23.5 16.0597 23.7267 15.833 24 15.833C24.2733 15.833 24.5 16.0597 24.5 16.333V19.6663C24.5 19.9397 24.2733 20.1663 24 20.1663Z" fill="#1D4ED8"/>
<path d="M24 22.3329C23.9134 22.3329 23.8267 22.3129 23.7467 22.2796C23.6667 22.2463 23.5934 22.1996 23.5267 22.1396C23.4667 22.0729 23.42 22.0063 23.3867 21.9196C23.3534 21.8396 23.3334 21.7529 23.3334 21.6663C23.3334 21.5796 23.3534 21.4929 23.3867 21.4129C23.42 21.3329 23.4667 21.2596 23.5267 21.1929C23.5934 21.1329 23.6667 21.0863 23.7467 21.0529C23.9067 20.9863 24.0934 20.9863 24.2534 21.0529C24.3334 21.0863 24.4067 21.1329 24.4734 21.1929C24.5334 21.2596 24.58 21.3329 24.6134 21.4129C24.6467 21.4929 24.6667 21.5796 24.6667 21.6663C24.6667 21.7529 24.6467 21.8396 24.6134 21.9196C24.58 22.0063 24.5334 22.0729 24.4734 22.1396C24.4067 22.1996 24.3334 22.2463 24.2534 22.2796C24.1734 22.3129 24.0867 22.3329 24 22.3329Z" fill="#1D4ED8"/>
<path d="M42.642 25L40.2557 16.2727H41.3295L43.1534 23.3807H43.2386L45.0966 16.2727H46.2898L48.1477 23.3807H48.233L50.0568 16.2727H51.1307L48.7443 25H47.6534L45.7273 18.0455H45.6591L43.733 25H42.642ZM54.446 25.1364C53.8153 25.1364 53.2713 24.9972 52.8139 24.7188C52.3594 24.4375 52.0085 24.0455 51.7614 23.5426C51.517 23.0369 51.3949 22.4489 51.3949 21.7784C51.3949 21.108 51.517 20.517 51.7614 20.0057C52.0085 19.4915 52.3523 19.0909 52.7926 18.804C53.2358 18.5142 53.7528 18.3693 54.3438 18.3693C54.6847 18.3693 55.0213 18.4261 55.3537 18.5398C55.6861 18.6534 55.9886 18.8381 56.2614 19.0938C56.5341 19.3466 56.7514 19.6818 56.9134 20.0994C57.0753 20.517 57.1562 21.0312 57.1562 21.642V22.0682H52.1108V21.1989H56.1335C56.1335 20.8295 56.0597 20.5 55.9119 20.2102C55.767 19.9205 55.5597 19.6918 55.2898 19.5241C55.0227 19.3565 54.7074 19.2727 54.3438 19.2727C53.9432 19.2727 53.5966 19.3722 53.304 19.571C53.0142 19.767 52.7912 20.0227 52.6349 20.3381C52.4787 20.6534 52.4006 20.9915 52.4006 21.3523V21.9318C52.4006 22.4261 52.4858 22.8452 52.6562 23.1889C52.8295 23.5298 53.0696 23.7898 53.3764 23.9688C53.6832 24.1449 54.0398 24.233 54.446 24.233C54.7102 24.233 54.9489 24.196 55.1619 24.1222C55.3778 24.0455 55.5639 23.9318 55.7202 23.7812C55.8764 23.6278 55.9972 23.4375 56.0824 23.2102L57.054 23.483C56.9517 23.8125 56.7798 24.1023 56.5384 24.3523C56.2969 24.5994 55.9986 24.7926 55.6435 24.9318C55.2884 25.0682 54.8892 25.1364 54.446 25.1364ZM62.0611 18.4545H63.0668V25.4773C63.0668 25.8807 62.9972 26.2301 62.858 26.5256C62.7216 26.821 62.5142 27.0497 62.2358 27.2116C61.9602 27.3736 61.6122 27.4545 61.1918 27.4545C61.1577 27.4545 61.1236 27.4545 61.0895 27.4545C61.0554 27.4545 61.0213 27.4545 60.9872 27.4545V26.517C61.0213 26.517 61.0526 26.517 61.081 26.517C61.1094 26.517 61.1406 26.517 61.1747 26.517C61.4815 26.517 61.706 26.4261 61.848 26.2443C61.9901 26.0653 62.0611 25.8097 62.0611 25.4773V18.4545ZM62.5554 17.3636C62.3594 17.3636 62.1903 17.2969 62.0483 17.1634C61.9091 17.0298 61.8395 16.8693 61.8395 16.6818C61.8395 16.4943 61.9091 16.3338 62.0483 16.2003C62.1903 16.0668 62.3594 16 62.5554 16C62.7514 16 62.919 16.0668 63.0582 16.2003C63.2003 16.3338 63.2713 16.4943 63.2713 16.6818C63.2713 16.8693 63.2003 17.0298 63.0582 17.1634C62.919 17.2969 62.7514 17.3636 62.5554 17.3636ZM69.0337 22.3239V18.4545H70.0394V25H69.0337V23.892H68.9656C68.8121 24.2244 68.5735 24.5071 68.2496 24.7401C67.9258 24.9702 67.5167 25.0852 67.0224 25.0852C66.6133 25.0852 66.2496 24.9957 65.9315 24.8168C65.6133 24.6349 65.3633 24.3622 65.1815 23.9986C64.9996 23.6321 64.9087 23.1705 64.9087 22.6136V18.4545H65.9144V22.5455C65.9144 23.0227 66.0479 23.4034 66.315 23.6875C66.5849 23.9716 66.9286 24.1136 67.3462 24.1136C67.5962 24.1136 67.8505 24.0497 68.109 23.9219C68.3704 23.794 68.5891 23.598 68.7653 23.3338C68.9442 23.0696 69.0337 22.733 69.0337 22.3239ZM76.5178 19.9205L75.6143 20.1761C75.5575 20.0256 75.4737 19.8793 75.3629 19.7372C75.255 19.5923 75.1072 19.473 74.9197 19.3793C74.7322 19.2855 74.4922 19.2386 74.1996 19.2386C73.799 19.2386 73.4652 19.331 73.1982 19.5156C72.9339 19.6974 72.8018 19.929 72.8018 20.2102C72.8018 20.4602 72.8928 20.6577 73.0746 20.8026C73.2564 20.9474 73.5405 21.0682 73.9268 21.1648L74.8984 21.4034C75.4837 21.5455 75.9197 21.7628 76.2067 22.0554C76.4936 22.3452 76.6371 22.7187 76.6371 23.1761C76.6371 23.5511 76.5291 23.8864 76.3132 24.1818C76.1001 24.4773 75.8018 24.7102 75.4183 24.8807C75.0348 25.0511 74.5888 25.1364 74.0803 25.1364C73.4126 25.1364 72.8601 24.9915 72.4226 24.7017C71.9851 24.4119 71.7081 23.9886 71.5916 23.4318L72.5462 23.1932C72.6371 23.5455 72.8089 23.8097 73.0618 23.9858C73.3175 24.1619 73.6513 24.25 74.0632 24.25C74.532 24.25 74.9041 24.1506 75.1797 23.9517C75.4581 23.75 75.5973 23.5085 75.5973 23.2273C75.5973 23 75.5178 22.8097 75.3587 22.6562C75.1996 22.5 74.9553 22.3835 74.6257 22.3068L73.5348 22.0511C72.9354 21.9091 72.495 21.6889 72.2138 21.3906C71.9354 21.0895 71.7962 20.7131 71.7962 20.2614C71.7962 19.892 71.8999 19.5653 72.1072 19.2812C72.3175 18.9972 72.603 18.7741 72.9638 18.6122C73.3274 18.4503 73.7393 18.3693 74.1996 18.3693C74.8473 18.3693 75.3558 18.5114 75.7251 18.7955C76.0973 19.0795 76.3615 19.4545 76.5178 19.9205ZM80.9975 18.4545V19.3068H77.6055V18.4545H80.9975ZM78.5941 16.8864H79.5998V23.125C79.5998 23.4091 79.641 23.6222 79.7234 23.7642C79.8086 23.9034 79.9165 23.9972 80.0472 24.0455C80.1808 24.0909 80.3214 24.1136 80.4691 24.1136C80.5799 24.1136 80.6708 24.108 80.7418 24.0966C80.8129 24.0824 80.8697 24.071 80.9123 24.0625L81.1168 24.9659C81.0487 24.9915 80.9535 25.017 80.8313 25.0426C80.7092 25.071 80.5543 25.0852 80.3668 25.0852C80.0827 25.0852 79.8043 25.0241 79.5316 24.902C79.2617 24.7798 79.0373 24.5938 78.8583 24.3438C78.6822 24.0938 78.5941 23.7784 78.5941 23.3977V16.8864ZM90.5217 19.9205L89.6183 20.1761C89.5614 20.0256 89.4776 19.8793 89.3668 19.7372C89.2589 19.5923 89.1112 19.473 88.9237 19.3793C88.7362 19.2855 88.4961 19.2386 88.2035 19.2386C87.8029 19.2386 87.4691 19.331 87.2021 19.5156C86.9379 19.6974 86.8058 19.929 86.8058 20.2102C86.8058 20.4602 86.8967 20.6577 87.0785 20.8026C87.2603 20.9474 87.5444 21.0682 87.9308 21.1648L88.9023 21.4034C89.4876 21.5455 89.9237 21.7628 90.2106 22.0554C90.4975 22.3452 90.641 22.7187 90.641 23.1761C90.641 23.5511 90.533 23.8864 90.3171 24.1818C90.104 24.4773 89.8058 24.7102 89.4222 24.8807C89.0387 25.0511 88.5927 25.1364 88.0842 25.1364C87.4165 25.1364 86.864 24.9915 86.4265 24.7017C85.989 24.4119 85.712 23.9886 85.5955 23.4318L86.5501 23.1932C86.641 23.5455 86.8129 23.8097 87.0657 23.9858C87.3214 24.1619 87.6552 24.25 88.0671 24.25C88.5359 24.25 88.908 24.1506 89.1836 23.9517C89.462 23.75 89.6012 23.5085 89.6012 23.2273C89.6012 23 89.5217 22.8097 89.3626 22.6562C89.2035 22.5 88.9592 22.3835 88.6296 22.3068L87.5387 22.0511C86.9393 21.9091 86.4989 21.6889 86.2177 21.3906C85.9393 21.0895 85.8001 20.7131 85.8001 20.2614C85.8001 19.892 85.9038 19.5653 86.1112 19.2812C86.3214 18.9972 86.6069 18.7741 86.9677 18.6122C87.3313 18.4503 87.7433 18.3693 88.2035 18.3693C88.8512 18.3693 89.3597 18.5114 89.729 18.7955C90.1012 19.0795 90.3654 19.4545 90.5217 19.9205ZM94.8991 25.1364C94.2685 25.1364 93.7244 24.9972 93.267 24.7188C92.8125 24.4375 92.4616 24.0455 92.2145 23.5426C91.9702 23.0369 91.848 22.4489 91.848 21.7784C91.848 21.108 91.9702 20.517 92.2145 20.0057C92.4616 19.4915 92.8054 19.0909 93.2457 18.804C93.6889 18.5142 94.206 18.3693 94.7969 18.3693C95.1378 18.3693 95.4744 18.4261 95.8068 18.5398C96.1392 18.6534 96.4418 18.8381 96.7145 19.0938C96.9872 19.3466 97.2045 19.6818 97.3665 20.0994C97.5284 20.517 97.6094 21.0312 97.6094 21.642V22.0682H92.5639V21.1989H96.5866C96.5866 20.8295 96.5128 20.5 96.3651 20.2102C96.2202 19.9205 96.0128 19.6918 95.7429 19.5241C95.4759 19.3565 95.1605 19.2727 94.7969 19.2727C94.3963 19.2727 94.0497 19.3722 93.7571 19.571C93.4673 19.767 93.2443 20.0227 93.0881 20.3381C92.9318 20.6534 92.8537 20.9915 92.8537 21.3523V21.9318C92.8537 22.4261 92.9389 22.8452 93.1094 23.1889C93.2827 23.5298 93.5227 23.7898 93.8295 23.9688C94.1364 24.1449 94.4929 24.233 94.8991 24.233C95.1634 24.233 95.402 24.196 95.6151 24.1222C95.831 24.0455 96.017 23.9318 96.1733 23.7812C96.3295 23.6278 96.4503 23.4375 96.5355 23.2102L97.5071 23.483C97.4048 23.8125 97.233 24.1023 96.9915 24.3523C96.75 24.5994 96.4517 24.7926 96.0966 24.9318C95.7415 25.0682 95.3423 25.1364 94.8991 25.1364ZM100.145 21.0625V25H99.1392V18.4545H100.111V19.4773H100.196C100.349 19.1449 100.582 18.8778 100.895 18.6761C101.207 18.4716 101.611 18.3693 102.105 18.3693C102.548 18.3693 102.936 18.4602 103.268 18.642C103.601 18.821 103.859 19.0938 104.044 19.4602C104.229 19.8239 104.321 20.2841 104.321 20.8409V25H103.315V20.9091C103.315 20.3949 103.182 19.9943 102.915 19.7074C102.648 19.4176 102.281 19.2727 101.815 19.2727C101.494 19.2727 101.207 19.3423 100.955 19.4815C100.705 19.6207 100.507 19.8239 100.362 20.0909C100.217 20.358 100.145 20.6818 100.145 21.0625ZM109.005 18.4545V19.3068H105.613V18.4545H109.005ZM106.602 16.8864H107.608V23.125C107.608 23.4091 107.649 23.6222 107.731 23.7642C107.816 23.9034 107.924 23.9972 108.055 24.0455C108.189 24.0909 108.329 24.1136 108.477 24.1136C108.588 24.1136 108.679 24.108 108.75 24.0966C108.821 24.0824 108.877 24.071 108.92 24.0625L109.125 24.9659C109.056 24.9915 108.961 25.017 108.839 25.0426C108.717 25.071 108.562 25.0852 108.375 25.0852C108.091 25.0852 107.812 25.0241 107.539 24.902C107.27 24.7798 107.045 24.5938 106.866 24.3438C106.69 24.0938 106.602 23.7784 106.602 23.3977V16.8864ZM114.541 27.4545C114.37 27.4545 114.218 27.4403 114.085 27.4119C113.951 27.3864 113.859 27.3608 113.808 27.3352L114.064 26.4489C114.308 26.5114 114.524 26.5341 114.711 26.517C114.899 26.5 115.065 26.4162 115.21 26.2656C115.358 26.1179 115.493 25.8778 115.615 25.5455L115.802 25.0341L113.382 18.4545H114.473L116.279 23.6705H116.348L118.154 18.4545H119.245L116.467 25.9545C116.342 26.2926 116.187 26.5724 116.002 26.794C115.818 27.0185 115.603 27.1847 115.359 27.2926C115.118 27.4006 114.845 27.4545 114.541 27.4545ZM122.998 25.1364C122.407 25.1364 121.888 24.9957 121.442 24.7145C120.999 24.4332 120.652 24.0398 120.402 23.5341C120.155 23.0284 120.032 22.4375 120.032 21.7614C120.032 21.0795 120.155 20.4844 120.402 19.9759C120.652 19.4673 120.999 19.0724 121.442 18.7912C121.888 18.5099 122.407 18.3693 122.998 18.3693C123.588 18.3693 124.105 18.5099 124.549 18.7912C124.995 19.0724 125.341 19.4673 125.588 19.9759C125.838 20.4844 125.963 21.0795 125.963 21.7614C125.963 22.4375 125.838 23.0284 125.588 23.5341C125.341 24.0398 124.995 24.4332 124.549 24.7145C124.105 24.9957 123.588 25.1364 122.998 25.1364ZM122.998 24.233C123.446 24.233 123.816 24.1179 124.105 23.8878C124.395 23.6577 124.61 23.3551 124.749 22.9801C124.888 22.6051 124.958 22.1989 124.958 21.7614C124.958 21.3239 124.888 20.9162 124.749 20.5384C124.61 20.1605 124.395 19.8551 124.105 19.6222C123.816 19.3892 123.446 19.2727 122.998 19.2727C122.549 19.2727 122.179 19.3892 121.89 19.6222C121.6 19.8551 121.385 20.1605 121.246 20.5384C121.107 20.9162 121.037 21.3239 121.037 21.7614C121.037 22.1989 121.107 22.6051 121.246 22.9801C121.385 23.3551 121.6 23.6577 121.89 23.8878C122.179 24.1179 122.549 24.233 122.998 24.233ZM131.624 22.3239V18.4545H132.629V25H131.624V23.892H131.555C131.402 24.2244 131.163 24.5071 130.839 24.7401C130.516 24.9702 130.107 25.0852 129.612 25.0852C129.203 25.0852 128.839 24.9957 128.521 24.8168C128.203 24.6349 127.953 24.3622 127.771 23.9986C127.589 23.6321 127.499 23.1705 127.499 22.6136V18.4545H128.504V22.5455C128.504 23.0227 128.638 23.4034 128.905 23.6875C129.175 23.9716 129.518 24.1136 129.936 24.1136C130.186 24.1136 130.44 24.0497 130.699 23.9219C130.96 23.794 131.179 23.598 131.355 23.3338C131.534 23.0696 131.624 22.733 131.624 22.3239ZM139.772 25.1534C139.358 25.1534 138.981 25.0753 138.643 24.919C138.305 24.7599 138.037 24.5312 137.838 24.233C137.639 23.9318 137.539 23.5682 137.539 23.142C137.539 22.767 137.613 22.4631 137.761 22.2301C137.909 21.9943 138.106 21.8097 138.353 21.6761C138.6 21.5426 138.873 21.4432 139.172 21.3778C139.473 21.3097 139.775 21.2557 140.079 21.2159C140.477 21.1648 140.799 21.1264 141.047 21.1009C141.297 21.0724 141.478 21.0256 141.592 20.9602C141.708 20.8949 141.767 20.7812 141.767 20.6193V20.5852C141.767 20.1648 141.652 19.8381 141.422 19.6051C141.194 19.3722 140.849 19.2557 140.386 19.2557C139.906 19.2557 139.529 19.3608 139.257 19.571C138.984 19.7812 138.792 20.0057 138.681 20.2443L137.727 19.9034C137.897 19.5057 138.125 19.196 138.409 18.9744C138.696 18.75 139.008 18.5937 139.346 18.5057C139.687 18.4148 140.022 18.3693 140.352 18.3693C140.562 18.3693 140.804 18.3949 141.076 18.446C141.352 18.4943 141.618 18.5952 141.873 18.7486C142.132 18.902 142.346 19.1335 142.517 19.4432C142.687 19.7528 142.772 20.1676 142.772 20.6875V25H141.767V24.1136H141.716C141.647 24.2557 141.534 24.4077 141.375 24.5696C141.216 24.7315 141.004 24.8693 140.74 24.983C140.475 25.0966 140.153 25.1534 139.772 25.1534ZM139.926 24.25C140.324 24.25 140.659 24.1719 140.931 24.0156C141.207 23.8594 141.414 23.6577 141.554 23.4105C141.696 23.1634 141.767 22.9034 141.767 22.6307V21.7102C141.724 21.7614 141.63 21.8082 141.485 21.8509C141.343 21.8906 141.179 21.9261 140.991 21.9574C140.806 21.9858 140.626 22.0114 140.45 22.0341C140.277 22.054 140.136 22.071 140.028 22.0852C139.767 22.1193 139.522 22.1747 139.295 22.2514C139.071 22.3253 138.889 22.4375 138.75 22.5881C138.613 22.7358 138.545 22.9375 138.545 23.1932C138.545 23.5426 138.674 23.8068 138.933 23.9858C139.194 24.1619 139.525 24.25 139.926 24.25ZM153.335 18.4545L150.915 25H149.892L147.472 18.4545H148.562L150.369 23.6705H150.438L152.244 18.4545H153.335ZM157.173 25.1364C156.542 25.1364 155.998 24.9972 155.54 24.7188C155.086 24.4375 154.735 24.0455 154.488 23.5426C154.244 23.0369 154.121 22.4489 154.121 21.7784C154.121 21.108 154.244 20.517 154.488 20.0057C154.735 19.4915 155.079 19.0909 155.519 18.804C155.962 18.5142 156.479 18.3693 157.07 18.3693C157.411 18.3693 157.748 18.4261 158.08 18.5398C158.413 18.6534 158.715 18.8381 158.988 19.0938C159.261 19.3466 159.478 19.6818 159.64 20.0994C159.802 20.517 159.883 21.0312 159.883 21.642V22.0682H154.837V21.1989H158.86C158.86 20.8295 158.786 20.5 158.638 20.2102C158.494 19.9205 158.286 19.6918 158.016 19.5241C157.749 19.3565 157.434 19.2727 157.07 19.2727C156.67 19.2727 156.323 19.3722 156.031 19.571C155.741 19.767 155.518 20.0227 155.362 20.3381C155.205 20.6534 155.127 20.9915 155.127 21.3523V21.9318C155.127 22.4261 155.212 22.8452 155.383 23.1889C155.556 23.5298 155.796 23.7898 156.103 23.9688C156.41 24.1449 156.766 24.233 157.173 24.233C157.437 24.233 157.675 24.196 157.888 24.1222C158.104 24.0455 158.29 23.9318 158.447 23.7812C158.603 23.6278 158.724 23.4375 158.809 23.2102L159.781 23.483C159.678 23.8125 159.506 24.1023 159.265 24.3523C159.023 24.5994 158.725 24.7926 158.37 24.9318C158.015 25.0682 157.616 25.1364 157.173 25.1364ZM161.413 25V18.4545H162.384V19.4432H162.452C162.572 19.1193 162.788 18.8565 163.1 18.6548C163.413 18.4531 163.765 18.3523 164.157 18.3523C164.231 18.3523 164.323 18.3537 164.434 18.3565C164.545 18.3594 164.629 18.3636 164.685 18.3693V19.392C164.651 19.3835 164.573 19.3707 164.451 19.3537C164.332 19.3338 164.205 19.3239 164.072 19.3239C163.754 19.3239 163.469 19.3906 163.219 19.5241C162.972 19.6548 162.776 19.8366 162.631 20.0696C162.489 20.2997 162.418 20.5625 162.418 20.858V25H161.413ZM165.877 25V18.4545H166.883V25H165.877ZM166.389 17.3636C166.193 17.3636 166.024 17.2969 165.882 17.1634C165.743 17.0298 165.673 16.8693 165.673 16.6818C165.673 16.4943 165.743 16.3338 165.882 16.2003C166.024 16.0668 166.193 16 166.389 16C166.585 16 166.752 16.0668 166.892 16.2003C167.034 16.3338 167.105 16.4943 167.105 16.6818C167.105 16.8693 167.034 17.0298 166.892 17.1634C166.752 17.2969 166.585 17.3636 166.389 17.3636ZM171.64 18.4545V19.3068H168.112V18.4545H171.64ZM169.168 25V17.5511C169.168 17.1761 169.256 16.8636 169.433 16.6136C169.609 16.3636 169.837 16.1761 170.119 16.0511C170.4 15.9261 170.697 15.8636 171.009 15.8636C171.256 15.8636 171.458 15.8835 171.614 15.9233C171.771 15.9631 171.887 16 171.964 16.0341L171.674 16.9034C171.623 16.8864 171.552 16.8651 171.461 16.8395C171.373 16.8139 171.256 16.8011 171.112 16.8011C170.779 16.8011 170.539 16.8849 170.391 17.0526C170.246 17.2202 170.174 17.4659 170.174 17.7898V25H169.168ZM173.049 25V18.4545H174.055V25H173.049ZM173.561 17.3636C173.365 17.3636 173.196 17.2969 173.054 17.1634C172.914 17.0298 172.845 16.8693 172.845 16.6818C172.845 16.4943 172.914 16.3338 173.054 16.2003C173.196 16.0668 173.365 16 173.561 16C173.757 16 173.924 16.0668 174.064 16.2003C174.206 16.3338 174.277 16.4943 174.277 16.6818C174.277 16.8693 174.206 17.0298 174.064 17.1634C173.924 17.2969 173.757 17.3636 173.561 17.3636ZM178.556 25.1364C177.942 25.1364 177.414 24.9915 176.971 24.7017C176.528 24.4119 176.187 24.0128 175.948 23.5043C175.71 22.9957 175.59 22.4148 175.59 21.7614C175.59 21.0966 175.712 20.5099 175.957 20.0014C176.204 19.4901 176.548 19.0909 176.988 18.804C177.431 18.5142 177.948 18.3693 178.539 18.3693C178.999 18.3693 179.414 18.4545 179.783 18.625C180.153 18.7955 180.455 19.0341 180.691 19.3409C180.927 19.6477 181.073 20.0057 181.13 20.4148H180.124C180.048 20.1165 179.877 19.8523 179.613 19.6222C179.352 19.3892 178.999 19.2727 178.556 19.2727C178.164 19.2727 177.82 19.375 177.525 19.5795C177.232 19.7812 177.004 20.0668 176.839 20.4361C176.677 20.8026 176.596 21.233 176.596 21.7273C176.596 22.233 176.675 22.6733 176.835 23.0483C176.996 23.4233 177.224 23.7145 177.516 23.9219C177.812 24.1293 178.158 24.233 178.556 24.233C178.817 24.233 179.055 24.1875 179.268 24.0966C179.481 24.0057 179.661 23.875 179.809 23.7045C179.957 23.5341 180.062 23.3295 180.124 23.0909H181.13C181.073 23.4773 180.933 23.8253 180.708 24.1349C180.487 24.4418 180.192 24.6861 179.826 24.8679C179.462 25.0469 179.039 25.1364 178.556 25.1364ZM184.526 25.1534C184.112 25.1534 183.735 25.0753 183.397 24.919C183.059 24.7599 182.79 24.5312 182.592 24.233C182.393 23.9318 182.293 23.5682 182.293 23.142C182.293 22.767 182.367 22.4631 182.515 22.2301C182.663 21.9943 182.86 21.8097 183.107 21.6761C183.354 21.5426 183.627 21.4432 183.925 21.3778C184.227 21.3097 184.529 21.2557 184.833 21.2159C185.231 21.1648 185.553 21.1264 185.8 21.1009C186.05 21.0724 186.232 21.0256 186.346 20.9602C186.462 20.8949 186.521 20.7812 186.521 20.6193V20.5852C186.521 20.1648 186.406 19.8381 186.175 19.6051C185.948 19.3722 185.603 19.2557 185.14 19.2557C184.66 19.2557 184.283 19.3608 184.011 19.571C183.738 19.7812 183.546 20.0057 183.435 20.2443L182.481 19.9034C182.651 19.5057 182.879 19.196 183.163 18.9744C183.45 18.75 183.762 18.5937 184.1 18.5057C184.441 18.4148 184.776 18.3693 185.106 18.3693C185.316 18.3693 185.558 18.3949 185.83 18.446C186.106 18.4943 186.371 18.5952 186.627 18.7486C186.886 18.902 187.1 19.1335 187.271 19.4432C187.441 19.7528 187.526 20.1676 187.526 20.6875V25H186.521V24.1136H186.469C186.401 24.2557 186.288 24.4077 186.129 24.5696C185.969 24.7315 185.758 24.8693 185.494 24.983C185.229 25.0966 184.907 25.1534 184.526 25.1534ZM184.68 24.25C185.077 24.25 185.413 24.1719 185.685 24.0156C185.961 23.8594 186.168 23.6577 186.308 23.4105C186.45 23.1634 186.521 22.9034 186.521 22.6307V21.7102C186.478 21.7614 186.384 21.8082 186.239 21.8509C186.097 21.8906 185.933 21.9261 185.745 21.9574C185.56 21.9858 185.38 22.0114 185.204 22.0341C185.031 22.054 184.89 22.071 184.782 22.0852C184.521 22.1193 184.276 22.1747 184.049 22.2514C183.825 22.3253 183.643 22.4375 183.504 22.5881C183.367 22.7358 183.299 22.9375 183.299 23.1932C183.299 23.5426 183.428 23.8068 183.687 23.9858C183.948 24.1619 184.279 24.25 184.68 24.25ZM192.208 18.4545V19.3068H188.816V18.4545H192.208ZM189.805 16.8864H190.811V23.125C190.811 23.4091 190.852 23.6222 190.934 23.7642C191.02 23.9034 191.127 23.9972 191.258 24.0455C191.392 24.0909 191.532 24.1136 191.68 24.1136C191.791 24.1136 191.882 24.108 191.953 24.0966C192.024 24.0824 192.081 24.071 192.123 24.0625L192.328 24.9659C192.26 24.9915 192.164 25.017 192.042 25.0426C191.92 25.071 191.765 25.0852 191.578 25.0852C191.294 25.0852 191.015 25.0241 190.743 24.902C190.473 24.7798 190.248 24.5938 190.069 24.3438C189.893 24.0938 189.805 23.7784 189.805 23.3977V16.8864ZM193.721 25V18.4545H194.727V25H193.721ZM194.233 17.3636C194.037 17.3636 193.868 17.2969 193.725 17.1634C193.586 17.0298 193.517 16.8693 193.517 16.6818C193.517 16.4943 193.586 16.3338 193.725 16.2003C193.868 16.0668 194.037 16 194.233 16C194.429 16 194.596 16.0668 194.735 16.2003C194.877 16.3338 194.949 16.4943 194.949 16.6818C194.949 16.8693 194.877 17.0298 194.735 17.1634C194.596 17.2969 194.429 17.3636 194.233 17.3636ZM199.228 25.1364C198.637 25.1364 198.119 24.9957 197.673 24.7145C197.229 24.4332 196.883 24.0398 196.633 23.5341C196.386 23.0284 196.262 22.4375 196.262 21.7614C196.262 21.0795 196.386 20.4844 196.633 19.9759C196.883 19.4673 197.229 19.0724 197.673 18.7912C198.119 18.5099 198.637 18.3693 199.228 18.3693C199.819 18.3693 200.336 18.5099 200.779 18.7912C201.225 19.0724 201.572 19.4673 201.819 19.9759C202.069 20.4844 202.194 21.0795 202.194 21.7614C202.194 22.4375 202.069 23.0284 201.819 23.5341C201.572 24.0398 201.225 24.4332 200.779 24.7145C200.336 24.9957 199.819 25.1364 199.228 25.1364ZM199.228 24.233C199.677 24.233 200.046 24.1179 200.336 23.8878C200.626 23.6577 200.84 23.3551 200.979 22.9801C201.119 22.6051 201.188 22.1989 201.188 21.7614C201.188 21.3239 201.119 20.9162 200.979 20.5384C200.84 20.1605 200.626 19.8551 200.336 19.6222C200.046 19.3892 199.677 19.2727 199.228 19.2727C198.779 19.2727 198.41 19.3892 198.12 19.6222C197.83 19.8551 197.616 20.1605 197.477 20.5384C197.337 20.9162 197.268 21.3239 197.268 21.7614C197.268 22.1989 197.337 22.6051 197.477 22.9801C197.616 23.3551 197.83 23.6577 198.12 23.8878C198.41 24.1179 198.779 24.233 199.228 24.233ZM204.735 21.0625V25H203.729V18.4545H204.701V19.4773H204.786C204.939 19.1449 205.172 18.8778 205.485 18.6761C205.797 18.4716 206.201 18.3693 206.695 18.3693C207.138 18.3693 207.526 18.4602 207.858 18.642C208.191 18.821 208.449 19.0938 208.634 19.4602C208.819 19.8239 208.911 20.2841 208.911 20.8409V25H207.905V20.9091C207.905 20.3949 207.772 19.9943 207.505 19.7074C207.238 19.4176 206.871 19.2727 206.405 19.2727C206.084 19.2727 205.797 19.3423 205.544 19.4815C205.294 19.6207 205.097 19.8239 204.952 20.0909C204.807 20.358 204.735 20.6818 204.735 21.0625ZM216.783 25.1364C216.169 25.1364 215.641 24.9915 215.197 24.7017C214.754 24.4119 214.413 24.0128 214.175 23.5043C213.936 22.9957 213.817 22.4148 213.817 21.7614C213.817 21.0966 213.939 20.5099 214.183 20.0014C214.43 19.4901 214.774 19.0909 215.214 18.804C215.658 18.5142 216.175 18.3693 216.766 18.3693C217.226 18.3693 217.641 18.4545 218.01 18.625C218.379 18.7955 218.682 19.0341 218.918 19.3409C219.153 19.6477 219.3 20.0057 219.357 20.4148H218.351C218.274 20.1165 218.104 19.8523 217.839 19.6222C217.578 19.3892 217.226 19.2727 216.783 19.2727C216.391 19.2727 216.047 19.375 215.751 19.5795C215.459 19.7812 215.23 20.0668 215.065 20.4361C214.903 20.8026 214.822 21.233 214.822 21.7273C214.822 22.233 214.902 22.6733 215.061 23.0483C215.223 23.4233 215.45 23.7145 215.743 23.9219C216.038 24.1293 216.385 24.233 216.783 24.233C217.044 24.233 217.281 24.1875 217.494 24.0966C217.707 24.0057 217.888 23.875 218.036 23.7045C218.183 23.5341 218.288 23.3295 218.351 23.0909H219.357C219.3 23.4773 219.159 23.8253 218.935 24.1349C218.713 24.4418 218.419 24.6861 218.053 24.8679C217.689 25.0469 217.266 25.1364 216.783 25.1364ZM223.486 25.1364C222.895 25.1364 222.376 24.9957 221.93 24.7145C221.487 24.4332 221.141 24.0398 220.891 23.5341C220.643 23.0284 220.52 22.4375 220.52 21.7614C220.52 21.0795 220.643 20.4844 220.891 19.9759C221.141 19.4673 221.487 19.0724 221.93 18.7912C222.376 18.5099 222.895 18.3693 223.486 18.3693C224.077 18.3693 224.594 18.5099 225.037 18.7912C225.483 19.0724 225.83 19.4673 226.077 19.9759C226.327 20.4844 226.452 21.0795 226.452 21.7614C226.452 22.4375 226.327 23.0284 226.077 23.5341C225.83 24.0398 225.483 24.4332 225.037 24.7145C224.594 24.9957 224.077 25.1364 223.486 25.1364ZM223.486 24.233C223.935 24.233 224.304 24.1179 224.594 23.8878C224.884 23.6577 225.098 23.3551 225.237 22.9801C225.376 22.6051 225.446 22.1989 225.446 21.7614C225.446 21.3239 225.376 20.9162 225.237 20.5384C225.098 20.1605 224.884 19.8551 224.594 19.6222C224.304 19.3892 223.935 19.2727 223.486 19.2727C223.037 19.2727 222.668 19.3892 222.378 19.6222C222.088 19.8551 221.874 20.1605 221.734 20.5384C221.595 20.9162 221.526 21.3239 221.526 21.7614C221.526 22.1989 221.595 22.6051 221.734 22.9801C221.874 23.3551 222.088 23.6577 222.378 23.8878C222.668 24.1179 223.037 24.233 223.486 24.233ZM230.458 25.1364C229.913 25.1364 229.431 24.9986 229.014 24.723C228.596 24.4446 228.27 24.0526 228.034 23.5469C227.798 23.0384 227.68 22.4375 227.68 21.7443C227.68 21.0568 227.798 20.4602 228.034 19.9545C228.27 19.4489 228.598 19.0582 229.018 18.7827C229.439 18.5071 229.924 18.3693 230.475 18.3693C230.902 18.3693 231.238 18.4403 231.485 18.5824C231.735 18.7216 231.926 18.8807 232.056 19.0597C232.19 19.2358 232.294 19.3807 232.368 19.4943H232.453V16.2727H233.458V25H232.487V23.9943H232.368C232.294 24.1136 232.189 24.2642 232.052 24.446C231.916 24.625 231.721 24.7855 231.468 24.9276C231.216 25.0668 230.879 25.1364 230.458 25.1364ZM230.595 24.233C230.998 24.233 231.339 24.1278 231.618 23.9176C231.896 23.7045 232.108 23.4105 232.252 23.0355C232.397 22.6577 232.47 22.2216 232.47 21.7273C232.47 21.2386 232.399 20.8111 232.257 20.4446C232.115 20.0753 231.904 19.7884 231.626 19.5838C231.348 19.3764 231.004 19.2727 230.595 19.2727C230.169 19.2727 229.814 19.3821 229.529 19.6009C229.248 19.8168 229.037 20.1108 228.895 20.483C228.755 20.8523 228.686 21.267 228.686 21.7273C228.686 22.1932 228.757 22.6165 228.899 22.9972C229.044 23.375 229.257 23.6761 229.538 23.9006C229.822 24.1222 230.174 24.233 230.595 24.233ZM238.184 25.1364C237.554 25.1364 237.01 24.9972 236.552 24.7188C236.098 24.4375 235.747 24.0455 235.5 23.5426C235.255 23.0369 235.133 22.4489 235.133 21.7784C235.133 21.108 235.255 20.517 235.5 20.0057C235.747 19.4915 236.091 19.0909 236.531 18.804C236.974 18.5142 237.491 18.3693 238.082 18.3693C238.423 18.3693 238.76 18.4261 239.092 18.5398C239.424 18.6534 239.727 18.8381 240 19.0938C240.272 19.3466 240.49 19.6818 240.652 20.0994C240.814 20.517 240.895 21.0312 240.895 21.642V22.0682H235.849V21.1989H239.872C239.872 20.8295 239.798 20.5 239.65 20.2102C239.505 19.9205 239.298 19.6918 239.028 19.5241C238.761 19.3565 238.446 19.2727 238.082 19.2727C237.681 19.2727 237.335 19.3722 237.042 19.571C236.752 19.767 236.529 20.0227 236.373 20.3381C236.217 20.6534 236.139 20.9915 236.139 21.3523V21.9318C236.139 22.4261 236.224 22.8452 236.395 23.1889C236.568 23.5298 236.808 23.7898 237.115 23.9688C237.422 24.1449 237.778 24.233 238.184 24.233C238.449 24.233 238.687 24.196 238.9 24.1222C239.116 24.0455 239.302 23.9318 239.458 23.7812C239.615 23.6278 239.735 23.4375 239.821 23.2102L240.792 23.483C240.69 23.8125 240.518 24.1023 240.277 24.3523C240.035 24.5994 239.737 24.7926 239.382 24.9318C239.027 25.0682 238.627 25.1364 238.184 25.1364ZM243.157 25.0682C242.947 25.0682 242.767 24.9929 242.616 24.8423C242.466 24.6918 242.39 24.5114 242.39 24.3011C242.39 24.0909 242.466 23.9105 242.616 23.7599C242.767 23.6094 242.947 23.5341 243.157 23.5341C243.368 23.5341 243.548 23.6094 243.699 23.7599C243.849 23.9105 243.924 24.0909 243.924 24.3011C243.924 24.4403 243.889 24.5682 243.818 24.6847C243.75 24.8011 243.657 24.8949 243.541 24.9659C243.427 25.0341 243.299 25.0682 243.157 25.0682ZM249.24 25V16.2727H252.189C252.874 16.2727 253.434 16.3963 253.868 16.6435C254.306 16.8878 254.63 17.2188 254.84 17.6364C255.05 18.054 255.155 18.5199 255.155 19.0341C255.155 19.5483 255.05 20.0156 254.84 20.4361C254.632 20.8565 254.311 21.1918 253.877 21.4418C253.442 21.6889 252.885 21.8125 252.206 21.8125H250.093V20.875H252.172C252.641 20.875 253.017 20.794 253.301 20.6321C253.586 20.4702 253.792 20.2514 253.919 19.9759C254.05 19.6974 254.115 19.3835 254.115 19.0341C254.115 18.6847 254.05 18.3722 253.919 18.0966C253.792 17.821 253.584 17.6051 253.297 17.4489C253.01 17.2898 252.63 17.2102 252.155 17.2102H250.297V25H249.24ZM257.727 16.2727V25H256.721V16.2727H257.727ZM262.313 25.1364C261.683 25.1364 261.138 24.9972 260.681 24.7188C260.227 24.4375 259.876 24.0455 259.629 23.5426C259.384 23.0369 259.262 22.4489 259.262 21.7784C259.262 21.108 259.384 20.517 259.629 20.0057C259.876 19.4915 260.219 19.0909 260.66 18.804C261.103 18.5142 261.62 18.3693 262.211 18.3693C262.552 18.3693 262.888 18.4261 263.221 18.5398C263.553 18.6534 263.856 18.8381 264.129 19.0938C264.401 19.3466 264.619 19.6818 264.781 20.0994C264.942 20.517 265.023 21.0312 265.023 21.642V22.0682H259.978V21.1989H264.001C264.001 20.8295 263.927 20.5 263.779 20.2102C263.634 19.9205 263.427 19.6918 263.157 19.5241C262.89 19.3565 262.575 19.2727 262.211 19.2727C261.81 19.2727 261.464 19.3722 261.171 19.571C260.881 19.767 260.658 20.0227 260.502 20.3381C260.346 20.6534 260.268 20.9915 260.268 21.3523V21.9318C260.268 22.4261 260.353 22.8452 260.523 23.1889C260.697 23.5298 260.937 23.7898 261.244 23.9688C261.55 24.1449 261.907 24.233 262.313 24.233C262.577 24.233 262.816 24.196 263.029 24.1222C263.245 24.0455 263.431 23.9318 263.587 23.7812C263.744 23.6278 263.864 23.4375 263.95 23.2102L264.921 23.483C264.819 23.8125 264.647 24.1023 264.406 24.3523C264.164 24.5994 263.866 24.7926 263.511 24.9318C263.156 25.0682 262.756 25.1364 262.313 25.1364ZM268.479 25.1534C268.065 25.1534 267.688 25.0753 267.35 24.919C267.012 24.7599 266.744 24.5312 266.545 24.233C266.346 23.9318 266.246 23.5682 266.246 23.142C266.246 22.767 266.32 22.4631 266.468 22.2301C266.616 21.9943 266.813 21.8097 267.06 21.6761C267.308 21.5426 267.58 21.4432 267.879 21.3778C268.18 21.3097 268.482 21.2557 268.786 21.2159C269.184 21.1648 269.506 21.1264 269.754 21.1009C270.004 21.0724 270.185 21.0256 270.299 20.9602C270.415 20.8949 270.474 20.7812 270.474 20.6193V20.5852C270.474 20.1648 270.359 19.8381 270.129 19.6051C269.901 19.3722 269.556 19.2557 269.093 19.2557C268.613 19.2557 268.237 19.3608 267.964 19.571C267.691 19.7812 267.499 20.0057 267.388 20.2443L266.434 19.9034C266.604 19.5057 266.832 19.196 267.116 18.9744C267.403 18.75 267.715 18.5937 268.053 18.5057C268.394 18.4148 268.729 18.3693 269.059 18.3693C269.269 18.3693 269.511 18.3949 269.783 18.446C270.059 18.4943 270.325 18.5952 270.58 18.7486C270.839 18.902 271.053 19.1335 271.224 19.4432C271.394 19.7528 271.479 20.1676 271.479 20.6875V25H270.474V24.1136H270.423C270.354 24.2557 270.241 24.4077 270.082 24.5696C269.923 24.7315 269.711 24.8693 269.447 24.983C269.183 25.0966 268.86 25.1534 268.479 25.1534ZM268.633 24.25C269.031 24.25 269.366 24.1719 269.638 24.0156C269.914 23.8594 270.121 23.6577 270.261 23.4105C270.403 23.1634 270.474 22.9034 270.474 22.6307V21.7102C270.431 21.7614 270.337 21.8082 270.192 21.8509C270.05 21.8906 269.886 21.9261 269.698 21.9574C269.513 21.9858 269.333 22.0114 269.157 22.0341C268.984 22.054 268.843 22.071 268.735 22.0852C268.474 22.1193 268.229 22.1747 268.002 22.2514C267.778 22.3253 267.596 22.4375 267.457 22.5881C267.32 22.7358 267.252 22.9375 267.252 23.1932C267.252 23.5426 267.381 23.8068 267.64 23.9858C267.901 24.1619 268.232 24.25 268.633 24.25ZM277.951 19.9205L277.048 20.1761C276.991 20.0256 276.907 19.8793 276.797 19.7372C276.689 19.5923 276.541 19.473 276.353 19.3793C276.166 19.2855 275.926 19.2386 275.633 19.2386C275.233 19.2386 274.899 19.331 274.632 19.5156C274.368 19.6974 274.235 19.929 274.235 20.2102C274.235 20.4602 274.326 20.6577 274.508 20.8026C274.69 20.9474 274.974 21.0682 275.36 21.1648L276.332 21.4034C276.917 21.5455 277.353 21.7628 277.64 22.0554C277.927 22.3452 278.071 22.7187 278.071 23.1761C278.071 23.5511 277.963 23.8864 277.747 24.1818C277.534 24.4773 277.235 24.7102 276.852 24.8807C276.468 25.0511 276.022 25.1364 275.514 25.1364C274.846 25.1364 274.294 24.9915 273.856 24.7017C273.419 24.4119 273.142 23.9886 273.025 23.4318L273.98 23.1932C274.071 23.5455 274.243 23.8097 274.495 23.9858C274.751 24.1619 275.085 24.25 275.497 24.25C275.966 24.25 276.338 24.1506 276.613 23.9517C276.892 23.75 277.031 23.5085 277.031 23.2273C277.031 23 276.951 22.8097 276.792 22.6562C276.633 22.5 276.389 22.3835 276.059 22.3068L274.968 22.0511C274.369 21.9091 273.929 21.6889 273.647 21.3906C273.369 21.0895 273.23 20.7131 273.23 20.2614C273.23 19.892 273.333 19.5653 273.541 19.2812C273.751 18.9972 274.037 18.7741 274.397 18.6122C274.761 18.4503 275.173 18.3693 275.633 18.3693C276.281 18.3693 276.789 18.5114 277.159 18.7955C277.531 19.0795 277.795 19.4545 277.951 19.9205ZM282.329 25.1364C281.698 25.1364 281.154 24.9972 280.697 24.7188C280.242 24.4375 279.891 24.0455 279.644 23.5426C279.4 23.0369 279.278 22.4489 279.278 21.7784C279.278 21.108 279.4 20.517 279.644 20.0057C279.891 19.4915 280.235 19.0909 280.675 18.804C281.119 18.5142 281.636 18.3693 282.227 18.3693C282.567 18.3693 282.904 18.4261 283.237 18.5398C283.569 18.6534 283.871 18.8381 284.144 19.0938C284.417 19.3466 284.634 19.6818 284.796 20.0994C284.958 20.517 285.039 21.0312 285.039 21.642V22.0682H279.994V21.1989H284.016C284.016 20.8295 283.942 20.5 283.795 20.2102C283.65 19.9205 283.442 19.6918 283.173 19.5241C282.906 19.3565 282.59 19.2727 282.227 19.2727C281.826 19.2727 281.479 19.3722 281.187 19.571C280.897 19.767 280.674 20.0227 280.518 20.3381C280.362 20.6534 280.283 20.9915 280.283 21.3523V21.9318C280.283 22.4261 280.369 22.8452 280.539 23.1889C280.712 23.5298 280.952 23.7898 281.259 23.9688C281.566 24.1449 281.923 24.233 282.329 24.233C282.593 24.233 282.832 24.196 283.045 24.1222C283.261 24.0455 283.447 23.9318 283.603 23.7812C283.759 23.6278 283.88 23.4375 283.965 23.2102L284.937 23.483C284.835 23.8125 284.663 24.1023 284.421 24.3523C284.18 24.5994 283.881 24.7926 283.526 24.9318C283.171 25.0682 282.772 25.1364 282.329 25.1364ZM292.603 25.1364C291.989 25.1364 291.461 24.9915 291.018 24.7017C290.575 24.4119 290.234 24.0128 289.995 23.5043C289.756 22.9957 289.637 22.4148 289.637 21.7614C289.637 21.0966 289.759 20.5099 290.004 20.0014C290.251 19.4901 290.594 19.0909 291.035 18.804C291.478 18.5142 291.995 18.3693 292.586 18.3693C293.046 18.3693 293.461 18.4545 293.83 18.625C294.2 18.7955 294.502 19.0341 294.738 19.3409C294.974 19.6477 295.12 20.0057 295.177 20.4148H294.171C294.094 20.1165 293.924 19.8523 293.66 19.6222C293.398 19.3892 293.046 19.2727 292.603 19.2727C292.211 19.2727 291.867 19.375 291.572 19.5795C291.279 19.7812 291.05 20.0668 290.886 20.4361C290.724 20.8026 290.643 21.233 290.643 21.7273C290.643 22.233 290.722 22.6733 290.881 23.0483C291.043 23.4233 291.271 23.7145 291.563 23.9219C291.859 24.1293 292.205 24.233 292.603 24.233C292.864 24.233 293.102 24.1875 293.315 24.0966C293.528 24.0057 293.708 23.875 293.856 23.7045C294.004 23.5341 294.109 23.3295 294.171 23.0909H295.177C295.12 23.4773 294.979 23.8253 294.755 24.1349C294.533 24.4418 294.239 24.6861 293.873 24.8679C293.509 25.0469 293.086 25.1364 292.603 25.1364ZM297.653 21.0625V25H296.647V16.2727H297.653V19.4773H297.738C297.891 19.1392 298.121 18.8707 298.428 18.6719C298.738 18.4702 299.15 18.3693 299.664 18.3693C300.11 18.3693 300.501 18.4588 300.836 18.6378C301.171 18.8139 301.431 19.0852 301.616 19.4517C301.803 19.8153 301.897 20.2784 301.897 20.8409V25H300.891V20.9091C300.891 20.3892 300.756 19.9872 300.487 19.7031C300.219 19.4162 299.849 19.2727 299.374 19.2727C299.045 19.2727 298.749 19.3423 298.488 19.4815C298.229 19.6207 298.025 19.8239 297.874 20.0909C297.727 20.358 297.653 20.6818 297.653 21.0625ZM306.481 25.1364C305.85 25.1364 305.306 24.9972 304.849 24.7188C304.395 24.4375 304.044 24.0455 303.797 23.5426C303.552 23.0369 303.43 22.4489 303.43 21.7784C303.43 21.108 303.552 20.517 303.797 20.0057C304.044 19.4915 304.387 19.0909 304.828 18.804C305.271 18.5142 305.788 18.3693 306.379 18.3693C306.72 18.3693 307.056 18.4261 307.389 18.5398C307.721 18.6534 308.024 18.8381 308.297 19.0938C308.569 19.3466 308.787 19.6818 308.949 20.0994C309.11 20.517 309.191 21.0312 309.191 21.642V22.0682H304.146V21.1989H308.169C308.169 20.8295 308.095 20.5 307.947 20.2102C307.802 19.9205 307.595 19.6918 307.325 19.5241C307.058 19.3565 306.743 19.2727 306.379 19.2727C305.978 19.2727 305.632 19.3722 305.339 19.571C305.049 19.767 304.826 20.0227 304.67 20.3381C304.514 20.6534 304.436 20.9915 304.436 21.3523V21.9318C304.436 22.4261 304.521 22.8452 304.691 23.1889C304.865 23.5298 305.105 23.7898 305.412 23.9688C305.718 24.1449 306.075 24.233 306.481 24.233C306.745 24.233 306.984 24.196 307.197 24.1222C307.413 24.0455 307.599 23.9318 307.755 23.7812C307.912 23.6278 308.032 23.4375 308.118 23.2102L309.089 23.483C308.987 23.8125 308.815 24.1023 308.574 24.3523C308.332 24.5994 308.034 24.7926 307.679 24.9318C307.324 25.0682 306.924 25.1364 306.481 25.1364ZM313.38 25.1364C312.767 25.1364 312.238 24.9915 311.795 24.7017C311.352 24.4119 311.011 24.0128 310.772 23.5043C310.534 22.9957 310.414 22.4148 310.414 21.7614C310.414 21.0966 310.537 20.5099 310.781 20.0014C311.028 19.4901 311.372 19.0909 311.812 18.804C312.255 18.5142 312.772 18.3693 313.363 18.3693C313.824 18.3693 314.238 18.4545 314.608 18.625C314.977 18.7955 315.279 19.0341 315.515 19.3409C315.751 19.6477 315.897 20.0057 315.954 20.4148H314.949C314.872 20.1165 314.701 19.8523 314.437 19.6222C314.176 19.3892 313.824 19.2727 313.38 19.2727C312.988 19.2727 312.645 19.375 312.349 19.5795C312.056 19.7812 311.828 20.0668 311.663 20.4361C311.501 20.8026 311.42 21.233 311.42 21.7273C311.42 22.233 311.5 22.6733 311.659 23.0483C311.821 23.4233 312.048 23.7145 312.341 23.9219C312.636 24.1293 312.983 24.233 313.38 24.233C313.642 24.233 313.879 24.1875 314.092 24.0966C314.305 24.0057 314.485 23.875 314.633 23.7045C314.781 23.5341 314.886 23.3295 314.949 23.0909H315.954C315.897 23.4773 315.757 23.8253 315.532 24.1349C315.311 24.4418 315.017 24.6861 314.65 24.8679C314.287 25.0469 313.863 25.1364 313.38 25.1364ZM318.362 22.6136L318.345 21.3693H318.549L321.413 18.4545H322.657L319.606 21.5398H319.521L318.362 22.6136ZM317.424 25V16.2727H318.43V25H317.424ZM321.583 25L319.027 21.7614L319.743 21.0625L322.862 25H321.583ZM41.5682 47.4545C41.3977 47.4545 41.2457 47.4403 41.1122 47.4119C40.9787 47.3864 40.8864 47.3608 40.8352 47.3352L41.0909 46.4489C41.3352 46.5114 41.5511 46.5341 41.7386 46.517C41.9261 46.5 42.0923 46.4162 42.2372 46.2656C42.3849 46.1179 42.5199 45.8778 42.642 45.5455L42.8295 45.0341L40.4091 38.4545H41.5L43.3068 43.6705H43.375L45.1818 38.4545H46.2727L43.4943 45.9545C43.3693 46.2926 43.2145 46.5724 43.0298 46.794C42.8452 47.0185 42.6307 47.1847 42.3864 47.2926C42.1449 47.4006 41.8722 47.4545 41.5682 47.4545ZM50.0249 45.1364C49.4339 45.1364 48.9155 44.9957 48.4695 44.7145C48.0263 44.4332 47.6797 44.0398 47.4297 43.5341C47.1825 43.0284 47.0589 42.4375 47.0589 41.7614C47.0589 41.0795 47.1825 40.4844 47.4297 39.9759C47.6797 39.4673 48.0263 39.0724 48.4695 38.7912C48.9155 38.5099 49.4339 38.3693 50.0249 38.3693C50.6158 38.3693 51.1328 38.5099 51.576 38.7912C52.022 39.0724 52.3686 39.4673 52.6158 39.9759C52.8658 40.4844 52.9908 41.0795 52.9908 41.7614C52.9908 42.4375 52.8658 43.0284 52.6158 43.5341C52.3686 44.0398 52.022 44.4332 51.576 44.7145C51.1328 44.9957 50.6158 45.1364 50.0249 45.1364ZM50.0249 44.233C50.4737 44.233 50.843 44.1179 51.1328 43.8878C51.4226 43.6577 51.6371 43.3551 51.7763 42.9801C51.9155 42.6051 51.9851 42.1989 51.9851 41.7614C51.9851 41.3239 51.9155 40.9162 51.7763 40.5384C51.6371 40.1605 51.4226 39.8551 51.1328 39.6222C50.843 39.3892 50.4737 39.2727 50.0249 39.2727C49.576 39.2727 49.2067 39.3892 48.9169 39.6222C48.6271 39.8551 48.4126 40.1605 48.2734 40.5384C48.1342 40.9162 48.0646 41.3239 48.0646 41.7614C48.0646 42.1989 48.1342 42.6051 48.2734 42.9801C48.4126 43.3551 48.6271 43.6577 48.9169 43.8878C49.2067 44.1179 49.576 44.233 50.0249 44.233ZM58.6509 42.3239V38.4545H59.6566V45H58.6509V43.892H58.5827C58.4293 44.2244 58.1907 44.5071 57.8668 44.7401C57.543 44.9702 57.1339 45.0852 56.6396 45.0852C56.2305 45.0852 55.8668 44.9957 55.5487 44.8168C55.2305 44.6349 54.9805 44.3622 54.7987 43.9986C54.6168 43.6321 54.5259 43.1705 54.5259 42.6136V38.4545H55.5316V42.5455C55.5316 43.0227 55.6651 43.4034 55.9322 43.6875C56.2021 43.9716 56.5458 44.1136 56.9634 44.1136C57.2134 44.1136 57.4677 44.0497 57.7262 43.9219C57.9876 43.794 58.2063 43.598 58.3825 43.3338C58.5614 43.0696 58.6509 42.733 58.6509 42.3239ZM61.4986 45V38.4545H62.4702V39.4432H62.5384C62.6577 39.1193 62.8736 38.8565 63.1861 38.6548C63.4986 38.4531 63.8509 38.3523 64.2429 38.3523C64.3168 38.3523 64.4091 38.3537 64.5199 38.3565C64.6307 38.3594 64.7145 38.3636 64.7713 38.3693V39.392C64.7372 39.3835 64.6591 39.3707 64.5369 39.3537C64.4176 39.3338 64.2912 39.3239 64.1577 39.3239C63.8395 39.3239 63.5554 39.3906 63.3054 39.5241C63.0582 39.6548 62.8622 39.8366 62.7173 40.0696C62.5753 40.2997 62.5043 40.5625 62.5043 40.858V45H61.4986ZM69.3384 45V38.4545H70.3441V45H69.3384ZM69.8498 37.3636C69.6538 37.3636 69.4847 37.2969 69.3427 37.1634C69.2035 37.0298 69.1339 36.8693 69.1339 36.6818C69.1339 36.4943 69.2035 36.3338 69.3427 36.2003C69.4847 36.0668 69.6538 36 69.8498 36C70.0458 36 70.2134 36.0668 70.3526 36.2003C70.4947 36.3338 70.5657 36.4943 70.5657 36.6818C70.5657 36.8693 70.4947 37.0298 70.3526 37.1634C70.2134 37.2969 70.0458 37.3636 69.8498 37.3636ZM73.1918 41.0625V45H72.1861V38.4545H73.1577V39.4773H73.2429C73.3963 39.1449 73.6293 38.8778 73.9418 38.6761C74.2543 38.4716 74.6577 38.3693 75.152 38.3693C75.5952 38.3693 75.983 38.4602 76.3153 38.642C76.6477 38.821 76.9063 39.0938 77.0909 39.4602C77.2756 39.8239 77.3679 40.2841 77.3679 40.8409V45H76.3622V40.9091C76.3622 40.3949 76.2287 39.9943 75.9616 39.7074C75.6946 39.4176 75.3281 39.2727 74.8622 39.2727C74.5412 39.2727 74.2543 39.3423 74.0014 39.4815C73.7514 39.6207 73.554 39.8239 73.4091 40.0909C73.2642 40.358 73.1918 40.6818 73.1918 41.0625ZM79.342 45V36.2727H80.3477V39.4943H80.4329C80.5067 39.3807 80.609 39.2358 80.7397 39.0597C80.8732 38.8807 81.0636 38.7216 81.3107 38.5824C81.5607 38.4403 81.8988 38.3693 82.3249 38.3693C82.8761 38.3693 83.3619 38.5071 83.7823 38.7827C84.2028 39.0582 84.5309 39.4489 84.7667 39.9545C85.0025 40.4602 85.1204 41.0568 85.1204 41.7443C85.1204 42.4375 85.0025 43.0384 84.7667 43.5469C84.5309 44.0526 84.2042 44.4446 83.7866 44.723C83.369 44.9986 82.8874 45.1364 82.342 45.1364C81.9215 45.1364 81.5849 45.0668 81.332 44.9276C81.0792 44.7855 80.8846 44.625 80.7482 44.446C80.6119 44.2642 80.5067 44.1136 80.4329 43.9943H80.3136V45H79.342ZM80.3306 41.7273C80.3306 42.2216 80.4031 42.6577 80.5479 43.0355C80.6928 43.4105 80.9045 43.7045 81.1829 43.9176C81.4613 44.1278 81.8022 44.233 82.2056 44.233C82.6261 44.233 82.9769 44.1222 83.2582 43.9006C83.5423 43.6761 83.7553 43.375 83.8974 42.9972C84.0423 42.6165 84.1147 42.1932 84.1147 41.7273C84.1147 41.267 84.0437 40.8523 83.9016 40.483C83.7624 40.1108 83.5508 39.8168 83.2667 39.6009C82.9854 39.3821 82.6317 39.2727 82.2056 39.2727C81.7965 39.2727 81.4528 39.3764 81.1744 39.5838C80.896 39.7884 80.6857 40.0753 80.5437 40.4446C80.4016 40.8111 80.3306 41.2386 80.3306 41.7273ZM89.3178 45.1364C88.7269 45.1364 88.2085 44.9957 87.7624 44.7145C87.3192 44.4332 86.9727 44.0398 86.7227 43.5341C86.4755 43.0284 86.3519 42.4375 86.3519 41.7614C86.3519 41.0795 86.4755 40.4844 86.7227 39.9759C86.9727 39.4673 87.3192 39.0724 87.7624 38.7912C88.2085 38.5099 88.7269 38.3693 89.3178 38.3693C89.9087 38.3693 90.4258 38.5099 90.869 38.7912C91.315 39.0724 91.6616 39.4673 91.9087 39.9759C92.1587 40.4844 92.2837 41.0795 92.2837 41.7614C92.2837 42.4375 92.1587 43.0284 91.9087 43.5341C91.6616 44.0398 91.315 44.4332 90.869 44.7145C90.4258 44.9957 89.9087 45.1364 89.3178 45.1364ZM89.3178 44.233C89.7667 44.233 90.136 44.1179 90.4258 43.8878C90.7156 43.6577 90.93 43.3551 91.0692 42.9801C91.2085 42.6051 91.2781 42.1989 91.2781 41.7614C91.2781 41.3239 91.2085 40.9162 91.0692 40.5384C90.93 40.1605 90.7156 39.8551 90.4258 39.6222C90.136 39.3892 89.7667 39.2727 89.3178 39.2727C88.869 39.2727 88.4996 39.3892 88.2099 39.6222C87.9201 39.8551 87.7056 40.1605 87.5664 40.5384C87.4272 40.9162 87.3576 41.3239 87.3576 41.7614C87.3576 42.1989 87.4272 42.6051 87.5664 42.9801C87.7056 43.3551 87.9201 43.6577 88.2099 43.8878C88.4996 44.1179 88.869 44.233 89.3178 44.233ZM94.2994 38.4545L95.8675 41.1307L97.4357 38.4545H98.5948L96.4812 41.7273L98.5948 45H97.4357L95.8675 42.4602L94.2994 45H93.1403L95.2198 41.7273L93.1403 38.4545H94.2994ZM105.331 45.1534C104.916 45.1534 104.54 45.0753 104.202 44.919C103.864 44.7599 103.595 44.5312 103.396 44.233C103.197 43.9318 103.098 43.5682 103.098 43.142C103.098 42.767 103.172 42.4631 103.32 42.2301C103.467 41.9943 103.665 41.8097 103.912 41.6761C104.159 41.5426 104.432 41.4432 104.73 41.3778C105.031 41.3097 105.334 41.2557 105.638 41.2159C106.036 41.1648 106.358 41.1264 106.605 41.1009C106.855 41.0724 107.037 41.0256 107.151 40.9602C107.267 40.8949 107.325 40.7812 107.325 40.6193V40.5852C107.325 40.1648 107.21 39.8381 106.98 39.6051C106.753 39.3722 106.408 39.2557 105.945 39.2557C105.464 39.2557 105.088 39.3608 104.815 39.571C104.543 39.7812 104.351 40.0057 104.24 40.2443L103.286 39.9034C103.456 39.5057 103.683 39.196 103.967 38.9744C104.254 38.75 104.567 38.5937 104.905 38.5057C105.246 38.4148 105.581 38.3693 105.911 38.3693C106.121 38.3693 106.362 38.3949 106.635 38.446C106.911 38.4943 107.176 38.5952 107.432 38.7486C107.69 38.902 107.905 39.1335 108.075 39.4432C108.246 39.7528 108.331 40.1676 108.331 40.6875V45H107.325V44.1136H107.274C107.206 44.2557 107.092 44.4077 106.933 44.5696C106.774 44.7315 106.563 44.8693 106.298 44.983C106.034 45.0966 105.712 45.1534 105.331 45.1534ZM105.484 44.25C105.882 44.25 106.217 44.1719 106.49 44.0156C106.766 43.8594 106.973 43.6577 107.112 43.4105C107.254 43.1634 107.325 42.9034 107.325 42.6307V41.7102C107.283 41.7614 107.189 41.8082 107.044 41.8509C106.902 41.8906 106.737 41.9261 106.55 41.9574C106.365 41.9858 106.185 42.0114 106.009 42.0341C105.835 42.054 105.695 42.071 105.587 42.0852C105.325 42.1193 105.081 42.1747 104.854 42.2514C104.629 42.3253 104.447 42.4375 104.308 42.5881C104.172 42.7358 104.104 42.9375 104.104 43.1932C104.104 43.5426 104.233 43.8068 104.491 43.9858C104.753 44.1619 105.084 44.25 105.484 44.25ZM111.172 41.0625V45H110.167V38.4545H111.138V39.4773H111.223C111.377 39.1449 111.61 38.8778 111.922 38.6761C112.235 38.4716 112.638 38.3693 113.132 38.3693C113.576 38.3693 113.963 38.4602 114.296 38.642C114.628 38.821 114.887 39.0938 115.071 39.4602C115.256 39.8239 115.348 40.2841 115.348 40.8409V45H114.343V40.9091C114.343 40.3949 114.209 39.9943 113.942 39.7074C113.675 39.4176 113.309 39.2727 112.843 39.2727C112.522 39.2727 112.235 39.3423 111.982 39.4815C111.732 39.6207 111.534 39.8239 111.39 40.0909C111.245 40.358 111.172 40.6818 111.172 41.0625ZM119.658 45.1364C119.112 45.1364 118.631 44.9986 118.213 44.723C117.795 44.4446 117.469 44.0526 117.233 43.5469C116.997 43.0384 116.879 42.4375 116.879 41.7443C116.879 41.0568 116.997 40.4602 117.233 39.9545C117.469 39.4489 117.797 39.0582 118.217 38.7827C118.638 38.5071 119.124 38.3693 119.675 38.3693C120.101 38.3693 120.438 38.4403 120.685 38.5824C120.935 38.7216 121.125 38.8807 121.256 39.0597C121.389 39.2358 121.493 39.3807 121.567 39.4943H121.652V36.2727H122.658V45H121.686V43.9943H121.567C121.493 44.1136 121.388 44.2642 121.251 44.446C121.115 44.625 120.92 44.7855 120.668 44.9276C120.415 45.0668 120.078 45.1364 119.658 45.1364ZM119.794 44.233C120.197 44.233 120.538 44.1278 120.817 43.9176C121.095 43.7045 121.307 43.4105 121.452 43.0355C121.597 42.6577 121.669 42.2216 121.669 41.7273C121.669 41.2386 121.598 40.8111 121.456 40.4446C121.314 40.0753 121.104 39.7884 120.825 39.5838C120.547 39.3764 120.203 39.2727 119.794 39.2727C119.368 39.2727 119.013 39.3821 118.729 39.6009C118.447 39.8168 118.236 40.1108 118.094 40.483C117.955 40.8523 117.885 41.267 117.885 41.7273C117.885 42.1932 117.956 42.6165 118.098 42.9972C118.243 43.375 118.456 43.6761 118.737 43.9006C119.021 44.1222 119.374 44.233 119.794 44.233ZM128.014 47.4545V38.4545H128.986V39.4943H129.105C129.179 39.3807 129.281 39.2358 129.412 39.0597C129.545 38.8807 129.736 38.7216 129.983 38.5824C130.233 38.4403 130.571 38.3693 130.997 38.3693C131.548 38.3693 132.034 38.5071 132.455 38.7827C132.875 39.0582 133.203 39.4489 133.439 39.9545C133.675 40.4602 133.793 41.0568 133.793 41.7443C133.793 42.4375 133.675 43.0384 133.439 43.5469C133.203 44.0526 132.876 44.4446 132.459 44.723C132.041 44.9986 131.56 45.1364 131.014 45.1364C130.594 45.1364 130.257 45.0668 130.004 44.9276C129.751 44.7855 129.557 44.625 129.42 44.446C129.284 44.2642 129.179 44.1136 129.105 43.9943H129.02V47.4545H128.014ZM129.003 41.7273C129.003 42.2216 129.075 42.6577 129.22 43.0355C129.365 43.4105 129.577 43.7045 129.855 43.9176C130.134 44.1278 130.474 44.233 130.878 44.233C131.298 44.233 131.649 44.1222 131.93 43.9006C132.214 43.6761 132.428 43.375 132.57 42.9972C132.714 42.6165 132.787 42.1932 132.787 41.7273C132.787 41.267 132.716 40.8523 132.574 40.483C132.435 40.1108 132.223 39.8168 131.939 39.6009C131.658 39.3821 131.304 39.2727 130.878 39.2727C130.469 39.2727 130.125 39.3764 129.847 39.5838C129.568 39.7884 129.358 40.0753 129.216 40.4446C129.074 40.8111 129.003 41.2386 129.003 41.7273ZM137.253 45.1534C136.838 45.1534 136.462 45.0753 136.124 44.919C135.786 44.7599 135.517 44.5312 135.318 44.233C135.119 43.9318 135.02 43.5682 135.02 43.142C135.02 42.767 135.094 42.4631 135.241 42.2301C135.389 41.9943 135.587 41.8097 135.834 41.6761C136.081 41.5426 136.354 41.4432 136.652 41.3778C136.953 41.3097 137.256 41.2557 137.56 41.2159C137.957 41.1648 138.28 41.1264 138.527 41.1009C138.777 41.0724 138.959 41.0256 139.072 40.9602C139.189 40.8949 139.247 40.7812 139.247 40.6193V40.5852C139.247 40.1648 139.132 39.8381 138.902 39.6051C138.675 39.3722 138.33 39.2557 137.866 39.2557C137.386 39.2557 137.01 39.3608 136.737 39.571C136.464 39.7812 136.273 40.0057 136.162 40.2443L135.207 39.9034C135.378 39.5057 135.605 39.196 135.889 38.9744C136.176 38.75 136.489 38.5937 136.827 38.5057C137.168 38.4148 137.503 38.3693 137.832 38.3693C138.043 38.3693 138.284 38.3949 138.557 38.446C138.832 38.4943 139.098 38.5952 139.354 38.7486C139.612 38.902 139.827 39.1335 139.997 39.4432C140.168 39.7528 140.253 40.1676 140.253 40.6875V45H139.247V44.1136H139.196C139.128 44.2557 139.014 44.4077 138.855 44.5696C138.696 44.7315 138.484 44.8693 138.22 44.983C137.956 45.0966 137.634 45.1534 137.253 45.1534ZM137.406 44.25C137.804 44.25 138.139 44.1719 138.412 44.0156C138.688 43.8594 138.895 43.6577 139.034 43.4105C139.176 43.1634 139.247 42.9034 139.247 42.6307V41.7102C139.205 41.7614 139.111 41.8082 138.966 41.8509C138.824 41.8906 138.659 41.9261 138.472 41.9574C138.287 41.9858 138.107 42.0114 137.93 42.0341C137.757 42.054 137.616 42.071 137.509 42.0852C137.247 42.1193 137.003 42.1747 136.776 42.2514C136.551 42.3253 136.369 42.4375 136.23 42.5881C136.094 42.7358 136.026 42.9375 136.026 43.1932C136.026 43.5426 136.155 43.8068 136.413 43.9858C136.675 44.1619 137.006 44.25 137.406 44.25ZM146.725 39.9205L145.821 40.1761C145.765 40.0256 145.681 39.8793 145.57 39.7372C145.462 39.5923 145.314 39.473 145.127 39.3793C144.939 39.2855 144.699 39.2386 144.407 39.2386C144.006 39.2386 143.672 39.331 143.405 39.5156C143.141 39.6974 143.009 39.929 143.009 40.2102C143.009 40.4602 143.1 40.6577 143.282 40.8026C143.463 40.9474 143.748 41.0682 144.134 41.1648L145.105 41.4034C145.691 41.5455 146.127 41.7628 146.414 42.0554C146.701 42.3452 146.844 42.7187 146.844 43.1761C146.844 43.5511 146.736 43.8864 146.52 44.1818C146.307 44.4773 146.009 44.7102 145.625 44.8807C145.242 45.0511 144.796 45.1364 144.287 45.1364C143.62 45.1364 143.067 44.9915 142.63 44.7017C142.192 44.4119 141.915 43.9886 141.799 43.4318L142.753 43.1932C142.844 43.5455 143.016 43.8097 143.269 43.9858C143.525 44.1619 143.858 44.25 144.27 44.25C144.739 44.25 145.111 44.1506 145.387 43.9517C145.665 43.75 145.804 43.5085 145.804 43.2273C145.804 43 145.725 42.8097 145.566 42.6562C145.407 42.5 145.162 42.3835 144.833 42.3068L143.742 42.0511C143.142 41.9091 142.702 41.6889 142.421 41.3906C142.142 41.0895 142.003 40.7131 142.003 40.2614C142.003 39.892 142.107 39.5653 142.314 39.2812C142.525 38.9972 142.81 38.7741 143.171 38.6122C143.534 38.4503 143.946 38.3693 144.407 38.3693C145.054 38.3693 145.563 38.5114 145.932 38.7955C146.304 39.0795 146.569 39.4545 146.725 39.9205ZM151.205 38.4545V39.3068H147.812V38.4545H151.205ZM148.801 36.8864H149.807V43.125C149.807 43.4091 149.848 43.6222 149.93 43.7642C150.016 43.9034 150.124 43.9972 150.254 44.0455C150.388 44.0909 150.528 44.1136 150.676 44.1136C150.787 44.1136 150.878 44.108 150.949 44.0966C151.02 44.0824 151.077 44.071 151.119 44.0625L151.324 44.9659C151.256 44.9915 151.161 45.017 151.038 45.0426C150.916 45.071 150.761 45.0852 150.574 45.0852C150.29 45.0852 150.011 45.0241 149.739 44.902C149.469 44.7798 149.244 44.5938 149.065 44.3438C148.889 44.0938 148.801 43.7784 148.801 43.3977V36.8864ZM155.391 45.1364C154.761 45.1364 154.217 44.9972 153.759 44.7188C153.305 44.4375 152.954 44.0455 152.707 43.5426C152.462 43.0369 152.34 42.4489 152.34 41.7784C152.34 41.108 152.462 40.517 152.707 40.0057C152.954 39.4915 153.298 39.0909 153.738 38.804C154.181 38.5142 154.698 38.3693 155.289 38.3693C155.63 38.3693 155.967 38.4261 156.299 38.5398C156.631 38.6534 156.934 38.8381 157.207 39.0938C157.479 39.3466 157.697 39.6818 157.859 40.0994C158.021 40.517 158.102 41.0312 158.102 41.642V42.0682H153.056V41.1989H157.079C157.079 40.8295 157.005 40.5 156.857 40.2102C156.712 39.9205 156.505 39.6918 156.235 39.5241C155.968 39.3565 155.653 39.2727 155.289 39.2727C154.888 39.2727 154.542 39.3722 154.249 39.571C153.96 39.767 153.737 40.0227 153.58 40.3381C153.424 40.6534 153.346 40.9915 153.346 41.3523V41.9318C153.346 42.4261 153.431 42.8452 153.602 43.1889C153.775 43.5298 154.015 43.7898 154.322 43.9688C154.629 44.1449 154.985 44.233 155.391 44.233C155.656 44.233 155.894 44.196 156.107 44.1222C156.323 44.0455 156.509 43.9318 156.665 43.7812C156.822 43.6278 156.942 43.4375 157.028 43.2102L157.999 43.483C157.897 43.8125 157.725 44.1023 157.484 44.3523C157.242 44.5994 156.944 44.7926 156.589 44.9318C156.234 45.0682 155.835 45.1364 155.391 45.1364ZM165.853 38.4545V39.3068H162.461V38.4545H165.853ZM163.45 36.8864H164.455V43.125C164.455 43.4091 164.496 43.6222 164.579 43.7642C164.664 43.9034 164.772 43.9972 164.903 44.0455C165.036 44.0909 165.177 44.1136 165.325 44.1136C165.435 44.1136 165.526 44.108 165.597 44.0966C165.668 44.0824 165.725 44.071 165.768 44.0625L165.972 44.9659C165.904 44.9915 165.809 45.017 165.687 45.0426C165.565 45.071 165.41 45.0852 165.222 45.0852C164.938 45.0852 164.66 45.0241 164.387 44.902C164.117 44.7798 163.893 44.5938 163.714 44.3438C163.538 44.0938 163.45 43.7784 163.45 43.3977V36.8864ZM168.512 41.0625V45H167.506V36.2727H168.512V39.4773H168.597C168.751 39.1392 168.981 38.8707 169.288 38.6719C169.597 38.4702 170.009 38.3693 170.523 38.3693C170.969 38.3693 171.36 38.4588 171.695 38.6378C172.031 38.8139 172.29 39.0852 172.475 39.4517C172.663 39.8153 172.756 40.2784 172.756 40.8409V45H171.751V40.9091C171.751 40.3892 171.616 39.9872 171.346 39.7031C171.079 39.4162 170.708 39.2727 170.234 39.2727C169.904 39.2727 169.609 39.3423 169.347 39.4815C169.089 39.6207 168.884 39.8239 168.734 40.0909C168.586 40.358 168.512 40.6818 168.512 41.0625ZM177.341 45.1364C176.71 45.1364 176.166 44.9972 175.708 44.7188C175.254 44.4375 174.903 44.0455 174.656 43.5426C174.412 43.0369 174.289 42.4489 174.289 41.7784C174.289 41.108 174.412 40.517 174.656 40.0057C174.903 39.4915 175.247 39.0909 175.687 38.804C176.13 38.5142 176.647 38.3693 177.238 38.3693C177.579 38.3693 177.916 38.4261 178.248 38.5398C178.581 38.6534 178.883 38.8381 179.156 39.0938C179.429 39.3466 179.646 39.6818 179.808 40.0994C179.97 40.517 180.051 41.0312 180.051 41.642V42.0682H175.005V41.1989H179.028C179.028 40.8295 178.954 40.5 178.806 40.2102C178.662 39.9205 178.454 39.6918 178.184 39.5241C177.917 39.3565 177.602 39.2727 177.238 39.2727C176.838 39.2727 176.491 39.3722 176.199 39.571C175.909 39.767 175.686 40.0227 175.529 40.3381C175.373 40.6534 175.295 40.9915 175.295 41.3523V41.9318C175.295 42.4261 175.38 42.8452 175.551 43.1889C175.724 43.5298 175.964 43.7898 176.271 43.9688C176.578 44.1449 176.934 44.233 177.341 44.233C177.605 44.233 177.843 44.196 178.056 44.1222C178.272 44.0455 178.458 43.9318 178.615 43.7812C178.771 43.6278 178.892 43.4375 178.977 43.2102L179.949 43.483C179.846 43.8125 179.674 44.1023 179.433 44.3523C179.191 44.5994 178.893 44.7926 178.538 44.9318C178.183 45.0682 177.784 45.1364 177.341 45.1364ZM187.615 45.1364C187.001 45.1364 186.473 44.9915 186.029 44.7017C185.586 44.4119 185.245 44.0128 185.007 43.5043C184.768 42.9957 184.649 42.4148 184.649 41.7614C184.649 41.0966 184.771 40.5099 185.015 40.0014C185.262 39.4901 185.606 39.0909 186.047 38.804C186.49 38.5142 187.007 38.3693 187.598 38.3693C188.058 38.3693 188.473 38.4545 188.842 38.625C189.211 38.7955 189.514 39.0341 189.75 39.3409C189.985 39.6477 190.132 40.0057 190.189 40.4148H189.183C189.106 40.1165 188.936 39.8523 188.672 39.6222C188.41 39.3892 188.058 39.2727 187.615 39.2727C187.223 39.2727 186.879 39.375 186.583 39.5795C186.291 39.7812 186.062 40.0668 185.897 40.4361C185.735 40.8026 185.654 41.233 185.654 41.7273C185.654 42.233 185.734 42.6733 185.893 43.0483C186.055 43.4233 186.282 43.7145 186.575 43.9219C186.87 44.1293 187.217 44.233 187.615 44.233C187.876 44.233 188.113 44.1875 188.326 44.0966C188.539 44.0057 188.72 43.875 188.868 43.7045C189.015 43.5341 189.12 43.3295 189.183 43.0909H190.189C190.132 43.4773 189.991 43.8253 189.767 44.1349C189.545 44.4418 189.251 44.6861 188.885 44.8679C188.521 45.0469 188.098 45.1364 187.615 45.1364ZM194.318 45.1364C193.727 45.1364 193.208 44.9957 192.762 44.7145C192.319 44.4332 191.973 44.0398 191.723 43.5341C191.475 43.0284 191.352 42.4375 191.352 41.7614C191.352 41.0795 191.475 40.4844 191.723 39.9759C191.973 39.4673 192.319 39.0724 192.762 38.7912C193.208 38.5099 193.727 38.3693 194.318 38.3693C194.909 38.3693 195.426 38.5099 195.869 38.7912C196.315 39.0724 196.662 39.4673 196.909 39.9759C197.159 40.4844 197.284 41.0795 197.284 41.7614C197.284 42.4375 197.159 43.0284 196.909 43.5341C196.662 44.0398 196.315 44.4332 195.869 44.7145C195.426 44.9957 194.909 45.1364 194.318 45.1364ZM194.318 44.233C194.767 44.233 195.136 44.1179 195.426 43.8878C195.716 43.6577 195.93 43.3551 196.069 42.9801C196.208 42.6051 196.278 42.1989 196.278 41.7614C196.278 41.3239 196.208 40.9162 196.069 40.5384C195.93 40.1605 195.716 39.8551 195.426 39.6222C195.136 39.3892 194.767 39.2727 194.318 39.2727C193.869 39.2727 193.5 39.3892 193.21 39.6222C192.92 39.8551 192.706 40.1605 192.566 40.5384C192.427 40.9162 192.358 41.3239 192.358 41.7614C192.358 42.1989 192.427 42.6051 192.566 42.9801C192.706 43.3551 192.92 43.6577 193.21 43.8878C193.5 44.1179 193.869 44.233 194.318 44.233ZM201.29 45.1364C200.745 45.1364 200.263 44.9986 199.846 44.723C199.428 44.4446 199.102 44.0526 198.866 43.5469C198.63 43.0384 198.512 42.4375 198.512 41.7443C198.512 41.0568 198.63 40.4602 198.866 39.9545C199.102 39.4489 199.43 39.0582 199.85 38.7827C200.271 38.5071 200.756 38.3693 201.308 38.3693C201.734 38.3693 202.07 38.4403 202.317 38.5824C202.567 38.7216 202.758 38.8807 202.888 39.0597C203.022 39.2358 203.126 39.3807 203.2 39.4943H203.285V36.2727H204.29V45H203.319V43.9943H203.2C203.126 44.1136 203.021 44.2642 202.884 44.446C202.748 44.625 202.553 44.7855 202.3 44.9276C202.048 45.0668 201.711 45.1364 201.29 45.1364ZM201.427 44.233C201.83 44.233 202.171 44.1278 202.45 43.9176C202.728 43.7045 202.94 43.4105 203.085 43.0355C203.229 42.6577 203.302 42.2216 203.302 41.7273C203.302 41.2386 203.231 40.8111 203.089 40.4446C202.947 40.0753 202.737 39.7884 202.458 39.5838C202.18 39.3764 201.836 39.2727 201.427 39.2727C201.001 39.2727 200.646 39.3821 200.362 39.6009C200.08 39.8168 199.869 40.1108 199.727 40.483C199.587 40.8523 199.518 41.267 199.518 41.7273C199.518 42.1932 199.589 42.6165 199.731 42.9972C199.876 43.375 200.089 43.6761 200.37 43.9006C200.654 44.1222 201.006 44.233 201.427 44.233ZM209.016 45.1364C208.386 45.1364 207.842 44.9972 207.384 44.7188C206.93 44.4375 206.579 44.0455 206.332 43.5426C206.087 43.0369 205.965 42.4489 205.965 41.7784C205.965 41.108 206.087 40.517 206.332 40.0057C206.579 39.4915 206.923 39.0909 207.363 38.804C207.806 38.5142 208.323 38.3693 208.914 38.3693C209.255 38.3693 209.592 38.4261 209.924 38.5398C210.256 38.6534 210.559 38.8381 210.832 39.0938C211.104 39.3466 211.322 39.6818 211.484 40.0994C211.646 40.517 211.727 41.0312 211.727 41.642V42.0682H206.681V41.1989H210.704C210.704 40.8295 210.63 40.5 210.482 40.2102C210.337 39.9205 210.13 39.6918 209.86 39.5241C209.593 39.3565 209.278 39.2727 208.914 39.2727C208.513 39.2727 208.167 39.3722 207.874 39.571C207.585 39.767 207.362 40.0227 207.205 40.3381C207.049 40.6534 206.971 40.9915 206.971 41.3523V41.9318C206.971 42.4261 207.056 42.8452 207.227 43.1889C207.4 43.5298 207.64 43.7898 207.947 43.9688C208.254 44.1449 208.61 44.233 209.016 44.233C209.281 44.233 209.519 44.196 209.732 44.1222C209.948 44.0455 210.134 43.9318 210.29 43.7812C210.447 43.6278 210.567 43.4375 210.653 43.2102L211.624 43.483C211.522 43.8125 211.35 44.1023 211.109 44.3523C210.867 44.5994 210.569 44.7926 210.214 44.9318C209.859 45.0682 209.46 45.1364 209.016 45.1364ZM216.768 45V36.2727H217.773V39.4943H217.859C217.933 39.3807 218.035 39.2358 218.165 39.0597C218.299 38.8807 218.489 38.7216 218.737 38.5824C218.987 38.4403 219.325 38.3693 219.751 38.3693C220.302 38.3693 220.788 38.5071 221.208 38.7827C221.629 39.0582 221.957 39.4489 222.192 39.9545C222.428 40.4602 222.546 41.0568 222.546 41.7443C222.546 42.4375 222.428 43.0384 222.192 43.5469C221.957 44.0526 221.63 44.4446 221.212 44.723C220.795 44.9986 220.313 45.1364 219.768 45.1364C219.347 45.1364 219.011 45.0668 218.758 44.9276C218.505 44.7855 218.31 44.625 218.174 44.446C218.038 44.2642 217.933 44.1136 217.859 43.9943H217.739V45H216.768ZM217.756 41.7273C217.756 42.2216 217.829 42.6577 217.974 43.0355C218.119 43.4105 218.33 43.7045 218.609 43.9176C218.887 44.1278 219.228 44.233 219.631 44.233C220.052 44.233 220.403 44.1222 220.684 43.9006C220.968 43.6761 221.181 43.375 221.323 42.9972C221.468 42.6165 221.54 42.1932 221.54 41.7273C221.54 41.267 221.469 40.8523 221.327 40.483C221.188 40.1108 220.977 39.8168 220.692 39.6009C220.411 39.3821 220.058 39.2727 219.631 39.2727C219.222 39.2727 218.879 39.3764 218.6 39.5838C218.322 39.7884 218.112 40.0753 217.969 40.4446C217.827 40.8111 217.756 41.2386 217.756 41.7273ZM226.829 45.1364C226.198 45.1364 225.654 44.9972 225.197 44.7188C224.742 44.4375 224.391 44.0455 224.144 43.5426C223.9 43.0369 223.778 42.4489 223.778 41.7784C223.778 41.108 223.9 40.517 224.144 40.0057C224.391 39.4915 224.735 39.0909 225.175 38.804C225.619 38.5142 226.136 38.3693 226.727 38.3693C227.067 38.3693 227.404 38.4261 227.737 38.5398C228.069 38.6534 228.371 38.8381 228.644 39.0938C228.917 39.3466 229.134 39.6818 229.296 40.0994C229.458 40.517 229.539 41.0312 229.539 41.642V42.0682H224.494V41.1989H228.516C228.516 40.8295 228.442 40.5 228.295 40.2102C228.15 39.9205 227.942 39.6918 227.673 39.5241C227.406 39.3565 227.09 39.2727 226.727 39.2727C226.326 39.2727 225.979 39.3722 225.687 39.571C225.397 39.767 225.174 40.0227 225.018 40.3381C224.862 40.6534 224.783 40.9915 224.783 41.3523V41.9318C224.783 42.4261 224.869 42.8452 225.039 43.1889C225.212 43.5298 225.452 43.7898 225.759 43.9688C226.066 44.1449 226.423 44.233 226.829 44.233C227.093 44.233 227.332 44.196 227.545 44.1222C227.761 44.0455 227.947 43.9318 228.103 43.7812C228.259 43.6278 228.38 43.4375 228.465 43.2102L229.437 43.483C229.335 43.8125 229.163 44.1023 228.921 44.3523C228.68 44.5994 228.381 44.7926 228.026 44.9318C227.671 45.0682 227.272 45.1364 226.829 45.1364ZM232.075 36.2727V45H231.069V36.2727H232.075ZM236.576 45.1364C235.985 45.1364 235.466 44.9957 235.02 44.7145C234.577 44.4332 234.23 44.0398 233.98 43.5341C233.733 43.0284 233.61 42.4375 233.61 41.7614C233.61 41.0795 233.733 40.4844 233.98 39.9759C234.23 39.4673 234.577 39.0724 235.02 38.7912C235.466 38.5099 235.985 38.3693 236.576 38.3693C237.167 38.3693 237.684 38.5099 238.127 38.7912C238.573 39.0724 238.919 39.4673 239.167 39.9759C239.417 40.4844 239.542 41.0795 239.542 41.7614C239.542 42.4375 239.417 43.0284 239.167 43.5341C238.919 44.0398 238.573 44.4332 238.127 44.7145C237.684 44.9957 237.167 45.1364 236.576 45.1364ZM236.576 44.233C237.025 44.233 237.394 44.1179 237.684 43.8878C237.973 43.6577 238.188 43.3551 238.327 42.9801C238.466 42.6051 238.536 42.1989 238.536 41.7614C238.536 41.3239 238.466 40.9162 238.327 40.5384C238.188 40.1605 237.973 39.8551 237.684 39.6222C237.394 39.3892 237.025 39.2727 236.576 39.2727C236.127 39.2727 235.757 39.3892 235.468 39.6222C235.178 39.8551 234.963 40.1605 234.824 40.5384C234.685 40.9162 234.615 41.3239 234.615 41.7614C234.615 42.1989 234.685 42.6051 234.824 42.9801C234.963 43.3551 235.178 43.6577 235.468 43.8878C235.757 44.1179 236.127 44.233 236.576 44.233ZM242.337 45L240.343 38.4545H241.4L242.814 43.4659H242.882L244.28 38.4545H245.354L246.735 43.4489H246.803L248.218 38.4545H249.275L247.28 45H246.292L244.86 39.9716H244.757L243.326 45H242.337ZM250.446 45.0682C250.236 45.0682 250.056 44.9929 249.905 44.8423C249.755 44.6918 249.679 44.5114 249.679 44.3011C249.679 44.0909 249.755 43.9105 249.905 43.7599C250.056 43.6094 250.236 43.5341 250.446 43.5341C250.657 43.5341 250.837 43.6094 250.988 43.7599C251.138 43.9105 251.213 44.0909 251.213 44.3011C251.213 44.4403 251.178 44.5682 251.107 44.6847C251.039 44.8011 250.946 44.8949 250.83 44.9659C250.716 45.0341 250.588 45.0682 250.446 45.0682Z" fill="#112F82"/>
</g>
<defs>
<filter id="filter0_d_166_4304" x="0" y="0" width="364" height="64" filterUnits="userSpaceOnUse" color-interpolation-filters="sRGB">
<feFlood flood-opacity="0" result="BackgroundImageFix"/>
<feColorMatrix in="SourceAlpha" type="matrix" values="0 0 0 0 0 0 0 0 0 0 0 0 0 0 0 0 0 0 127 0" result="hardAlpha"/>
<feOffset dy="1"/>
<feGaussianBlur stdDeviation="1"/>
<feColorMatrix type="matrix" values="0 0 0 0 0.0627451 0 0 0 0 0.0941176 0 0 0 0 0.156863 0 0 0 0.05 0"/>
<feBlend mode="normal" in2="BackgroundImageFix" result="effect1_dropShadow_166_4304"/>
<feBlend mode="normal" in="SourceGraphic" in2="effect1_dropShadow_166_4304" result="shape"/>
</filter>
</defs>
</svg>
