<svg width="80" height="80" viewBox="0 0 80 80" fill="none" xmlns="http://www.w3.org/2000/svg">
<g id="Frame">
<path id="Vector" d="M65.2768 9.46795C63.0837 8.48174 60.5734 8.10933 57.7458 8.34381H57.7251C54.4147 8.62657 50.8699 9.85416 47.0975 12.0266C43.3251 14.2059 39.7734 17.0748 36.4492 20.6404C33.132 24.199 30.2423 28.1024 27.7872 32.3369C26.2009 35.068 24.8285 37.8886 23.6698 40.7852C23.0285 42.3852 22.456 44.0059 21.9457 45.6542C21.2629 47.8611 20.7458 50.0266 20.3872 52.1645C19.994 54.5231 19.8009 56.8404 19.8009 59.1162C19.8009 61.3921 20.0147 63.6266 20.4492 65.5921C20.8768 67.5645 21.4837 69.316 22.2561 70.8539L12.4078 65.93L8.46298 63.9576C7.69057 62.4197 7.08367 60.668 6.65609 58.6955C6.22161 56.73 6.00781 54.5714 6.00781 52.2197C6.00781 47.8886 6.71815 43.399 8.15263 38.7576C9.58712 34.1231 11.532 29.6817 13.994 25.4404C16.4492 21.2059 19.3389 17.3024 22.6561 13.7438C25.9803 10.1783 29.532 7.30933 33.3044 5.13002C37.0837 2.95071 40.6354 1.72312 43.9527 1.44726C47.2768 1.1714 50.1665 1.73692 52.6216 3.13692L65.2768 9.46795Z" stroke="black" stroke-width="1.37931" stroke-linecap="round" stroke-linejoin="round"/>
<path id="Vector_2" d="M28.2059 76.9165L15.3577 70.4613C13.868 69.8337 12.5232 68.9438 11.3301 67.7852L18.4404 71.3441H18.4542L25.1232 74.682C26.0611 75.5923 27.0887 76.3372 28.2059 76.9165Z" stroke="black" stroke-width="1.37931" stroke-linecap="round" stroke-linejoin="round"/>
<path id="Vector_3" d="M54.1991 32.9922L53.9509 33.137L49.8268 35.5094C49.0544 35.9577 48.4061 36.0336 47.882 35.737C47.5234 35.5301 47.2888 35.1853 47.1785 34.7025C47.1233 34.4819 47.0957 34.2336 47.0957 33.9577C47.0957 33.0681 47.3578 32.1715 47.882 31.2681C48.0682 30.9508 48.2681 30.6612 48.4819 30.3991C48.5371 30.337 48.5923 30.2681 48.6405 30.2129L49.6475 30.7163L54.1991 32.9922Z" stroke="black" stroke-width="1.37931" stroke-linecap="round" stroke-linejoin="round"/>
<path id="Vector_4" d="M74.4008 27.5921C74.4008 31.9231 73.6835 36.4127 72.249 41.0472C70.8214 45.6885 68.8698 50.1299 66.4146 54.3644C63.9594 58.6058 61.0698 62.5024 57.7456 66.0679C54.4284 69.6262 50.8766 72.5021 47.0973 74.6814C42.5525 77.309 38.3732 78.571 34.5732 78.4676C32.2215 78.4055 30.118 77.8952 28.2629 76.9434L28.2077 76.9158C27.0904 76.3365 26.0629 75.5917 25.1249 74.6814L27.587 70.4331L36.318 55.3782L42.5938 57.7782C43.1386 57.9851 43.7663 57.861 44.4697 57.399C45.1801 56.9438 45.7801 56.2816 46.2835 55.4196L58.0215 35.1713V40.1783C58.0215 41.0679 58.2835 41.661 58.8077 41.9576C59.3318 42.261 59.9801 42.1851 60.7525 41.7368C61.5249 41.2885 62.1732 40.6196 62.6973 39.7162C63.2215 38.8127 63.4835 37.9161 63.4835 37.0265V24.4954C63.4835 23.6058 63.2215 23.0196 62.6973 22.7161C62.1732 22.4196 61.5249 22.4955 60.7525 22.9369L60.5387 23.0609L49.8284 29.2472C49.7801 29.2747 49.7318 29.3024 49.6904 29.3369C49.3111 29.5645 48.9594 29.861 48.6422 30.2127C48.5939 30.2679 48.5387 30.3368 48.4835 30.3989C48.2698 30.6609 48.0697 30.9507 47.8835 31.2679C47.3594 32.1714 47.0973 33.0678 47.0973 33.9575C47.0973 34.2334 47.1249 34.4817 47.1801 34.7024C47.2904 35.1852 47.5249 35.53 47.8835 35.7369C48.4077 36.0334 49.056 35.9575 49.8284 35.5092L53.9525 33.1368L54.2008 32.9921L54.0766 33.1989L44.2353 50.1783L37.9525 47.7713C37.4077 47.5644 36.7801 47.6886 36.0766 48.1507C35.3732 48.6127 34.7663 49.2748 34.2697 50.1369L32.3732 53.4058L22.256 70.8538C21.4835 69.3158 20.8766 67.5645 20.4491 65.5921C20.0146 63.6265 19.8008 61.4678 19.8008 59.1161C19.8008 56.7644 19.9939 54.5231 20.387 52.1645C20.7456 50.0265 21.2628 47.861 21.9455 45.6541C22.4559 44.0058 23.0283 42.3852 23.6697 40.7852C24.8283 37.8886 26.2008 35.0679 27.787 32.3369C30.2422 28.1024 33.1318 24.1989 36.4491 20.6403C39.7732 17.0748 43.3249 14.2058 47.0973 12.0265C50.8697 9.85405 54.4146 8.62653 57.7249 8.34378H57.7456C60.5732 8.10929 63.0835 8.48171 65.2766 9.46791C65.6629 9.63343 66.0422 9.81957 66.4146 10.0334C68.8698 11.4403 70.8214 13.6265 72.249 16.6127C73.6835 19.5989 74.4008 23.2541 74.4008 27.5921Z" stroke="black" stroke-width="1.37931" stroke-linecap="round" stroke-linejoin="round"/>
<path id="Vector_5" d="M63.482 24.4954V37.0265C63.482 37.9161 63.2199 38.8127 62.6958 39.7161C62.1717 40.6196 61.5234 41.2885 60.751 41.7368C59.9786 42.1851 59.3303 42.2609 58.8061 41.9575C58.282 41.6609 58.02 41.0678 58.02 40.1782V35.1713L54.0751 33.1989L54.1992 32.992L49.6476 30.7161L48.6406 30.2127C48.9579 29.8609 49.3096 29.5644 49.6889 29.3368C49.7303 29.3023 49.7786 29.2747 49.8269 29.2472L60.5372 23.0609L60.751 22.9368C61.5234 22.4954 62.1717 22.4196 62.6958 22.7161C63.2199 23.0196 63.482 23.6058 63.482 24.4954Z" stroke="black" stroke-width="1.37931" stroke-linecap="round" stroke-linejoin="round"/>
<path id="Vector_6" d="M58.0213 35.1711L46.2834 55.4194C45.7799 56.2815 45.1799 56.9436 44.4696 57.3987C43.7662 57.8608 43.1386 57.9849 42.5937 57.778L36.3179 55.378L32.373 53.4056L34.2696 50.1367C34.7662 49.2746 35.373 48.6125 36.0765 48.1505C36.7799 47.6884 37.4075 47.5643 37.9524 47.7711L44.2351 50.178L54.0765 33.1987L58.0213 35.1711Z" stroke="black" stroke-width="1.37931" stroke-linecap="round" stroke-linejoin="round"/>
<path id="Vector_7" d="M36.3163 55.3782L27.5853 70.433L25.1232 74.6813L18.4542 71.3433H18.4404L11.3301 67.7851L12.4059 65.9299L22.2542 70.8537L32.3715 53.4058L36.3163 55.3782Z" stroke="black" stroke-width="1.37931" stroke-linecap="round" stroke-linejoin="round"/>
</g>
</svg>
