<svg width="80" height="80" viewBox="0 0 80 80" fill="none" xmlns="http://www.w3.org/2000/svg">
<g id="Frame">
<path id="Vector" d="M51.7488 35.2765L51.4357 35.1235C50.1905 34.553 48.7157 34.7687 47.0183 35.7496C45.1818 36.8139 43.6027 38.4765 42.2949 40.7374C40.9801 42.9983 40.3262 45.1826 40.3262 47.2974C40.3262 49.4122 40.9801 50.8382 42.2949 51.5825C43.6027 52.3338 45.1818 52.1739 47.0183 51.1096C48.8618 50.0452 50.434 48.3895 51.7488 46.1217C53.0566 43.8608 53.7175 41.6765 53.7175 39.5617C53.7175 37.447 53.0566 36.0209 51.7488 35.2765Z" stroke="black" stroke-width="1.3913" stroke-linecap="round" stroke-linejoin="round"/>
<path id="Vector_2" d="M50.366 60.7024V72.2225C50.366 73.3077 50.046 74.4068 49.406 75.5129C48.766 76.619 47.973 77.4468 47.0199 77.9964C46.0738 78.5459 45.2808 78.6364 44.6338 78.2677C43.9938 77.899 43.6738 77.1755 43.6738 76.0833V64.5632C43.6738 63.478 43.9938 62.3788 44.6338 61.2728C45.2808 60.1667 46.0738 59.3389 47.0199 58.7893C47.8756 58.3024 48.606 58.1772 49.2112 58.4206L49.406 58.518C50.046 58.8867 50.366 59.6102 50.366 60.7024Z" stroke="black" stroke-width="1.3913" stroke-linecap="round" stroke-linejoin="round"/>
<path id="Vector_3" d="M33.6339 51.1585C33.6339 51.2976 33.6339 51.4368 33.62 51.576C33.5504 52.529 33.2304 53.4821 32.6669 54.449C32.0269 55.5551 31.2339 56.3829 30.2878 56.9325L29.773 57.2316L20.2426 62.7272C19.2965 63.2768 18.5034 63.3673 17.8565 63.0055C17.2165 62.6368 16.8965 61.9064 16.8965 60.8212C16.8965 59.736 17.2165 58.6368 17.8565 57.5308C18.5034 56.4247 19.2965 55.5968 20.2426 55.0473L30.2878 49.2524C31.1365 48.7585 31.867 48.6334 32.4722 48.8838L32.6669 48.9811C33.3139 49.3429 33.6339 50.0733 33.6339 51.1585Z" stroke="black" stroke-width="1.3913" stroke-linecap="round" stroke-linejoin="round"/>
<path id="Vector_4" d="M77.1407 26.038C77.1407 27.1232 76.8207 28.2223 76.1807 29.3284C75.5407 30.4345 74.7477 31.2623 73.7946 31.8119L63.7562 37.6066C62.8102 38.1562 62.0102 38.2467 61.3702 37.878C60.7302 37.5162 60.4102 36.7858 60.4102 35.7006C60.4102 34.6153 60.7302 33.5162 61.3702 32.4101C62.0102 31.304 62.8102 30.4763 63.7562 29.9267L73.7946 24.1319C74.6503 23.638 75.3807 23.5127 75.986 23.7632L76.1807 23.8606C76.8207 24.2223 77.1407 24.9527 77.1407 26.038Z" stroke="black" stroke-width="1.3913" stroke-linecap="round" stroke-linejoin="round"/>
<path id="Vector_5" d="M50.366 10.7758V22.2958C50.366 22.421 50.359 22.5462 50.352 22.6784C50.2894 23.6384 49.9695 24.6122 49.406 25.5862C48.766 26.6922 47.973 27.5201 47.0199 28.0697C46.846 28.1671 46.679 28.2575 46.5121 28.3201C45.7886 28.6332 45.1625 28.6332 44.6338 28.341C43.9938 27.9723 43.6738 27.2488 43.6738 26.1567V14.6366C43.6738 13.5514 43.9938 12.4523 44.6338 11.3462C45.2808 10.2401 46.0738 9.41231 47.0199 8.86275C47.8756 8.37579 48.606 8.24362 49.2112 8.49405L49.406 8.59144C50.046 8.96014 50.366 9.68362 50.366 10.7758Z" stroke="black" stroke-width="1.3913" stroke-linecap="round" stroke-linejoin="round"/>
<path id="Vector_6" d="M49.2102 8.49372C48.605 8.24329 47.8745 8.37546 47.0189 8.86242C46.0728 9.41198 45.2798 10.2398 44.6328 11.3459C43.9928 12.452 43.6728 13.551 43.6728 14.6363V26.1563C43.6728 27.2485 43.9928 27.972 44.6328 28.3407L30.9145 21.4815L30.7198 21.3842C30.0798 21.0155 29.7598 20.292 29.7598 19.1998V7.67974C29.7598 6.59456 30.0798 5.49544 30.7198 4.38935C31.3667 3.28327 32.1598 2.45547 33.1059 1.90591C34.0589 1.3633 34.8519 1.2659 35.4919 1.6346L49.2102 8.49372Z" stroke="black" stroke-width="1.3913" stroke-linecap="round" stroke-linejoin="round"/>
<path id="Vector_7" d="M75.9869 23.7633C75.3817 23.5129 74.6512 23.6381 73.7956 24.132L63.7572 29.9269C62.8111 30.4764 62.0111 31.3042 61.3711 32.4103C60.7311 33.5164 60.4111 34.6085 60.4111 35.7007C60.4111 36.7929 60.7311 37.5164 61.3711 37.8781L47.6528 31.019L47.4581 30.9216C46.8181 30.5598 46.498 29.8294 46.498 28.7442C46.498 28.6051 46.4981 28.459 46.512 28.3198C46.679 28.2572 46.8459 28.1668 47.0198 28.0694C47.9728 27.5198 48.7659 26.6919 49.4059 25.5859C49.9694 24.6119 50.2894 23.6381 50.352 22.6781L59.8824 17.1755C60.8354 16.6259 61.6285 16.5355 62.2685 16.9042L75.9869 23.7633Z" stroke="black" stroke-width="1.3913" stroke-linecap="round" stroke-linejoin="round"/>
<path id="Vector_8" d="M51.4367 35.1235C50.1915 34.5531 48.7167 34.7687 47.0193 35.7496C45.1828 36.8139 43.6036 38.4765 42.2958 40.7373C40.981 42.9982 40.3271 45.1826 40.3271 47.2974C40.3271 49.4122 40.981 50.8382 42.2958 51.5826L28.6958 44.7861L28.3828 44.626C27.068 43.8817 26.4141 42.4487 26.4141 40.3409C26.4141 38.2331 27.068 36.0417 28.3828 33.7808C29.6906 31.5199 31.2697 29.8574 33.1062 28.7931C34.9497 27.7287 36.5219 27.5687 37.8367 28.32L51.4367 35.1235Z" stroke="black" stroke-width="1.3913" stroke-linecap="round" stroke-linejoin="round"/>
<path id="Vector_9" d="M51.7505 35.2766L51.4375 35.1235" stroke="black" stroke-width="1.3913" stroke-linecap="round" stroke-linejoin="round"/>
<path id="Vector_10" d="M32.4731 48.8835C31.8679 48.6331 31.1374 48.7582 30.2887 49.2521L20.2435 55.047C19.2974 55.5965 18.5043 56.4244 17.8574 57.5305C17.2174 58.6365 16.8974 59.7356 16.8974 60.8208C16.8974 61.906 17.2174 62.6365 17.8574 63.0052L3.94437 56.0487C3.30437 55.68 2.98438 54.9495 2.98438 53.8643C2.98438 52.7791 3.30437 51.68 3.94437 50.5739C4.59133 49.4679 5.38437 48.64 6.33046 48.0905L16.3757 42.2956C17.3217 41.746 18.1148 41.6556 18.7548 42.0243L32.4731 48.8835Z" stroke="black" stroke-width="1.3913" stroke-linecap="round" stroke-linejoin="round"/>
<path id="Vector_11" d="M49.2102 58.4207C48.605 58.1772 47.8745 58.3025 47.0189 58.7895C46.0728 59.3391 45.2798 60.1668 44.6328 61.2729C43.9928 62.379 43.6728 63.4781 43.6728 64.5633V76.0833C43.6728 77.1754 43.9928 77.8989 44.6328 78.2676L30.9145 71.4085L30.7198 71.3111C30.0798 70.9424 29.7598 70.2189 29.7598 69.1269V57.6068C29.7598 57.4816 29.7667 57.3564 29.7737 57.2312L30.2885 56.932C31.2345 56.3825 32.0276 55.5547 32.6676 54.4486C33.2311 53.4817 33.5511 52.5286 33.6206 51.5756C34.3511 51.2695 34.9702 51.2695 35.4919 51.5617L49.2102 58.4207Z" stroke="black" stroke-width="1.3913" stroke-linecap="round" stroke-linejoin="round"/>
</g>
</svg>
