<svg width="62" height="22" viewBox="0 0 62 22" fill="none" xmlns="http://www.w3.org/2000/svg">
<g style="mix-blend-mode:multiply">
<rect width="62" height="22" rx="11" fill="#ECFDF3"/>
<path d="M10.7111 6.27273V15H9.39435V6.27273H10.7111ZM13.8006 11.1136V15H12.5265V8.45455H13.7495V9.51989H13.8304C13.981 9.1733 14.2168 8.89489 14.5378 8.68466C14.8617 8.47443 15.2694 8.36932 15.7608 8.36932C16.2069 8.36932 16.5975 8.46307 16.9327 8.65057C17.2679 8.83523 17.5279 9.1108 17.7125 9.47727C17.8972 9.84375 17.9895 10.2969 17.9895 10.8366V15H16.7154V10.9901C16.7154 10.5156 16.5918 10.1449 16.3446 9.87784C16.0975 9.60795 15.758 9.47301 15.3262 9.47301C15.0307 9.47301 14.7679 9.53693 14.5378 9.66477C14.3105 9.79261 14.1301 9.98011 13.9966 10.2273C13.8659 10.4716 13.8006 10.767 13.8006 11.1136ZM27.7789 10.0526L26.6241 10.2571C26.5758 10.1094 26.4991 9.96875 26.394 9.83523C26.2917 9.7017 26.1525 9.59233 25.9764 9.5071C25.8002 9.42187 25.5801 9.37926 25.3159 9.37926C24.9551 9.37926 24.6539 9.46023 24.4125 9.62216C24.171 9.78125 24.0502 9.98722 24.0502 10.2401C24.0502 10.4588 24.1312 10.6349 24.2931 10.7685C24.4551 10.902 24.7164 11.0114 25.0772 11.0966L26.117 11.3352C26.7193 11.4744 27.1681 11.6889 27.4636 11.9787C27.7591 12.2685 27.9068 12.6449 27.9068 13.108C27.9068 13.5 27.7931 13.8494 27.5659 14.1562C27.3414 14.4602 27.0275 14.6989 26.6241 14.8722C26.2235 15.0455 25.7591 15.1321 25.2306 15.1321C24.4977 15.1321 23.8997 14.9759 23.4366 14.6634C22.9735 14.348 22.6895 13.9006 22.5843 13.321L23.8159 13.1335C23.8926 13.4545 24.0502 13.6974 24.2889 13.8622C24.5275 14.0241 24.8386 14.1051 25.2221 14.1051C25.6397 14.1051 25.9735 14.0185 26.2235 13.8452C26.4735 13.669 26.5985 13.4545 26.5985 13.2017C26.5985 12.9972 26.5218 12.8253 26.3684 12.6861C26.2179 12.5469 25.9863 12.4418 25.6738 12.3707L24.5659 12.1278C23.9551 11.9886 23.5034 11.767 23.2108 11.4631C22.921 11.1591 22.7761 10.7741 22.7761 10.3082C22.7761 9.92187 22.8841 9.58381 23.1 9.29403C23.3159 9.00426 23.6142 8.77841 23.9949 8.61648C24.3755 8.4517 24.8116 8.36932 25.3031 8.36932C26.0105 8.36932 26.5673 8.52273 26.9735 8.82955C27.3798 9.13352 27.6483 9.54119 27.7789 10.0526ZM32.3631 8.45455V9.47727H28.7878V8.45455H32.3631ZM29.7466 6.88636H31.0208V13.0781C31.0208 13.3253 31.0577 13.5114 31.1316 13.6364C31.2054 13.7585 31.3006 13.8423 31.4171 13.8878C31.5364 13.9304 31.6657 13.9517 31.8049 13.9517C31.9071 13.9517 31.9966 13.9446 32.0733 13.9304C32.15 13.9162 32.2097 13.9048 32.2523 13.8963L32.4824 14.9489C32.4086 14.9773 32.3034 15.0057 32.1671 15.0341C32.0307 15.0653 31.8603 15.0824 31.6557 15.0852C31.3205 15.0909 31.008 15.0312 30.7182 14.9062C30.4284 14.7812 30.1941 14.5881 30.0151 14.3267C29.8361 14.0653 29.7466 13.7372 29.7466 13.3423V6.88636ZM36.4593 15.1321C35.8457 15.1321 35.3102 14.9915 34.8528 14.7102C34.3954 14.429 34.0403 14.0355 33.7875 13.5298C33.5346 13.0241 33.4082 12.4332 33.4082 11.7571C33.4082 11.0781 33.5346 10.4844 33.7875 9.97585C34.0403 9.46733 34.3954 9.07244 34.8528 8.79119C35.3102 8.50994 35.8457 8.36932 36.4593 8.36932C37.073 8.36932 37.6085 8.50994 38.0659 8.79119C38.5233 9.07244 38.8784 9.46733 39.1312 9.97585C39.3841 10.4844 39.5105 11.0781 39.5105 11.7571C39.5105 12.4332 39.3841 13.0241 39.1312 13.5298C38.8784 14.0355 38.5233 14.429 38.0659 14.7102C37.6085 14.9915 37.073 15.1321 36.4593 15.1321ZM36.4636 14.0625C36.8613 14.0625 37.1909 13.9574 37.4522 13.7472C37.7136 13.5369 37.9068 13.2571 38.0318 12.9077C38.1596 12.5582 38.2235 12.1733 38.2235 11.7528C38.2235 11.3352 38.1596 10.9517 38.0318 10.6023C37.9068 10.25 37.7136 9.96733 37.4522 9.75426C37.1909 9.54119 36.8613 9.43466 36.4636 9.43466C36.063 9.43466 35.7306 9.54119 35.4664 9.75426C35.2051 9.96733 35.0105 10.25 34.8826 10.6023C34.7576 10.9517 34.6951 11.3352 34.6951 11.7528C34.6951 12.1733 34.7576 12.5582 34.8826 12.9077C35.0105 13.2571 35.2051 13.5369 35.4664 13.7472C35.7306 13.9574 36.063 14.0625 36.4636 14.0625ZM43.6898 15.1321C43.0563 15.1321 42.5108 14.9886 42.0534 14.7017C41.5989 14.4119 41.2495 14.0128 41.0051 13.5043C40.7608 12.9957 40.6387 12.4134 40.6387 11.7571C40.6387 11.0923 40.7637 10.5057 41.0137 9.99716C41.2637 9.4858 41.6159 9.08665 42.0705 8.79972C42.525 8.51278 43.0605 8.36932 43.677 8.36932C44.1742 8.36932 44.6174 8.46165 45.0066 8.64631C45.3958 8.82812 45.7097 9.08381 45.9483 9.41335C46.1898 9.7429 46.3333 10.1278 46.3787 10.5682H45.1387C45.0705 10.2614 44.9142 9.99716 44.6699 9.77557C44.4284 9.55398 44.1046 9.44318 43.6983 9.44318C43.3432 9.44318 43.0321 9.53693 42.7651 9.72443C42.5009 9.90909 42.2949 10.1733 42.1472 10.517C41.9995 10.858 41.9256 11.2614 41.9256 11.7273C41.9256 12.2045 41.998 12.6165 42.1429 12.9631C42.2878 13.3097 42.4924 13.5781 42.7566 13.7685C43.0236 13.9588 43.3375 14.054 43.6983 14.054C43.9398 14.054 44.1586 14.0099 44.3546 13.9219C44.5534 13.831 44.7196 13.7017 44.8532 13.5341C44.9895 13.3665 45.0847 13.1648 45.1387 12.929H46.3787C46.3333 13.3523 46.1955 13.7301 45.9654 14.0625C45.7353 14.3949 45.427 14.6562 45.0407 14.8466C44.6571 15.0369 44.2069 15.1321 43.6898 15.1321ZM48.9132 12.7798L48.9047 11.2244H49.1262L51.7342 8.45455H53.2598L50.2853 11.608H50.085L48.9132 12.7798ZM47.7413 15V6.27273H49.0154V15H47.7413ZM51.8748 15L49.5311 11.8892L50.4089 10.9986L53.4387 15H51.8748Z" fill="#027A48"/>
</g>
</svg>
