<svg width="62" height="22" viewBox="0 0 62 22" fill="none" xmlns="http://www.w3.org/2000/svg">
<g style="mix-blend-mode:multiply">
<rect width="62" height="22" rx="11" fill="#FEE2E2"/>
<path d="M10.717 6.27273V15H9.40021V6.27273H10.717ZM13.8065 11.1136V15H12.5323V8.45455H13.7553V9.51989H13.8363C13.9869 9.1733 14.2227 8.89489 14.5437 8.68466C14.8675 8.47443 15.2752 8.36932 15.7667 8.36932C16.2127 8.36932 16.6033 8.46307 16.9386 8.65057C17.2738 8.83523 17.5337 9.1108 17.7184 9.47727C17.9031 9.84375 17.9954 10.2969 17.9954 10.8366V15H16.7212V10.9901C16.7212 10.5156 16.5977 10.1449 16.3505 9.87784C16.1033 9.60795 15.7638 9.47301 15.332 9.47301C15.0366 9.47301 14.7738 9.53693 14.5437 9.66477C14.3164 9.79261 14.136 9.98011 14.0025 10.2273C13.8718 10.4716 13.8065 10.767 13.8065 11.1136ZM21.609 15.1449C21.1942 15.1449 20.8192 15.0682 20.484 14.9148C20.1488 14.7585 19.8832 14.5327 19.6871 14.2372C19.494 13.9418 19.3974 13.5795 19.3974 13.1506C19.3974 12.7812 19.4684 12.4773 19.6104 12.2386C19.7525 12 19.9442 11.8111 20.1857 11.6719C20.4272 11.5327 20.6971 11.4276 20.9954 11.3565C21.2937 11.2855 21.5977 11.2315 21.9073 11.1946C22.2994 11.1491 22.6175 11.1122 22.8619 11.0838C23.1062 11.0526 23.2837 11.0028 23.3945 10.9347C23.5053 10.8665 23.5607 10.7557 23.5607 10.6023V10.5724C23.5607 10.2003 23.4556 9.91193 23.2454 9.70739C23.038 9.50284 22.7283 9.40057 22.3164 9.40057C21.8874 9.40057 21.5494 9.49574 21.3022 9.68608C21.0579 9.87358 20.8888 10.0824 20.7951 10.3125L19.5977 10.0398C19.7397 9.64205 19.9471 9.32102 20.2198 9.0767C20.4954 8.82955 20.8121 8.65057 21.1701 8.53977C21.5281 8.42614 21.9045 8.36932 22.2994 8.36932C22.5607 8.36932 22.8377 8.40057 23.1303 8.46307C23.4258 8.52273 23.7013 8.63352 23.957 8.79545C24.2156 8.95739 24.4272 9.18892 24.592 9.49006C24.7567 9.78835 24.8391 10.1761 24.8391 10.6534V15H23.5948V14.1051H23.5437C23.4613 14.2699 23.3377 14.4318 23.1729 14.5909C23.0082 14.75 22.7965 14.8821 22.538 14.9872C22.2795 15.0923 21.9698 15.1449 21.609 15.1449ZM21.886 14.1222C22.2383 14.1222 22.5394 14.0526 22.7894 13.9134C23.0423 13.7741 23.234 13.5923 23.3647 13.3679C23.4982 13.1406 23.565 12.8977 23.565 12.6392V11.7955C23.5195 11.8409 23.4315 11.8835 23.3008 11.9233C23.1729 11.9602 23.0266 11.9929 22.8619 12.0213C22.6971 12.0469 22.5366 12.071 22.3803 12.0938C22.2241 12.1136 22.0934 12.1307 21.9883 12.1449C21.7411 12.1761 21.5153 12.2287 21.3107 12.3026C21.109 12.3764 20.9471 12.483 20.8249 12.6222C20.7056 12.7585 20.646 12.9403 20.646 13.1676C20.646 13.483 20.7624 13.7216 20.9954 13.8835C21.2283 14.0426 21.5252 14.1222 21.886 14.1222ZM29.2933 15.1321C28.6598 15.1321 28.1143 14.9886 27.657 14.7017C27.2024 14.4119 26.853 14.0128 26.6087 13.5043C26.3643 12.9957 26.2422 12.4134 26.2422 11.7571C26.2422 11.0923 26.3672 10.5057 26.6172 9.99716C26.8672 9.4858 27.2195 9.08665 27.674 8.79972C28.1286 8.51278 28.6641 8.36932 29.2805 8.36932C29.7777 8.36932 30.2209 8.46165 30.6101 8.64631C30.9993 8.82812 31.3132 9.08381 31.5518 9.41335C31.7933 9.7429 31.9368 10.1278 31.9822 10.5682H30.7422C30.674 10.2614 30.5178 9.99716 30.2734 9.77557C30.032 9.55398 29.7081 9.44318 29.3018 9.44318C28.9467 9.44318 28.6357 9.53693 28.3686 9.72443C28.1044 9.90909 27.8984 10.1733 27.7507 10.517C27.603 10.858 27.5291 11.2614 27.5291 11.7273C27.5291 12.2045 27.6016 12.6165 27.7464 12.9631C27.8913 13.3097 28.0959 13.5781 28.3601 13.7685C28.6271 13.9588 28.9411 14.054 29.3018 14.054C29.5433 14.054 29.7621 14.0099 29.9581 13.9219C30.157 13.831 30.3232 13.7017 30.4567 13.5341C30.593 13.3665 30.6882 13.1648 30.7422 12.929H31.9822C31.9368 13.3523 31.799 13.7301 31.5689 14.0625C31.3388 14.3949 31.0305 14.6562 30.6442 14.8466C30.2607 15.0369 29.8104 15.1321 29.2933 15.1321ZM36.4002 8.45455V9.47727H32.8249V8.45455H36.4002ZM33.7837 6.88636H35.0579V13.0781C35.0579 13.3253 35.0948 13.5114 35.1687 13.6364C35.2425 13.7585 35.3377 13.8423 35.4542 13.8878C35.5735 13.9304 35.7028 13.9517 35.842 13.9517C35.9442 13.9517 36.0337 13.9446 36.1104 13.9304C36.1871 13.9162 36.2468 13.9048 36.2894 13.8963L36.5195 14.9489C36.4457 14.9773 36.3406 15.0057 36.2042 15.0341C36.0678 15.0653 35.8974 15.0824 35.6928 15.0852C35.3576 15.0909 35.0451 15.0312 34.7553 14.9062C34.4656 14.7812 34.2312 14.5881 34.0522 14.3267C33.8732 14.0653 33.7837 13.7372 33.7837 13.3423V6.88636ZM37.8097 15V8.45455H39.0838V15H37.8097ZM38.4531 7.4446C38.2315 7.4446 38.0412 7.37074 37.8821 7.22301C37.7259 7.07244 37.6477 6.89347 37.6477 6.68608C37.6477 6.47585 37.7259 6.29687 37.8821 6.14915C38.0412 5.99858 38.2315 5.9233 38.4531 5.9233C38.6747 5.9233 38.8636 5.99858 39.0199 6.14915C39.179 6.29687 39.2585 6.47585 39.2585 6.68608C39.2585 6.89347 39.179 7.07244 39.0199 7.22301C38.8636 7.37074 38.6747 7.4446 38.4531 7.4446ZM46.3974 8.45455L44.0238 15H42.6602L40.2823 8.45455H41.6502L43.3079 13.4915H43.3761L45.0295 8.45455H46.3974ZM50.1932 15.1321C49.5483 15.1321 48.9929 14.9943 48.527 14.7188C48.0639 14.4403 47.706 14.0497 47.4531 13.5469C47.2031 13.0412 47.0781 12.4489 47.0781 11.7699C47.0781 11.0994 47.2031 10.5085 47.4531 9.99716C47.706 9.4858 48.0582 9.08665 48.5099 8.79972C48.9645 8.51278 49.4957 8.36932 50.1037 8.36932C50.473 8.36932 50.831 8.4304 51.1776 8.55256C51.5241 8.67472 51.8352 8.86648 52.1108 9.12784C52.3864 9.3892 52.6037 9.72869 52.7628 10.1463C52.9219 10.5611 53.0014 11.0653 53.0014 11.6591V12.1108H47.7983V11.1562H51.7528C51.7528 10.821 51.6847 10.5241 51.5483 10.2656C51.4119 10.0043 51.2202 9.7983 50.973 9.64773C50.7287 9.49716 50.4418 9.42188 50.1122 9.42188C49.7543 9.42188 49.4418 9.50994 49.1747 9.68608C48.9105 9.85937 48.706 10.0866 48.5611 10.3679C48.419 10.6463 48.348 10.9489 48.348 11.2756V12.0213C48.348 12.4588 48.4247 12.831 48.5781 13.1378C48.7344 13.4446 48.9517 13.679 49.2301 13.8409C49.5085 14 49.8338 14.0795 50.206 14.0795C50.4474 14.0795 50.6676 14.0455 50.8665 13.9773C51.0653 13.9062 51.2372 13.8011 51.3821 13.6619C51.527 13.5227 51.6378 13.3509 51.7145 13.1463L52.9205 13.3636C52.8239 13.7187 52.6506 14.0298 52.4006 14.2969C52.1534 14.5611 51.8423 14.767 51.4673 14.9148C51.0952 15.0597 50.6705 15.1321 50.1932 15.1321Z" fill="#B91C1C"/>
</g>
</svg>
