<svg width="80" height="80" viewBox="0 0 80 80" fill="none" xmlns="http://www.w3.org/2000/svg">
<g id="Frame">
<path id="Vector" d="M71.279 10.0603C71.1809 10.015 71.0829 9.96974 70.9772 9.932H70.9621C69.0074 9.17728 66.781 9.23011 64.2678 10.098C63.347 10.415 62.3809 10.8452 61.3771 11.3886C61.1733 11.5018 60.962 11.6226 60.7507 11.7433C58.2224 13.2075 55.8224 15.2075 53.5809 17.7433C51.3318 20.2716 49.4149 23.0716 47.8451 26.1207C47.4527 25.8188 47.045 25.5546 46.6149 25.3282L46.4791 25.2603L32.8262 18.4377C34.3809 15.4414 36.2677 12.6867 38.4865 10.1962C40.7281 7.6603 43.1281 5.66033 45.6564 4.19618C46.879 3.48675 48.0564 2.9358 49.1734 2.5509C51.6866 1.68297 53.913 1.63014 55.8678 2.37731H55.8829C56.1395 2.48297 56.6299 2.73203 56.8337 2.83769L56.9243 2.88297L71.279 10.0603Z" stroke="black" stroke-width="1.50943" stroke-linecap="round" stroke-linejoin="round"/>
<path id="Vector_2" d="M76.5408 20.7473C76.5408 27.0568 74.5031 34.0228 70.4427 41.6379C66.3748 49.2605 61.7634 57.2152 56.5936 65.5247L51.7182 73.4492C51.1899 74.3549 50.5786 75.1473 49.8842 75.8191C49.1899 76.4908 48.5106 77.0266 47.8465 77.4115C47.1673 77.804 46.4879 78.053 45.7936 78.1813C45.0992 78.3021 44.4955 78.2191 43.9672 77.9172L39.0162 75.5927C38.4728 75.336 37.9445 75.0794 37.4162 74.8152L35.4313 73.819C34.2691 73.2077 33.137 72.5888 32.0276 71.9549C31.2879 71.5322 30.5634 71.1096 29.854 70.6718C28.2615 69.7058 26.737 68.7096 25.2728 67.6756C21.1823 64.8001 19.1445 60.1964 19.1445 53.8869C19.1445 48.7247 20.6465 43.5473 23.6654 38.3473C26.6767 33.1549 30.4276 29.253 34.9257 26.6568C37.4616 25.1926 39.854 24.4303 42.1031 24.37C43.1295 24.3398 44.088 24.4454 44.971 24.6869C45.4993 24.8303 45.9974 25.019 46.4805 25.2605L46.6162 25.3284C47.0464 25.5549 47.454 25.819 47.8465 26.1209C49.4163 23.0718 51.3332 20.2718 53.5823 17.7435C55.8238 15.2077 58.2238 13.2077 60.7521 11.7435C60.9634 11.6228 61.1747 11.502 61.3785 11.3888C62.3823 10.8454 63.3484 10.4152 64.2691 10.0983C66.7823 9.23034 69.0088 9.17751 70.9635 9.92468H70.9786C71.0842 9.96996 71.1823 10.0152 71.2804 10.0605L72.02 10.4303C75.0313 12.1511 76.5408 15.5851 76.5408 20.7473Z" stroke="black" stroke-width="1.50943" stroke-linecap="round" stroke-linejoin="round"/>
<path id="Vector_3" d="M46.4791 25.2601C45.9961 25.0186 45.4979 24.83 44.9696 24.6866C44.0866 24.4451 43.1281 24.3394 42.1017 24.3696C39.8527 24.43 37.4602 25.1922 34.9244 26.6564C30.4262 29.2526 26.6753 33.1545 23.664 38.3469C20.6451 43.5469 19.1432 48.7243 19.1432 53.8866C19.1432 60.196 21.1809 64.7998 25.2715 67.6752C26.7356 68.7092 28.2601 69.7054 29.8526 70.6715C30.562 71.1092 31.2865 71.5318 32.0262 71.9545C33.1356 72.5885 34.2677 73.2073 35.4299 73.8186L22.1318 67.1771L21.4149 66.8224C19.8677 66.0375 18.3733 65.2375 16.9318 64.4073C14.5469 63.0488 12.2979 61.6224 10.1771 60.1281C6.08656 57.2526 4.04883 52.6488 4.04883 46.3394C4.04883 41.1771 5.55075 35.9998 8.56962 30.7998C11.581 25.6073 15.3319 21.7054 19.83 19.1092C22.3659 17.6451 24.7583 16.8828 27.0074 16.8224C28.0338 16.7922 28.9923 16.8979 29.8753 17.1394C30.4715 17.3054 31.0376 17.5243 31.5734 17.8111L32.8262 18.4375L46.4791 25.2601Z" stroke="black" stroke-width="1.50943" stroke-linecap="round" stroke-linejoin="round"/>
</g>
</svg>
