<svg width="87" height="22" viewBox="0 0 87 22" fill="none" xmlns="http://www.w3.org/2000/svg">
<rect width="87" height="22" rx="11" fill="#FEE2E2"/>
<path d="M16.8484 10.6364C16.8484 11.5682 16.6779 12.3693 16.337 13.0398C15.9961 13.7074 15.5288 14.2216 14.935 14.5824C14.3441 14.9403 13.6722 15.1193 12.9194 15.1193C12.1637 15.1193 11.489 14.9403 10.8952 14.5824C10.3043 14.2216 9.83842 13.706 9.49751 13.0355C9.15661 12.3651 8.98615 11.5653 8.98615 10.6364C8.98615 9.70455 9.15661 8.90483 9.49751 8.23722C9.83842 7.56676 10.3043 7.05256 10.8952 6.6946C11.489 6.33381 12.1637 6.15341 12.9194 6.15341C13.6722 6.15341 14.3441 6.33381 14.935 6.6946C15.5288 7.05256 15.9961 7.56676 16.337 8.23722C16.6779 8.90483 16.8484 9.70455 16.8484 10.6364ZM15.5444 10.6364C15.5444 9.92614 15.4293 9.32812 15.1992 8.84233C14.9719 8.35369 14.6594 7.98438 14.2617 7.73438C13.8668 7.48153 13.4194 7.35511 12.9194 7.35511C12.4165 7.35511 11.9677 7.48153 11.5728 7.73438C11.1779 7.98438 10.8654 8.35369 10.6353 8.84233C10.408 9.32812 10.2944 9.92614 10.2944 10.6364C10.2944 11.3466 10.408 11.946 10.6353 12.4347C10.8654 12.9205 11.1779 13.2898 11.5728 13.5426C11.9677 13.7926 12.4165 13.9176 12.9194 13.9176C13.4194 13.9176 13.8668 13.7926 14.2617 13.5426C14.6594 13.2898 14.9719 12.9205 15.1992 12.4347C15.4293 11.946 15.5444 11.3466 15.5444 10.6364ZM22.5341 12.2855V8.45455H23.8125V15H22.5597V13.8665H22.4915C22.3409 14.2159 22.0994 14.5071 21.767 14.7401C21.4375 14.9702 21.027 15.0852 20.5355 15.0852C20.1151 15.0852 19.7429 14.9929 19.419 14.8082C19.098 14.6207 18.8452 14.3438 18.6605 13.9773C18.4787 13.6108 18.3878 13.1577 18.3878 12.6179V8.45455H19.6619V12.4645C19.6619 12.9105 19.7855 13.2656 20.0327 13.5298C20.2798 13.794 20.6009 13.9261 20.9957 13.9261C21.2344 13.9261 21.4716 13.8665 21.7074 13.7472C21.946 13.6278 22.1435 13.4474 22.2997 13.206C22.4588 12.9645 22.5369 12.6577 22.5341 12.2855ZM28.5799 8.45455V9.47727H25.0046V8.45455H28.5799ZM25.9634 6.88636H27.2376V13.0781C27.2376 13.3253 27.2745 13.5114 27.3484 13.6364C27.4222 13.7585 27.5174 13.8423 27.6339 13.8878C27.7532 13.9304 27.8825 13.9517 28.0217 13.9517C28.1239 13.9517 28.2134 13.9446 28.2901 13.9304C28.3668 13.9162 28.4265 13.9048 28.4691 13.8963L28.6992 14.9489C28.6254 14.9773 28.5202 15.0057 28.3839 15.0341C28.2475 15.0653 28.0771 15.0824 27.8725 15.0852C27.5373 15.0909 27.2248 15.0312 26.935 14.9062C26.6452 14.7812 26.4109 14.5881 26.2319 14.3267C26.0529 14.0653 25.9634 13.7372 25.9634 13.3423V6.88636ZM35.9222 15.1321C35.3086 15.1321 34.7731 14.9915 34.3157 14.7102C33.8583 14.429 33.5032 14.0355 33.2504 13.5298C32.9975 13.0241 32.8711 12.4332 32.8711 11.7571C32.8711 11.0781 32.9975 10.4844 33.2504 9.97585C33.5032 9.46733 33.8583 9.07244 34.3157 8.79119C34.7731 8.50994 35.3086 8.36932 35.9222 8.36932C36.5359 8.36932 37.0714 8.50994 37.5288 8.79119C37.9862 9.07244 38.3413 9.46733 38.5941 9.97585C38.8469 10.4844 38.9734 11.0781 38.9734 11.7571C38.9734 12.4332 38.8469 13.0241 38.5941 13.5298C38.3413 14.0355 37.9862 14.429 37.5288 14.7102C37.0714 14.9915 36.5359 15.1321 35.9222 15.1321ZM35.9265 14.0625C36.3242 14.0625 36.6538 13.9574 36.9151 13.7472C37.1765 13.5369 37.3697 13.2571 37.4947 12.9077C37.6225 12.5582 37.6864 12.1733 37.6864 11.7528C37.6864 11.3352 37.6225 10.9517 37.4947 10.6023C37.3697 10.25 37.1765 9.96733 36.9151 9.75426C36.6538 9.54119 36.3242 9.43466 35.9265 9.43466C35.5259 9.43466 35.1935 9.54119 34.9293 9.75426C34.668 9.96733 34.4734 10.25 34.3455 10.6023C34.2205 10.9517 34.158 11.3352 34.158 11.7528C34.158 12.1733 34.2205 12.5582 34.3455 12.9077C34.4734 13.2571 34.668 13.5369 34.9293 13.7472C35.1935 13.9574 35.5259 14.0625 35.9265 14.0625ZM43.5107 8.45455V9.47727H39.8118V8.45455H43.5107ZM40.826 15V7.69602C40.826 7.28693 40.9155 6.94744 41.0945 6.67756C41.2734 6.40483 41.5107 6.2017 41.8061 6.06818C42.1016 5.93182 42.4226 5.86364 42.7692 5.86364C43.0249 5.86364 43.2436 5.88494 43.4254 5.92756C43.6072 5.96733 43.7422 6.00426 43.8303 6.03835L43.532 7.0696C43.4723 7.05256 43.3956 7.03267 43.3018 7.00994C43.2081 6.98437 43.0945 6.97159 42.9609 6.97159C42.6513 6.97159 42.4297 7.0483 42.2962 7.2017C42.1655 7.35511 42.1001 7.5767 42.1001 7.86648V15H40.826ZM52.9059 10.0526L51.7511 10.2571C51.7028 10.1094 51.6261 9.96875 51.521 9.83523C51.4187 9.7017 51.2795 9.59233 51.1033 9.5071C50.9272 9.42187 50.707 9.37926 50.4428 9.37926C50.082 9.37926 49.7809 9.46023 49.5394 9.62216C49.2979 9.78125 49.1772 9.98722 49.1772 10.2401C49.1772 10.4588 49.2582 10.6349 49.4201 10.7685C49.582 10.902 49.8434 11.0114 50.2042 11.0966L51.244 11.3352C51.8462 11.4744 52.2951 11.6889 52.5906 11.9787C52.886 12.2685 53.0337 12.6449 53.0337 13.108C53.0337 13.5 52.9201 13.8494 52.6928 14.1562C52.4684 14.4602 52.1545 14.6989 51.7511 14.8722C51.3505 15.0455 50.886 15.1321 50.3576 15.1321C49.6246 15.1321 49.0266 14.9759 48.5636 14.6634C48.1005 14.348 47.8164 13.9006 47.7113 13.321L48.9428 13.1335C49.0195 13.4545 49.1772 13.6974 49.4158 13.8622C49.6545 14.0241 49.9656 14.1051 50.3491 14.1051C50.7667 14.1051 51.1005 14.0185 51.3505 13.8452C51.6005 13.669 51.7255 13.4545 51.7255 13.2017C51.7255 12.9972 51.6488 12.8253 51.4954 12.6861C51.3448 12.5469 51.1133 12.4418 50.8008 12.3707L49.6928 12.1278C49.082 11.9886 48.6303 11.767 48.3377 11.4631C48.0479 11.1591 47.9031 10.7741 47.9031 10.3082C47.9031 9.92187 48.011 9.58381 48.2269 9.29403C48.4428 9.00426 48.7411 8.77841 49.1218 8.61648C49.5025 8.4517 49.9386 8.36932 50.43 8.36932C51.1374 8.36932 51.6942 8.52273 52.1005 8.82955C52.5067 9.13352 52.7752 9.54119 52.9059 10.0526ZM57.4901 8.45455V9.47727H53.9148V8.45455H57.4901ZM54.8736 6.88636H56.1477V13.0781C56.1477 13.3253 56.1847 13.5114 56.2585 13.6364C56.3324 13.7585 56.4276 13.8423 56.544 13.8878C56.6634 13.9304 56.7926 13.9517 56.9318 13.9517C57.0341 13.9517 57.1236 13.9446 57.2003 13.9304C57.277 13.9162 57.3366 13.9048 57.3793 13.8963L57.6094 14.9489C57.5355 14.9773 57.4304 15.0057 57.294 15.0341C57.1577 15.0653 56.9872 15.0824 56.7827 15.0852C56.4474 15.0909 56.1349 15.0312 55.8452 14.9062C55.5554 14.7812 55.321 14.5881 55.142 14.3267C54.9631 14.0653 54.8736 13.7372 54.8736 13.3423V6.88636ZM61.5863 15.1321C60.9727 15.1321 60.4371 14.9915 59.9798 14.7102C59.5224 14.429 59.1673 14.0355 58.9144 13.5298C58.6616 13.0241 58.5352 12.4332 58.5352 11.7571C58.5352 11.0781 58.6616 10.4844 58.9144 9.97585C59.1673 9.46733 59.5224 9.07244 59.9798 8.79119C60.4371 8.50994 60.9727 8.36932 61.5863 8.36932C62.1999 8.36932 62.7354 8.50994 63.1928 8.79119C63.6502 9.07244 64.0053 9.46733 64.2582 9.97585C64.511 10.4844 64.6374 11.0781 64.6374 11.7571C64.6374 12.4332 64.511 13.0241 64.2582 13.5298C64.0053 14.0355 63.6502 14.429 63.1928 14.7102C62.7354 14.9915 62.1999 15.1321 61.5863 15.1321ZM61.5906 14.0625C61.9883 14.0625 62.3178 13.9574 62.5792 13.7472C62.8406 13.5369 63.0337 13.2571 63.1587 12.9077C63.2866 12.5582 63.3505 12.1733 63.3505 11.7528C63.3505 11.3352 63.2866 10.9517 63.1587 10.6023C63.0337 10.25 62.8406 9.96733 62.5792 9.75426C62.3178 9.54119 61.9883 9.43466 61.5906 9.43466C61.19 9.43466 60.8576 9.54119 60.5934 9.75426C60.332 9.96733 60.1374 10.25 60.0096 10.6023C59.8846 10.9517 59.8221 11.3352 59.8221 11.7528C59.8221 12.1733 59.8846 12.5582 60.0096 12.9077C60.1374 13.2571 60.332 13.5369 60.5934 13.7472C60.8576 13.9574 61.19 14.0625 61.5906 14.0625ZM68.8168 15.1321C68.1832 15.1321 67.6378 14.9886 67.1804 14.7017C66.7259 14.4119 66.3764 14.0128 66.1321 13.5043C65.8878 12.9957 65.7656 12.4134 65.7656 11.7571C65.7656 11.0923 65.8906 10.5057 66.1406 9.99716C66.3906 9.4858 66.7429 9.08665 67.1974 8.79972C67.652 8.51278 68.1875 8.36932 68.804 8.36932C69.3011 8.36932 69.7443 8.46165 70.1335 8.64631C70.5227 8.82812 70.8366 9.08381 71.0753 9.41335C71.3168 9.7429 71.4602 10.1278 71.5057 10.5682H70.2656C70.1974 10.2614 70.0412 9.99716 69.7969 9.77557C69.5554 9.55398 69.2315 9.44318 68.8253 9.44318C68.4702 9.44318 68.1591 9.53693 67.892 9.72443C67.6278 9.90909 67.4219 10.1733 67.2741 10.517C67.1264 10.858 67.0526 11.2614 67.0526 11.7273C67.0526 12.2045 67.125 12.6165 67.2699 12.9631C67.4148 13.3097 67.6193 13.5781 67.8835 13.7685C68.1506 13.9588 68.4645 14.054 68.8253 14.054C69.0668 14.054 69.2855 14.0099 69.4815 13.9219C69.6804 13.831 69.8466 13.7017 69.9801 13.5341C70.1165 13.3665 70.2116 13.1648 70.2656 12.929H71.5057C71.4602 13.3523 71.3224 13.7301 71.0923 14.0625C70.8622 14.3949 70.554 14.6562 70.1676 14.8466C69.7841 15.0369 69.3338 15.1321 68.8168 15.1321ZM74.0401 12.7798L74.0316 11.2244H74.2532L76.8612 8.45455H78.3867L75.4123 11.608H75.212L74.0401 12.7798ZM72.8683 15V6.27273H74.1424V15H72.8683ZM77.0018 15L74.658 11.8892L75.5359 10.9986L78.5657 15H77.0018Z" fill="#B91C1C"/>
</svg>
