<svg width="76" height="24" viewBox="0 0 76 24" fill="none" xmlns="http://www.w3.org/2000/svg">
<rect x="0.399902" width="75" height="24" rx="12" fill="#F2F4F7"/>
<path d="M11.6679 17V6.81818H15.2972C16.0893 6.81818 16.7456 6.96236 17.2659 7.25071C17.7863 7.53906 18.1757 7.93347 18.4343 8.43395C18.6928 8.93111 18.822 9.49124 18.822 10.1143C18.822 10.7408 18.6911 11.3042 18.4293 11.8047C18.1708 12.3018 17.7797 12.6963 17.256 12.9879C16.7356 13.2763 16.081 13.4205 15.2922 13.4205H12.7965V12.1179H15.153C15.6535 12.1179 16.0595 12.0317 16.371 11.8594C16.6826 11.6837 16.9113 11.4451 17.0571 11.1435C17.203 10.8419 17.2759 10.4988 17.2759 10.1143C17.2759 9.72988 17.203 9.38849 17.0571 9.0902C16.9113 8.7919 16.6809 8.55824 16.3661 8.3892C16.0545 8.22017 15.6435 8.13565 15.1331 8.13565H13.2041V17H11.6679ZM23.6992 17.1541C22.9468 17.1541 22.2988 16.9934 21.7553 16.6719C21.215 16.3471 20.7974 15.8913 20.5024 15.3047C20.2108 14.7147 20.0649 14.0237 20.0649 13.2315C20.0649 12.4493 20.2108 11.7599 20.5024 11.1634C20.7974 10.5668 21.2084 10.1011 21.7354 9.76633C22.2657 9.43158 22.8855 9.2642 23.5948 9.2642C24.0256 9.2642 24.4433 9.33546 24.8476 9.47798C25.252 9.6205 25.6149 9.84422 25.9364 10.1491C26.2579 10.4541 26.5114 10.8501 26.697 11.3374C26.8827 11.8213 26.9755 12.4096 26.9755 13.1023V13.6293H20.9051V12.5156H25.5188C25.5188 12.1245 25.4392 11.7782 25.2801 11.4766C25.121 11.1716 24.8973 10.9313 24.609 10.7557C24.3239 10.58 23.9892 10.4922 23.6047 10.4922C23.1871 10.4922 22.8225 10.5949 22.511 10.8004C22.2027 11.0026 21.9641 11.2678 21.7951 11.5959C21.6293 11.9207 21.5465 12.2737 21.5465 12.6548V13.5249C21.5465 14.0353 21.636 14.4695 21.8149 14.8274C21.9972 15.1854 22.2508 15.4588 22.5756 15.6477C22.9004 15.8333 23.2799 15.9261 23.7141 15.9261C23.9958 15.9261 24.2527 15.8864 24.4847 15.8068C24.7167 15.724 24.9172 15.6013 25.0862 15.4389C25.2553 15.2765 25.3845 15.076 25.474 14.8374L26.881 15.0909C26.7683 15.5052 26.5661 15.8681 26.2745 16.1797C25.9861 16.4879 25.6232 16.7282 25.1857 16.9006C24.7515 17.0696 24.256 17.1541 23.6992 17.1541ZM30.1113 12.4659V17H28.6248V9.36364H30.0516V10.6065H30.1461C30.3217 10.2022 30.5968 9.87737 30.9714 9.6321C31.3492 9.38684 31.8248 9.2642 32.3982 9.2642C32.9186 9.2642 33.3743 9.37358 33.7654 9.59233C34.1565 9.80777 34.4598 10.1293 34.6752 10.5568C34.8906 10.9844 34.9984 11.513 34.9984 12.1428V17H33.5119V12.3217C33.5119 11.7682 33.3677 11.3357 33.0793 11.0241C32.791 10.7093 32.3949 10.5518 31.8911 10.5518C31.5464 10.5518 31.2398 10.6264 30.9714 10.7756C30.7062 10.9247 30.4958 11.1435 30.34 11.4318C30.1875 11.7169 30.1113 12.0616 30.1113 12.4659ZM39.8506 17.1491C39.2342 17.1491 38.684 16.9917 38.2001 16.6768C37.7195 16.3587 37.3416 15.9062 37.0665 15.3196C36.7948 14.7296 36.6589 14.022 36.6589 13.1967C36.6589 12.3714 36.7964 11.6655 37.0715 11.0788C37.3499 10.4922 37.7311 10.0431 38.215 9.73153C38.6989 9.41998 39.2474 9.2642 39.8606 9.2642C40.3345 9.2642 40.7157 9.34375 41.004 9.50284C41.2957 9.65862 41.5211 9.84091 41.6802 10.0497C41.8426 10.2585 41.9685 10.4425 42.058 10.6016H42.1475V6.81818H43.634V17H42.1823V15.8118H42.058C41.9685 15.9742 41.8393 16.1598 41.6702 16.3686C41.5045 16.5774 41.2758 16.7597 40.9842 16.9155C40.6925 17.0713 40.3146 17.1491 39.8506 17.1491ZM40.1788 15.8814C40.6063 15.8814 40.9676 15.7687 41.2626 15.5433C41.5609 15.3146 41.7862 14.9981 41.9387 14.5938C42.0945 14.1894 42.1724 13.7187 42.1724 13.1818C42.1724 12.6515 42.0961 12.1875 41.9437 11.7898C41.7912 11.392 41.5675 11.0821 41.2725 10.8601C40.9775 10.638 40.6129 10.527 40.1788 10.527C39.7313 10.527 39.3584 10.643 39.0601 10.875C38.7619 11.107 38.5365 11.4235 38.384 11.8246C38.2349 12.2256 38.1603 12.678 38.1603 13.1818C38.1603 13.6922 38.2365 14.1513 38.389 14.5589C38.5414 14.9666 38.7668 15.2898 39.0651 15.5284C39.3667 15.7637 39.7379 15.8814 40.1788 15.8814ZM45.7556 17V9.36364H47.2421V17H45.7556ZM46.5063 8.18537C46.2478 8.18537 46.0258 8.09919 45.8402 7.92685C45.6579 7.75118 45.5667 7.54238 45.5667 7.30043C45.5667 7.05516 45.6579 6.84635 45.8402 6.67401C46.0258 6.49834 46.2478 6.41051 46.5063 6.41051C46.7649 6.41051 46.9853 6.49834 47.1676 6.67401C47.3532 6.84635 47.446 7.05516 47.446 7.30043C47.446 7.54238 47.3532 7.75118 47.1676 7.92685C46.9853 8.09919 46.7649 8.18537 46.5063 8.18537ZM50.7285 12.4659V17H49.242V9.36364H50.6688V10.6065H50.7633C50.9389 10.2022 51.214 9.87737 51.5886 9.6321C51.9664 9.38684 52.442 9.2642 53.0154 9.2642C53.5358 9.2642 53.9915 9.37358 54.3826 9.59233C54.7737 9.80777 55.077 10.1293 55.2924 10.5568C55.5078 10.9844 55.6155 11.513 55.6155 12.1428V17H54.129V12.3217C54.129 11.7682 53.9849 11.3357 53.6965 11.0241C53.4082 10.7093 53.0121 10.5518 52.5083 10.5518C52.1636 10.5518 51.857 10.6264 51.5886 10.7756C51.3234 10.9247 51.1129 11.1435 50.9572 11.4318C50.8047 11.7169 50.7285 12.0616 50.7285 12.4659ZM60.8109 20.0227C60.2043 20.0227 59.6823 19.9432 59.2448 19.7841C58.8106 19.625 58.456 19.4145 58.1809 19.1527C57.9058 18.8909 57.7003 18.6042 57.5644 18.2926L58.8421 17.7656C58.9316 17.9115 59.0509 18.0656 59.2001 18.228C59.3525 18.3937 59.558 18.5346 59.8165 18.6506C60.0784 18.7666 60.4148 18.8246 60.8258 18.8246C61.3892 18.8246 61.8549 18.687 62.2228 18.4119C62.5907 18.1402 62.7746 17.706 62.7746 17.1094V15.608H62.6802C62.5907 15.7704 62.4614 15.951 62.2924 16.1499C62.1267 16.3487 61.898 16.5211 61.6063 16.6669C61.3146 16.8127 60.9351 16.8857 60.4678 16.8857C59.8646 16.8857 59.321 16.7448 58.8371 16.4631C58.3565 16.178 57.9754 15.7588 57.6937 15.2053C57.4153 14.6484 57.2761 13.964 57.2761 13.152C57.2761 12.34 57.4136 11.6439 57.6887 11.0639C57.9671 10.4839 58.3483 10.0398 58.8322 9.73153C59.3161 9.41998 59.8646 9.2642 60.4778 9.2642C60.9517 9.2642 61.3345 9.34375 61.6262 9.50284C61.9179 9.65862 62.1449 9.84091 62.3073 10.0497C62.473 10.2585 62.6006 10.4425 62.6901 10.6016H62.7995V9.36364H64.2562V17.169C64.2562 17.8253 64.1037 18.3639 63.7988 18.7848C63.4939 19.2057 63.0812 19.5173 62.5609 19.7195C62.0438 19.9216 61.4605 20.0227 60.8109 20.0227ZM60.7959 15.6527C61.2235 15.6527 61.5848 15.5533 61.8797 15.3544C62.178 15.1522 62.4034 14.8639 62.5559 14.4893C62.7117 14.1115 62.7896 13.6591 62.7896 13.1321C62.7896 12.6184 62.7133 12.166 62.5609 11.7749C62.4084 11.3838 62.1847 11.0788 61.8897 10.8601C61.5947 10.638 61.2301 10.527 60.7959 10.527C60.3485 10.527 59.9756 10.643 59.6773 10.875C59.379 11.1037 59.1537 11.4152 59.0012 11.8097C58.8521 12.2041 58.7775 12.6449 58.7775 13.1321C58.7775 13.6326 58.8537 14.0717 59.0062 14.4496C59.1586 14.8274 59.384 15.1224 59.6823 15.3345C59.9839 15.5466 60.3551 15.6527 60.7959 15.6527Z" fill="#334155"/>
</svg>
