<svg width="127" height="40" viewBox="0 0 127 40" fill="none" xmlns="http://www.w3.org/2000/svg">
<rect width="127" height="40" rx="16" fill="#C2E5FF"/>
<path d="M17.7969 13.625H19.2578L22.9844 22.8984L26.7031 13.625H28.1719L23.5469 25H22.4062L17.7969 13.625ZM17.3203 13.625H18.6094L18.8203 20.5625V25H17.3203V13.625ZM27.3516 13.625H28.6406V25H27.1406V20.5625L27.3516 13.625ZM30.6875 20.8672V20.6875C30.6875 20.0781 30.776 19.513 30.9531 18.9922C31.1302 18.4661 31.3854 18.0104 31.7188 17.625C32.0521 17.2344 32.4557 16.9323 32.9297 16.7188C33.4036 16.5 33.9349 16.3906 34.5234 16.3906C35.1172 16.3906 35.651 16.5 36.125 16.7188C36.6042 16.9323 37.0104 17.2344 37.3438 17.625C37.6823 18.0104 37.9401 18.4661 38.1172 18.9922C38.2943 19.513 38.3828 20.0781 38.3828 20.6875V20.8672C38.3828 21.4766 38.2943 22.0417 38.1172 22.5625C37.9401 23.0833 37.6823 23.5391 37.3438 23.9297C37.0104 24.3151 36.6068 24.6172 36.1328 24.8359C35.6641 25.0495 35.1328 25.1562 34.5391 25.1562C33.9453 25.1562 33.4115 25.0495 32.9375 24.8359C32.4635 24.6172 32.0573 24.3151 31.7188 23.9297C31.3854 23.5391 31.1302 23.0833 30.9531 22.5625C30.776 22.0417 30.6875 21.4766 30.6875 20.8672ZM32.1328 20.6875V20.8672C32.1328 21.2891 32.1823 21.6875 32.2812 22.0625C32.3802 22.4323 32.5286 22.7604 32.7266 23.0469C32.9297 23.3333 33.1823 23.5599 33.4844 23.7266C33.7865 23.888 34.138 23.9688 34.5391 23.9688C34.9349 23.9688 35.2812 23.888 35.5781 23.7266C35.8802 23.5599 36.1302 23.3333 36.3281 23.0469C36.526 22.7604 36.6745 22.4323 36.7734 22.0625C36.8776 21.6875 36.9297 21.2891 36.9297 20.8672V20.6875C36.9297 20.2708 36.8776 19.8776 36.7734 19.5078C36.6745 19.1328 36.5234 18.8021 36.3203 18.5156C36.1224 18.224 35.8724 17.9948 35.5703 17.8281C35.2734 17.6615 34.9245 17.5781 34.5234 17.5781C34.1276 17.5781 33.7786 17.6615 33.4766 17.8281C33.1797 17.9948 32.9297 18.224 32.7266 18.5156C32.5286 18.8021 32.3802 19.1328 32.2812 19.5078C32.1823 19.8776 32.1328 20.2708 32.1328 20.6875ZM45.1172 22.7578C45.1172 22.5495 45.0703 22.3568 44.9766 22.1797C44.888 21.9974 44.7031 21.8333 44.4219 21.6875C44.1458 21.5365 43.7292 21.4062 43.1719 21.2969C42.7031 21.1979 42.2786 21.0807 41.8984 20.9453C41.5234 20.8099 41.2031 20.6458 40.9375 20.4531C40.6771 20.2604 40.4766 20.0339 40.3359 19.7734C40.1953 19.513 40.125 19.2083 40.125 18.8594C40.125 18.526 40.1979 18.2109 40.3438 17.9141C40.4948 17.6172 40.7057 17.3542 40.9766 17.125C41.2526 16.8958 41.5833 16.7161 41.9688 16.5859C42.3542 16.4557 42.7839 16.3906 43.2578 16.3906C43.9349 16.3906 44.513 16.5104 44.9922 16.75C45.4714 16.9896 45.8385 17.3099 46.0938 17.7109C46.349 18.1068 46.4766 18.5469 46.4766 19.0312H45.0312C45.0312 18.7969 44.9609 18.5703 44.8203 18.3516C44.6849 18.1276 44.4844 17.9427 44.2188 17.7969C43.9583 17.651 43.638 17.5781 43.2578 17.5781C42.8568 17.5781 42.5312 17.6406 42.2812 17.7656C42.0365 17.8854 41.8568 18.0391 41.7422 18.2266C41.6328 18.4141 41.5781 18.612 41.5781 18.8203C41.5781 18.9766 41.6042 19.1172 41.6562 19.2422C41.7135 19.362 41.8125 19.474 41.9531 19.5781C42.0938 19.6771 42.2917 19.7708 42.5469 19.8594C42.8021 19.9479 43.1276 20.0365 43.5234 20.125C44.2161 20.2812 44.7865 20.4688 45.2344 20.6875C45.6823 20.9062 46.0156 21.1745 46.2344 21.4922C46.4531 21.8099 46.5625 22.1953 46.5625 22.6484C46.5625 23.0182 46.4844 23.3568 46.3281 23.6641C46.1771 23.9714 45.9557 24.237 45.6641 24.4609C45.3776 24.6797 45.0339 24.8516 44.6328 24.9766C44.237 25.0964 43.7917 25.1562 43.2969 25.1562C42.5521 25.1562 41.9219 25.0234 41.4062 24.7578C40.8906 24.4922 40.5 24.1484 40.2344 23.7266C39.9688 23.3047 39.8359 22.8594 39.8359 22.3906H41.2891C41.3099 22.7865 41.4245 23.1016 41.6328 23.3359C41.8411 23.5651 42.0964 23.7292 42.3984 23.8281C42.7005 23.9219 43 23.9688 43.2969 23.9688C43.6927 23.9688 44.0234 23.9167 44.2891 23.8125C44.5599 23.7083 44.7656 23.5651 44.9062 23.3828C45.0469 23.2005 45.1172 22.9922 45.1172 22.7578ZM52 16.5469V17.6562H47.4297V16.5469H52ZM48.9766 14.4922H50.4219V22.9062C50.4219 23.1927 50.4661 23.4089 50.5547 23.5547C50.6432 23.7005 50.7578 23.7969 50.8984 23.8438C51.0391 23.8906 51.1901 23.9141 51.3516 23.9141C51.4714 23.9141 51.5964 23.9036 51.7266 23.8828C51.862 23.8568 51.9635 23.8359 52.0312 23.8203L52.0391 25C51.9245 25.0365 51.7734 25.0703 51.5859 25.1016C51.4036 25.138 51.1823 25.1562 50.9219 25.1562C50.5677 25.1562 50.2422 25.0859 49.9453 24.9453C49.6484 24.8047 49.4115 24.5703 49.2344 24.2422C49.0625 23.9089 48.9766 23.4609 48.9766 22.8984V14.4922ZM59.1094 18.1719V28.25H57.6562V16.5469H58.9844L59.1094 18.1719ZM64.8047 20.7031V20.8672C64.8047 21.4818 64.7318 22.0521 64.5859 22.5781C64.4401 23.099 64.2266 23.5521 63.9453 23.9375C63.6693 24.3229 63.3281 24.6224 62.9219 24.8359C62.5156 25.0495 62.0495 25.1562 61.5234 25.1562C60.987 25.1562 60.513 25.0677 60.1016 24.8906C59.6901 24.7135 59.3411 24.4557 59.0547 24.1172C58.7682 23.7786 58.5391 23.3724 58.3672 22.8984C58.2005 22.4245 58.0859 21.8906 58.0234 21.2969V20.4219C58.0859 19.7969 58.2031 19.237 58.375 18.7422C58.5469 18.2474 58.7734 17.8255 59.0547 17.4766C59.3411 17.1224 59.6875 16.8542 60.0938 16.6719C60.5 16.4844 60.9688 16.3906 61.5 16.3906C62.0312 16.3906 62.5026 16.4948 62.9141 16.7031C63.3255 16.9062 63.6719 17.1979 63.9531 17.5781C64.2344 17.9583 64.4453 18.4141 64.5859 18.9453C64.7318 19.4714 64.8047 20.0573 64.8047 20.7031ZM63.3516 20.8672V20.7031C63.3516 20.2812 63.3073 19.8854 63.2188 19.5156C63.1302 19.1406 62.9922 18.8125 62.8047 18.5312C62.6224 18.2448 62.388 18.0208 62.1016 17.8594C61.8151 17.6927 61.474 17.6094 61.0781 17.6094C60.7135 17.6094 60.3958 17.6719 60.125 17.7969C59.8594 17.9219 59.6328 18.0911 59.4453 18.3047C59.2578 18.513 59.1042 18.7526 58.9844 19.0234C58.8698 19.2891 58.7839 19.5651 58.7266 19.8516V21.875C58.8307 22.2396 58.9766 22.5833 59.1641 22.9062C59.3516 23.224 59.6016 23.4818 59.9141 23.6797C60.2266 23.8724 60.6198 23.9688 61.0938 23.9688C61.4844 23.9688 61.8203 23.888 62.1016 23.7266C62.388 23.5599 62.6224 23.3333 62.8047 23.0469C62.9922 22.7604 63.1302 22.4323 63.2188 22.0625C63.3073 21.6875 63.3516 21.2891 63.3516 20.8672ZM66.2656 20.8672V20.6875C66.2656 20.0781 66.3542 19.513 66.5312 18.9922C66.7083 18.4661 66.9635 18.0104 67.2969 17.625C67.6302 17.2344 68.0339 16.9323 68.5078 16.7188C68.9818 16.5 69.513 16.3906 70.1016 16.3906C70.6953 16.3906 71.2292 16.5 71.7031 16.7188C72.1823 16.9323 72.5885 17.2344 72.9219 17.625C73.2604 18.0104 73.5182 18.4661 73.6953 18.9922C73.8724 19.513 73.9609 20.0781 73.9609 20.6875V20.8672C73.9609 21.4766 73.8724 22.0417 73.6953 22.5625C73.5182 23.0833 73.2604 23.5391 72.9219 23.9297C72.5885 24.3151 72.1849 24.6172 71.7109 24.8359C71.2422 25.0495 70.7109 25.1562 70.1172 25.1562C69.5234 25.1562 68.9896 25.0495 68.5156 24.8359C68.0417 24.6172 67.6354 24.3151 67.2969 23.9297C66.9635 23.5391 66.7083 23.0833 66.5312 22.5625C66.3542 22.0417 66.2656 21.4766 66.2656 20.8672ZM67.7109 20.6875V20.8672C67.7109 21.2891 67.7604 21.6875 67.8594 22.0625C67.9583 22.4323 68.1068 22.7604 68.3047 23.0469C68.5078 23.3333 68.7604 23.5599 69.0625 23.7266C69.3646 23.888 69.7161 23.9688 70.1172 23.9688C70.513 23.9688 70.8594 23.888 71.1562 23.7266C71.4583 23.5599 71.7083 23.3333 71.9062 23.0469C72.1042 22.7604 72.2526 22.4323 72.3516 22.0625C72.4557 21.6875 72.5078 21.2891 72.5078 20.8672V20.6875C72.5078 20.2708 72.4557 19.8776 72.3516 19.5078C72.2526 19.1328 72.1016 18.8021 71.8984 18.5156C71.7005 18.224 71.4505 17.9948 71.1484 17.8281C70.8516 17.6615 70.5026 17.5781 70.1016 17.5781C69.7057 17.5781 69.3568 17.6615 69.0547 17.8281C68.7578 17.9948 68.5078 18.224 68.3047 18.5156C68.1068 18.8021 67.9583 19.1328 67.8594 19.5078C67.7604 19.8776 67.7109 20.2708 67.7109 20.6875ZM77.2188 18.1719V28.25H75.7656V16.5469H77.0938L77.2188 18.1719ZM82.9141 20.7031V20.8672C82.9141 21.4818 82.8411 22.0521 82.6953 22.5781C82.5495 23.099 82.3359 23.5521 82.0547 23.9375C81.7786 24.3229 81.4375 24.6224 81.0312 24.8359C80.625 25.0495 80.1589 25.1562 79.6328 25.1562C79.0964 25.1562 78.6224 25.0677 78.2109 24.8906C77.7995 24.7135 77.4505 24.4557 77.1641 24.1172C76.8776 23.7786 76.6484 23.3724 76.4766 22.8984C76.3099 22.4245 76.1953 21.8906 76.1328 21.2969V20.4219C76.1953 19.7969 76.3125 19.237 76.4844 18.7422C76.6562 18.2474 76.8828 17.8255 77.1641 17.4766C77.4505 17.1224 77.7969 16.8542 78.2031 16.6719C78.6094 16.4844 79.0781 16.3906 79.6094 16.3906C80.1406 16.3906 80.612 16.4948 81.0234 16.7031C81.4349 16.9062 81.7812 17.1979 82.0625 17.5781C82.3438 17.9583 82.5547 18.4141 82.6953 18.9453C82.8411 19.4714 82.9141 20.0573 82.9141 20.7031ZM81.4609 20.8672V20.7031C81.4609 20.2812 81.4167 19.8854 81.3281 19.5156C81.2396 19.1406 81.1016 18.8125 80.9141 18.5312C80.7318 18.2448 80.4974 18.0208 80.2109 17.8594C79.9245 17.6927 79.5833 17.6094 79.1875 17.6094C78.8229 17.6094 78.5052 17.6719 78.2344 17.7969C77.9688 17.9219 77.7422 18.0911 77.5547 18.3047C77.3672 18.513 77.2135 18.7526 77.0938 19.0234C76.9792 19.2891 76.8932 19.5651 76.8359 19.8516V21.875C76.9401 22.2396 77.0859 22.5833 77.2734 22.9062C77.4609 23.224 77.7109 23.4818 78.0234 23.6797C78.3359 23.8724 78.7292 23.9688 79.2031 23.9688C79.5938 23.9688 79.9297 23.888 80.2109 23.7266C80.4974 23.5599 80.7318 23.3333 80.9141 23.0469C81.1016 22.7604 81.2396 22.4323 81.3281 22.0625C81.4167 21.6875 81.4609 21.2891 81.4609 20.8672ZM89.9297 23.0469V16.5469H91.3828V25H90L89.9297 23.0469ZM90.2031 21.2656L90.8047 21.25C90.8047 21.8125 90.7448 22.3333 90.625 22.8125C90.5104 23.2865 90.3229 23.6979 90.0625 24.0469C89.8021 24.3958 89.4609 24.6693 89.0391 24.8672C88.6172 25.0599 88.1042 25.1562 87.5 25.1562C87.0885 25.1562 86.7109 25.0964 86.3672 24.9766C86.0286 24.8568 85.737 24.6719 85.4922 24.4219C85.2474 24.1719 85.0573 23.8464 84.9219 23.4453C84.7917 23.0443 84.7266 22.5625 84.7266 22V16.5469H86.1719V22.0156C86.1719 22.3958 86.2135 22.7109 86.2969 22.9609C86.3854 23.2057 86.5026 23.401 86.6484 23.5469C86.7995 23.6875 86.9661 23.7865 87.1484 23.8438C87.3359 23.901 87.5286 23.9297 87.7266 23.9297C88.3411 23.9297 88.8281 23.8125 89.1875 23.5781C89.5469 23.3385 89.8047 23.0182 89.9609 22.6172C90.1224 22.2109 90.2031 21.7604 90.2031 21.2656ZM95.1562 13V25H93.7031V13H95.1562ZM102.461 23.5547V19.2031C102.461 18.8698 102.393 18.5807 102.258 18.3359C102.128 18.0859 101.93 17.8932 101.664 17.7578C101.398 17.6224 101.07 17.5547 100.68 17.5547C100.315 17.5547 99.9948 17.6172 99.7188 17.7422C99.4479 17.8672 99.2344 18.0312 99.0781 18.2344C98.9271 18.4375 98.8516 18.6562 98.8516 18.8906H97.4062C97.4062 18.5885 97.4844 18.2891 97.6406 17.9922C97.7969 17.6953 98.0208 17.4271 98.3125 17.1875C98.6094 16.9427 98.9635 16.75 99.375 16.6094C99.7917 16.4635 100.255 16.3906 100.766 16.3906C101.38 16.3906 101.922 16.4948 102.391 16.7031C102.865 16.9115 103.234 17.2266 103.5 17.6484C103.771 18.0651 103.906 18.5885 103.906 19.2188V23.1562C103.906 23.4375 103.93 23.737 103.977 24.0547C104.029 24.3724 104.104 24.6458 104.203 24.875V25H102.695C102.622 24.8333 102.565 24.612 102.523 24.3359C102.482 24.0547 102.461 23.7943 102.461 23.5547ZM102.711 19.875L102.727 20.8906H101.266C100.854 20.8906 100.487 20.9245 100.164 20.9922C99.8411 21.0547 99.5703 21.151 99.3516 21.2812C99.1328 21.4115 98.9661 21.5755 98.8516 21.7734C98.737 21.9661 98.6797 22.1927 98.6797 22.4531C98.6797 22.7188 98.7396 22.9609 98.8594 23.1797C98.9792 23.3984 99.1589 23.5729 99.3984 23.7031C99.6432 23.8281 99.9427 23.8906 100.297 23.8906C100.74 23.8906 101.13 23.7969 101.469 23.6094C101.807 23.4219 102.076 23.1927 102.273 22.9219C102.477 22.651 102.586 22.388 102.602 22.1328L103.219 22.8281C103.182 23.0469 103.083 23.2891 102.922 23.5547C102.76 23.8203 102.544 24.0755 102.273 24.3203C102.008 24.5599 101.69 24.7604 101.32 24.9219C100.956 25.0781 100.544 25.1562 100.086 25.1562C99.513 25.1562 99.0104 25.0443 98.5781 24.8203C98.151 24.5964 97.8177 24.2969 97.5781 23.9219C97.3438 23.5417 97.2266 23.1172 97.2266 22.6484C97.2266 22.1953 97.3151 21.7969 97.4922 21.4531C97.6693 21.1042 97.9245 20.8151 98.2578 20.5859C98.5911 20.3516 98.9922 20.1745 99.4609 20.0547C99.9297 19.9349 100.453 19.875 101.031 19.875H102.711ZM107.625 17.875V25H106.18V16.5469H107.586L107.625 17.875ZM110.266 16.5L110.258 17.8438C110.138 17.8177 110.023 17.8021 109.914 17.7969C109.81 17.7865 109.69 17.7812 109.555 17.7812C109.221 17.7812 108.927 17.8333 108.672 17.9375C108.417 18.0417 108.201 18.1875 108.023 18.375C107.846 18.5625 107.706 18.7865 107.602 19.0469C107.503 19.3021 107.438 19.5833 107.406 19.8906L107 20.125C107 19.6146 107.049 19.1354 107.148 18.6875C107.253 18.2396 107.411 17.8438 107.625 17.5C107.839 17.151 108.109 16.8802 108.438 16.6875C108.771 16.4896 109.167 16.3906 109.625 16.3906C109.729 16.3906 109.849 16.4036 109.984 16.4297C110.12 16.4505 110.214 16.474 110.266 16.5Z" fill="black"/>
</svg>
