<svg width="85" height="22" viewBox="0 0 85 22" fill="none" xmlns="http://www.w3.org/2000/svg">
<rect width="85" height="22" rx="11" fill="#FEF3C7"/>
<path d="M9.06428 15V6.27273H12.1751C12.8512 6.27273 13.4123 6.3892 13.8583 6.62216C14.3072 6.85511 14.6424 7.17756 14.864 7.58949C15.0856 7.99858 15.1964 8.47159 15.1964 9.00852C15.1964 9.54261 15.0842 10.0128 14.8597 10.419C14.6381 10.8224 14.3029 11.1364 13.854 11.3608C13.408 11.5852 12.8469 11.6974 12.1708 11.6974H9.81428V10.5639H12.0515C12.4776 10.5639 12.8242 10.5028 13.0913 10.3807C13.3612 10.2585 13.5586 10.081 13.6836 9.84801C13.8086 9.61506 13.8711 9.33523 13.8711 9.00852C13.8711 8.67898 13.8072 8.39347 13.6793 8.15199C13.5543 7.91051 13.3569 7.72585 13.087 7.59801C12.82 7.46733 12.4691 7.40199 12.0344 7.40199H10.381V15H9.06428ZM13.3725 11.0625L15.5288 15H14.0288L11.9151 11.0625H13.3725ZM20.8427 12.2855V8.45455H22.1211V15H20.8683V13.8665H20.8001C20.6495 14.2159 20.408 14.5071 20.0756 14.7401C19.7461 14.9702 19.3356 15.0852 18.8441 15.0852C18.4237 15.0852 18.0515 14.9929 17.7276 14.8082C17.4066 14.6207 17.1538 14.3438 16.9691 13.9773C16.7873 13.6108 16.6964 13.1577 16.6964 12.6179V8.45455H17.9705V12.4645C17.9705 12.9105 18.0941 13.2656 18.3413 13.5298C18.5884 13.794 18.9094 13.9261 19.3043 13.9261C19.543 13.9261 19.7802 13.8665 20.016 13.7472C20.2546 13.6278 20.4521 13.4474 20.6083 13.206C20.7674 12.9645 20.8455 12.6577 20.8427 12.2855ZM25.1072 11.1136V15H23.8331V8.45455H25.0561V9.51989H25.1371C25.2876 9.1733 25.5234 8.89489 25.8445 8.68466C26.1683 8.47443 26.576 8.36932 27.0675 8.36932C27.5135 8.36932 27.9041 8.46307 28.2393 8.65057C28.5746 8.83523 28.8345 9.1108 29.0192 9.47727C29.2038 9.84375 29.2962 10.2969 29.2962 10.8366V15H28.022V10.9901C28.022 10.5156 27.8984 10.1449 27.6513 9.87784C27.4041 9.60795 27.0646 9.47301 26.6328 9.47301C26.3374 9.47301 26.0746 9.53693 25.8445 9.66477C25.6172 9.79261 25.4368 9.98011 25.3033 10.2273C25.1726 10.4716 25.1072 10.767 25.1072 11.1136ZM32.2791 11.1136V15H31.005V8.45455H32.228V9.51989H32.3089C32.4595 9.1733 32.6953 8.89489 33.0163 8.68466C33.3402 8.47443 33.7479 8.36932 34.2393 8.36932C34.6854 8.36932 35.076 8.46307 35.4112 8.65057C35.7464 8.83523 36.0064 9.1108 36.1911 9.47727C36.3757 9.84375 36.468 10.2969 36.468 10.8366V15H35.1939V10.9901C35.1939 10.5156 35.0703 10.1449 34.8232 9.87784C34.576 9.60795 34.2365 9.47301 33.8047 9.47301C33.5092 9.47301 33.2464 9.53693 33.0163 9.66477C32.7891 9.79261 32.6087 9.98011 32.4751 10.2273C32.3445 10.4716 32.2791 10.767 32.2791 11.1136ZM38.1768 15V8.45455H39.451V15H38.1768ZM38.8203 7.4446C38.5987 7.4446 38.4084 7.37074 38.2493 7.22301C38.093 7.07244 38.0149 6.89347 38.0149 6.68608C38.0149 6.47585 38.093 6.29687 38.2493 6.14915C38.4084 5.99858 38.5987 5.9233 38.8203 5.9233C39.0419 5.9233 39.2308 5.99858 39.3871 6.14915C39.5462 6.29687 39.6257 6.47585 39.6257 6.68608C39.6257 6.89347 39.5462 7.07244 39.3871 7.22301C39.2308 7.37074 39.0419 7.4446 38.8203 7.4446ZM42.4393 11.1136V15H41.1651V8.45455H42.3881V9.51989H42.4691C42.6197 9.1733 42.8555 8.89489 43.1765 8.68466C43.5004 8.47443 43.908 8.36932 44.3995 8.36932C44.8455 8.36932 45.2362 8.46307 45.5714 8.65057C45.9066 8.83523 46.1665 9.1108 46.3512 9.47727C46.5359 9.84375 46.6282 10.2969 46.6282 10.8366V15H45.354V10.9901C45.354 10.5156 45.2305 10.1449 44.9833 9.87784C44.7362 9.60795 44.3967 9.47301 43.9648 9.47301C43.6694 9.47301 43.4066 9.53693 43.1765 9.66477C42.9492 9.79261 42.7688 9.98011 42.6353 10.2273C42.5046 10.4716 42.4393 10.767 42.4393 11.1136ZM51.0813 17.5909C50.5614 17.5909 50.114 17.5227 49.739 17.3864C49.3668 17.25 49.0629 17.0696 48.8271 16.8452C48.5913 16.6207 48.4151 16.375 48.2987 16.108L49.3938 15.6562C49.4705 15.7812 49.5728 15.9134 49.7006 16.0526C49.8313 16.1946 50.0075 16.3153 50.229 16.4148C50.4535 16.5142 50.7418 16.5639 51.0941 16.5639C51.5771 16.5639 51.9762 16.446 52.2915 16.2102C52.6069 15.9773 52.7646 15.6051 52.7646 15.0938V13.8068H52.6836C52.6069 13.946 52.4961 14.1009 52.3512 14.2713C52.2092 14.4418 52.0131 14.5895 51.7631 14.7145C51.5131 14.8395 51.1879 14.902 50.7873 14.902C50.2702 14.902 49.8043 14.7812 49.3896 14.5398C48.9776 14.2955 48.6509 13.9361 48.4094 13.4616C48.1708 12.9844 48.0515 12.3977 48.0515 11.7017C48.0515 11.0057 48.1694 10.4091 48.4052 9.91193C48.6438 9.41477 48.9705 9.03409 49.3853 8.76989C49.8001 8.50284 50.2702 8.36932 50.7958 8.36932C51.2021 8.36932 51.5302 8.4375 51.7802 8.57386C52.0302 8.70739 52.2248 8.86364 52.364 9.04261C52.506 9.22159 52.6154 9.37926 52.6921 9.51562H52.7859V8.45455H54.0344V15.1449C54.0344 15.7074 53.9038 16.169 53.6424 16.5298C53.381 16.8906 53.0273 17.1577 52.5813 17.331C52.1381 17.5043 51.6381 17.5909 51.0813 17.5909ZM51.0685 13.8452C51.435 13.8452 51.7447 13.7599 51.9975 13.5895C52.2532 13.4162 52.4464 13.169 52.5771 12.848C52.7106 12.5241 52.7773 12.1364 52.7773 11.6847C52.7773 11.2443 52.712 10.8565 52.5813 10.5213C52.4506 10.1861 52.2589 9.92472 52.006 9.73722C51.7532 9.54687 51.4407 9.4517 51.0685 9.4517C50.685 9.4517 50.3654 9.55114 50.1097 9.75C49.854 9.94602 49.6609 10.2131 49.5302 10.5511C49.4023 10.8892 49.3384 11.267 49.3384 11.6847C49.3384 12.1136 49.4038 12.4901 49.5344 12.8139C49.6651 13.1378 49.8583 13.3906 50.114 13.5724C50.3725 13.7543 50.6907 13.8452 51.0685 13.8452ZM61.6761 15.1321C61.0625 15.1321 60.527 14.9915 60.0696 14.7102C59.6122 14.429 59.2571 14.0355 59.0043 13.5298C58.7514 13.0241 58.625 12.4332 58.625 11.7571C58.625 11.0781 58.7514 10.4844 59.0043 9.97585C59.2571 9.46733 59.6122 9.07244 60.0696 8.79119C60.527 8.50994 61.0625 8.36932 61.6761 8.36932C62.2898 8.36932 62.8253 8.50994 63.2827 8.79119C63.7401 9.07244 64.0952 9.46733 64.348 9.97585C64.6009 10.4844 64.7273 11.0781 64.7273 11.7571C64.7273 12.4332 64.6009 13.0241 64.348 13.5298C64.0952 14.0355 63.7401 14.429 63.2827 14.7102C62.8253 14.9915 62.2898 15.1321 61.6761 15.1321ZM61.6804 14.0625C62.0781 14.0625 62.4077 13.9574 62.669 13.7472C62.9304 13.5369 63.1236 13.2571 63.2486 12.9077C63.3764 12.5582 63.4403 12.1733 63.4403 11.7528C63.4403 11.3352 63.3764 10.9517 63.2486 10.6023C63.1236 10.25 62.9304 9.96733 62.669 9.75426C62.4077 9.54119 62.0781 9.43466 61.6804 9.43466C61.2798 9.43466 60.9474 9.54119 60.6832 9.75426C60.4219 9.96733 60.2273 10.25 60.0994 10.6023C59.9744 10.9517 59.9119 11.3352 59.9119 11.7528C59.9119 12.1733 59.9744 12.5582 60.0994 12.9077C60.2273 13.2571 60.4219 13.5369 60.6832 13.7472C60.9474 13.9574 61.2798 14.0625 61.6804 14.0625ZM70.2958 12.2855V8.45455H71.5742V15H70.3214V13.8665H70.2532C70.1026 14.2159 69.8612 14.5071 69.5288 14.7401C69.1992 14.9702 68.7887 15.0852 68.2972 15.0852C67.8768 15.0852 67.5046 14.9929 67.1808 14.8082C66.8597 14.6207 66.6069 14.3438 66.4222 13.9773C66.2404 13.6108 66.1495 13.1577 66.1495 12.6179V8.45455H67.4237V12.4645C67.4237 12.9105 67.5472 13.2656 67.7944 13.5298C68.0415 13.794 68.3626 13.9261 68.7575 13.9261C68.9961 13.9261 69.2333 13.8665 69.4691 13.7472C69.7077 13.6278 69.9052 13.4474 70.0614 13.206C70.2205 12.9645 70.2987 12.6577 70.2958 12.2855ZM76.3416 8.45455V9.47727H72.7663V8.45455H76.3416ZM73.7251 6.88636H74.9993V13.0781C74.9993 13.3253 75.0362 13.5114 75.1101 13.6364C75.1839 13.7585 75.2791 13.8423 75.3956 13.8878C75.5149 13.9304 75.6442 13.9517 75.7834 13.9517C75.8857 13.9517 75.9751 13.9446 76.0518 13.9304C76.1286 13.9162 76.1882 13.9048 76.2308 13.8963L76.4609 14.9489C76.3871 14.9773 76.282 15.0057 76.1456 15.0341C76.0092 15.0653 75.8388 15.0824 75.6342 15.0852C75.299 15.0909 74.9865 15.0312 74.6967 14.9062C74.407 14.7812 74.1726 14.5881 73.9936 14.3267C73.8146 14.0653 73.7251 13.7372 73.7251 13.3423V6.88636Z" fill="#B45309"/>
</svg>
