<svg width="27" height="36" viewBox="0 0 27 36" fill="none" xmlns="http://www.w3.org/2000/svg">
<path fill-rule="evenodd" clip-rule="evenodd" d="M3.95478 0.498209C2.4197 1.24176 1.6255 2.10526 0.809984 3.90684C-0.0774831 5.8017 -0.245372 9.21032 0.354268 12.1632C0.881952 14.7803 2.65954 19.9639 4.67433 24.7876C5.5618 26.8984 6.80904 29.9712 7.45932 31.6049C8.08294 33.2359 8.85049 34.8216 9.13832 35.1335C9.80992 35.853 10.7214 35.877 11.5636 35.1574C12.6189 34.27 22.7968 20.0625 24.6677 16.8697C27.2368 12.4777 27.3327 8.66131 24.9075 7.12623C24.2599 6.71848 23.8281 6.64654 22.4343 6.74248C20.4195 6.86241 18.8338 7.55798 16.3873 9.43152L14.7323 10.7028L14.4444 9.02376C14.0127 6.5026 12.8614 3.98414 11.4436 2.44906C9.9085 0.770064 8.70656 0.14378 6.71575 0.0238519C5.42053 -0.048105 4.94085 0.0238324 3.95478 0.503545V0.498209ZM8.13092 2.82748C10.4842 4.02676 12.0912 7.7472 12.6189 13.2666C12.7868 14.9935 13.1945 16.0276 13.7702 16.0276C14.2739 16.0276 14.8735 15.2121 14.7296 14.7084C14.5617 14.0608 14.9215 13.677 17.2748 11.9474C19.5801 10.2444 21.1151 9.42621 22.3624 9.18636C23.0579 9.04244 23.3218 9.11439 23.7536 9.54613C24.8809 10.6735 23.8735 13.5304 20.7766 18.1383C18.2315 21.9307 10.8173 32.2259 10.6494 32.2259C10.3616 32.2259 4.24258 17.011 3.32846 14.0101C2.36904 10.9133 2.12918 7.14489 2.72882 5.298C3.11259 4.17068 4.23995 2.80084 5.03414 2.51302C5.82567 2.22519 7.26744 2.36911 8.13092 2.82484V2.82748Z" fill="#FF6600"/>
</svg>
