<svg width="24" height="24" viewBox="0 0 24 24" fill="none" xmlns="http://www.w3.org/2000/svg">
<path d="M12.75 8.25C12.75 9.90686 11.4068 11.25 9.75 11.25C8.09314 11.25 6.75 9.90686 6.75 8.25C6.75 6.59314 8.09314 5.25 9.75 5.25C11.4068 5.25 12.75 6.59314 12.75 8.25Z" stroke="#334155" stroke-width="1.125"/>
<path d="M14.25 11.25C15.9068 11.25 17.25 9.90686 17.25 8.25C17.25 6.59314 15.9068 5.25 14.25 5.25" stroke="#334155" stroke-width="1.125" stroke-linecap="round" stroke-linejoin="round"/>
<path d="M11.25 13.5H8.25C6.17893 13.5 4.5 15.179 4.5 17.25C4.5 18.0784 5.17157 18.75 6 18.75H13.5C14.3284 18.75 15 18.0784 15 17.25C15 15.179 13.321 13.5 11.25 13.5Z" stroke="#334155" stroke-width="1.125" stroke-linejoin="round"/>
<path d="M15.75 13.5C17.821 13.5 19.5 15.179 19.5 17.25C19.5 18.0784 18.8284 18.75 18 18.75H16.875" stroke="#334155" stroke-width="1.125" stroke-linecap="round" stroke-linejoin="round"/>
</svg>
