<svg width="25" height="24" viewBox="0 0 25 24" fill="none" xmlns="http://www.w3.org/2000/svg">
<path d="M21.7442 11.045C22.0482 11.4713 22.2002 11.6845 22.2002 12C22.2002 12.3155 22.0482 12.5287 21.7442 12.955C20.3781 14.8706 16.8894 19 12.2002 19C7.51098 19 4.0223 14.8706 2.65624 12.955C2.35221 12.5287 2.2002 12.3155 2.2002 12C2.2002 11.6845 2.35221 11.4713 2.65624 11.045C4.0223 9.12944 7.51098 5 12.2002 5C16.8894 5 20.3781 9.12944 21.7442 11.045Z" stroke="#334155" stroke-width="1.5"/>
<path d="M15.2002 12C15.2002 10.3431 13.8571 9 12.2002 9C10.5433 9 9.2002 10.3431 9.2002 12C9.2002 13.6569 10.5433 15 12.2002 15C13.8571 15 15.2002 13.6569 15.2002 12Z" stroke="#334155" stroke-width="1.5"/>
</svg>
